{
.appVersion = "3337";
.formatVersion = 3;
DisplayStrings = (
"́",
"́"
);
axes = (
{
name = "Optical size";
tag = opsz;
},
{
name = Weight;
tag = wght;
}
);
classes = (
{
automatic = 1;

glyphs = (
{
glyphname = A;
kernLeft = KO_A;
kernRight = KO_A;
lastChange = "2025-04-03 16:27:01 +0000";
layers = (
{
anchors = (
{
name = bottom;
pos = (321,0);
},
{
name = ogonek;
pos = (607,10);
},
{
name = top;
pos = (439,646);
}
);
layerId = m01;
shapes = (
{
closed = 1;
nodes = (
(13,-1,o),
(52,0,o),
(91,0,cs),
(130,0,o),
(169,-1,o),
(207,-6,c),
(212,25,l),
(182,30,o),
(128,45,o),
(128,53,c),
(172,134,o),
(211,203,o),
(254,278,cs),
(438,601,l),
(417,594,l),
(436,516,o),
(453,440,o),
(469,359,cs),
(492,245,ls),
(505,180,o),
(518,115,o),
(529,53,c),
(529,45,o),
(473,31,o),
(444,25,c),
(439,-6,l),
(485,-1,o),
(531,0,o),
(576,0,cs),
(620,0,o),
(666,-1,o),
(710,-6,c),
(715,25,l),
(684,30,o),
(622,45,o),
(620,53,cs),
(603,117,o),
(584,194,o),
(572,254,cs),
(550,366,ls),
(531,462,o),
(513,557,o),
(500,646,cs),
(498,660,l),
(374,660,l),
(369,631,l),
(386,624,o),
(402,614,o),
(417,601,c),
(409,635,l),
(362,544,o),
(311,453,o),
(259,361,cs),
(84,53,ls),
(79,45,o),
(12,31,o),
(-22,25,c),
(-27,-6,l)
);
},
{
closed = 1;
nodes = (
(532,254,l),
(541,295,l),
(239,295,l),
(216,254,l)
);
}
);
width = 774;
},
{
anchors = (
{
name = bottom;
pos = (324,0);
},
{
name = ogonek;
pos = (623,10);
},
{
name = top;
pos = (439,654);
}
);
layerId = "66C19249-B420-404C-A3E7-B74793AC6646";
shapes = (
{
closed = 1;
nodes = (
(14,-1,o),
(56,0,o),
(98,0,cs),
(140,0,o),
(182,-1,o),
(223,-6,c),
(230,32,l),
(201,37,o),
(144,52,o),
(144,60,c),
(181,132,o),
(224,210,o),
(264,281,cs),
(442,600,l),
(418,604,l),
(444,496,o),
(456,443,o),
(472,363,cs),
(495,248,ls),
(507,188,o),
(520,121,o),
(529,60,c),
(529,52,o),
(471,38,o),
(443,32,c),
(436,-6,l),
(484,-1,o),
(532,0,o),
(579,0,cs),
(626,0,o),
(674,-1,o),
(720,-6,c),
(727,32,l),
(693,37,o),
(631,52,o),
(629,60,cs),
(612,130,o),
(596,200,o),
(584,257,cs),
(560,370,ls),
(534,492,o),
(516,584,o),
(506,654,cs),
(504,668,l),
(367,668,l),
(360,630,l),
(379,623,o),
(396,615,o),
(411,604,c),
(404,633,l),
(346,523,o),
(314,465,o),
(258,365,cs),
(86,60,ls),
(81,52,o),
(14,38,o),
(-22,32,c),
(-29,-6,l)
);
},
{
closed = 1;
nodes = (
(534,250,l),
(547,307,l),
(251,307,l),
(218,250,l)
);
}
);
width = 794;
},
{
anchors = (
{
name = bottom;
pos = (296,0);
},
{
name = ogonek;
pos = (558,10);
},
{
name = top;
pos = (414,646);
}
);
layerId = m004;
shapes = (
{
closed = 1;
nodes = (
(14,-1,o),
(50,0,o),
(86,0,cs),
(122,0,o),
(158,-1,o),
(193,-6,c),
(198,17,l),
(171,22,o),
(123,37,o),
(123,45,c),
(162,123,o),
(195,189,o),
(243,278,cs),
(415,600,l),
(397,593,l),
(413,514,o),
(425,446,o),
(439,359,cs),
(457,245,ls),
(468,176,o),
(477,113,o),
(486,45,c),
(486,36,o),
(429,23,o),
(400,17,c),
(395,-6,l),
(439,-1,o),
(483,0,o),
(527,0,cs),
(570,0,o),
(614,-1,o),
(656,-6,c),
(661,17,l),
(631,22,o),
(572,37,o),
(570,45,cs),
(555,112,o),
(539,190,o),
(529,254,cs),
(511,366,ls),
(496,460,o),
(483,543,o),
(468,646,cs),
(466,660,l),
(360,660,l),
(356,637,l),
(372,630,o),
(387,620,o),
(399,608,c),
(393,640,l),
(348,546,o),
(293,439,o),
(251,361,cs),
(82,45,ls),
(77,36,o),
(14,23,o),
(-18,17,c),
(-23,-6,l)
);
},
{
closed = 1;
nodes = (
(493,261,l),
(498,288,l),
(225,288,l),
(220,261,l)
);
}
);
width = 714;
},
{
anchors = (
{
name = bottom;
pos = (290,0);
},
{
name = ogonek;
pos = (576,10);
},
{
name = top;
pos = (439,646);
}
);
layerId = "427C505E-2C0B-4FBE-8765-228C251EA8A7";
shapes = (
{
closed = 1;
nodes = (
(12,-1,o),
(51,0,o),
(90,0,cs),
(129,0,o),
(171,-1,o),
(209,-6,c),
(215,31,l),
(185,36,o),
(133,51,o),
(133,59,c),
(177,140,o),
(213,203,o),
(256,278,cs),
(440,601,l),
(392,568,l),
(411,490,o),
(422,440,o),
(438,359,cs),
(461,245,ls),
(474,180,o),
(485,121,o),
(496,59,c),
(496,51,o),
(443,37,o),
(414,31,c),
(408,-6,l),
(454,-1,o),
(500,0,o),
(545,0,cs),
(589,0,o),
(698,-1,o),
(742,-6,c),
(748,31,l),
(717,36,o),
(652,51,o),
(650,59,cs),
(633,123,o),
(616,194,o),
(604,254,cs),
(582,366,ls),
(563,462,o),
(545,557,o),
(532,646,cs),
(530,660,l),
(343,660,l),
(337,623,l),
(358,616,o),
(377,606,o),
(395,593,c),
(405,635,l),
(358,544,o),
(308,453,o),
(255,361,cs),
(83,59,ls),
(78,51,o),
(12,37,o),
(-22,31,c),
(-28,-6,l)
);
},
{
closed = 1;
nodes = (
(501,251,l),
(510,298,l),
(243,298,l),
(220,251,l)
);
}
);
width = 804;
}
);
unicode = 65;
userData = {
KernOnName = A;
};
},
{
glyphname = Aogonek;
kernLeft = KO_A;
kernRight = KO_A;
lastChange = "2025-05-02 19:30:55 +0000";
layers = (
{
anchors = (
{
name = top;
pos = (428,646);
}
);
layerId = m01;
shapes = (
{
closed = 1;
nodes = (
(436,-253,o),
(468,-240,o),
(503,-205,c),
(508,-178,l),
(485,-197,o),
(469,-203,o),
(452,-203,cs),
(422,-203,o),
(406,-181,o),
(406,-146,cs),
(406,-54,o),
(472,0,o),
(564,0,cs),
(576,0,ls),
(620,0,o),
(666,-1,o),
(710,-6,c),
(715,25,l),
(684,30,o),
(622,45,o),
(620,53,cs),
(603,117,o),
(584,194,o),
(572,254,cs),
(550,366,ls),
(531,462,o),
(513,557,o),
(500,646,cs),
(498,660,l),
(374,660,l),
(369,631,l),
(379,627,o),
(389,622,o),
(399,615,c),
(355,531,o),
(307,446,o),
(259,361,cs),
(84,53,ls),
(80,45,o),
(12,31,o),
(-22,25,c),
(-27,-6,l),
(13,-1,o),
(52,0,o),
(91,0,cs),
(130,0,o),
(169,-1,o),
(207,-6,c),
(212,25,l),
(182,30,o),
(128,45,o),
(128,53,c),
(172,134,o),
(211,203,o),
(254,278,cs),
(438,600,l),
(417,593,l),
(436,515,o),
(453,440,o),
(469,359,cs),
(492,245,ls),
(505,180,o),
(518,115,o),
(529,53,c),
(529,45,o),
(525,41,o),
(516,39,cs),
(419,14,o),
(329,-67,o),
(329,-174,cs),
(329,-222,o),
(357,-253,o),
(403,-253,cs)
);
},
{
closed = 1;
nodes = (
(532,254,l),
(541,295,l),
(239,295,l),
(216,254,l)
);
}
);
width = 774;
},
{
anchors = (
{
name = top;
pos = (432,654);
}
);
layerId = "66C19249-B420-404C-A3E7-B74793AC6646";
shapes = (
{
closed = 1;
nodes = (
(449,-253,o),
(480,-237,o),
(513,-205,c),
(520,-169,l),
(500,-185,o),
(484,-193,o),
(466,-193,cs),
(438,-193,o),
(422,-173,o),
(422,-139,cs),
(422,-87,o),
(453,0,o),
(544,0,cs),
(577,0,ls),
(625,0,o),
(673,-1,o),
(720,-6,c),
(727,32,l),
(693,37,o),
(632,50,o),
(630,58,cs),
(614,124,o),
(598,191,o),
(584,257,cs),
(560,370,ls),
(540,466,o),
(521,560,o),
(506,655,cs),
(504,668,l),
(367,668,l),
(360,630,l),
(373,626,o),
(384,621,o),
(394,615,c),
(350,532,o),
(307,451,o),
(258,365,cs),
(86,60,ls),
(82,52,o),
(14,38,o),
(-22,32,c),
(-29,-6,l),
(12,-1,o),
(52,0,o),
(92,0,cs),
(132,0,o),
(172,-1,o),
(211,-6,c),
(218,32,l),
(193,37,o),
(144,52,o),
(144,60,c),
(181,132,o),
(224,210,o),
(264,281,cs),
(443,602,l),
(419,602,l),
(443,495,o),
(454,442,o),
(470,363,cs),
(493,248,ls),
(505,188,o),
(518,121,o),
(529,60,c),
(529,50,o),
(526,49,o),
(518,47,cs),
(427,20,o),
(336,-53,o),
(336,-168,cs),
(336,-219,o),
(364,-253,o),
(411,-253,cs)
);
},
{
closed = 1;
nodes = (
(534,250,l),
(547,307,l),
(251,307,l),
(218,250,l)
);
}
);
width = 794;
},
{
anchors = (
{
name = top;
pos = (405,646);
}
);
layerId = m004;
shapes = (
{
closed = 1;
nodes = (
(403,-253,o),
(435,-240,o),
(470,-205,c),
(474,-183,l),
(452,-202,o),
(435,-209,o),
(417,-209,cs),
(387,-209,o),
(370,-188,o),
(370,-152,cs),
(370,-74,o),
(426,0,o),
(508,0,cs),
(527,0,ls),
(570,0,o),
(614,-1,o),
(656,-6,c),
(661,17,l),
(631,22,o),
(572,37,o),
(570,45,cs),
(554,115,o),
(540,184,o),
(529,254,cs),
(511,366,ls),
(496,459,o),
(481,553,o),
(468,646,cs),
(466,660,l),
(360,660,l),
(356,637,l),
(366,633,o),
(375,628,o),
(384,621,c),
(341,534,o),
(297,447,o),
(251,361,cs),
(82,45,ls),
(78,37,o),
(14,23,o),
(-18,17,c),
(-23,-6,l),
(14,-1,o),
(50,0,o),
(86,0,cs),
(122,0,o),
(158,-1,o),
(193,-6,c),
(198,17,l),
(171,22,o),
(123,37,o),
(123,45,c),
(162,123,o),
(200,197,o),
(243,278,cs),
(415,600,l),
(397,593,l),
(412,515,o),
(426,436,o),
(438,359,cs),
(456,245,ls),
(467,178,o),
(477,112,o),
(486,45,c),
(486,37,o),
(476,33,o),
(463,29,cs),
(380,1,o),
(297,-74,o),
(297,-175,cs),
(297,-222,o),
(325,-253,o),
(371,-253,cs)
);
},
{
closed = 1;
nodes = (
(493,261,l),
(498,288,l),
(225,288,l),
(220,261,l)
);
}
);
width = 714;
},
{
anchors = (
{
name = top;
pos = (427,646);
}
);
background = {
shapes = (
{
closed = 1;
nodes = (
(426,-253,o),
(460,-240,o),
(498,-205,c),
(498,-172,l),
(477,-188,o),
(463,-193,o),
(447,-193,cs),
(420,-193,o),
(406,-171,o),
(406,-136,cs),
(406,-50,o),
(460,0,o),
(539,0,cs),
(552,0,ls),
(596,0,o),
(698,-1,o),
(742,-6,c),
(748,31,l),
(717,36,o),
(652,51,o),
(650,59,cs),
(633,123,o),
(616,194,o),
(604,254,cs),
(582,366,ls),
(563,462,o),
(545,557,o),
(532,646,cs),
(530,660,l),
(343,660,l),
(337,623,l),
(355,617,o),
(371,609,o),
(386,599,c),
(344,519,o),
(301,441,o),
(255,361,cs),
(83,59,ls),
(78,51,o),
(12,37,o),
(-22,31,c),
(-28,-6,l),
(12,-1,o),
(51,0,o),
(90,0,cs),
(129,0,o),
(171,-1,o),
(209,-6,c),
(215,31,l),
(185,36,o),
(134,51,o),
(134,59,c),
(174,133,o),
(208,194,o),
(247,263,cs),
(417,559,l),
(396,554,l),
(413,484,o),
(423,434,o),
(438,359,cs),
(461,245,ls),
(473,183,o),
(485,120,o),
(496,58,c),
(496,52,o),
(492,48,o),
(486,46,cs),
(384,19,o),
(289,-62,o),
(289,-169,cs),
(289,-220,o),
(327,-253,o),
(390,-253,cs)
);
},
{
closed = 1;
nodes = (
(514,251,l),
(532,298,l),
(245,298,l),
(219,251,l)
);
}
);
};
layerId = "427C505E-2C0B-4FBE-8765-228C251EA8A7";
shapes = (
{
closed = 1;
nodes = (
(426,-253,o),
(460,-240,o),
(498,-205,c),
(498,-172,l),
(477,-188,o),
(463,-193,o),
(447,-193,cs),
(420,-193,o),
(406,-171,o),
(406,-136,cs),
(406,-50,o),
(460,0,o),
(539,0,cs),
(552,0,ls),
(596,0,o),
(698,-1,o),
(742,-6,c),
(748,31,l),
(717,36,o),
(652,51,o),
(650,59,cs),
(633,124,o),
(617,189,o),
(604,254,cs),
(582,366,ls),
(563,461,o),
(546,553,o),
(532,647,cs),
(530,660,l),
(343,660,l),
(337,623,l),
(355,617,o),
(371,609,o),
(386,599,c),
(344,520,o),
(300,440,o),
(255,361,cs),
(83,59,ls),
(78,51,o),
(12,37,o),
(-22,31,c),
(-28,-6,l),
(12,-1,o),
(51,0,o),
(90,0,cs),
(129,0,o),
(171,-1,o),
(209,-6,c),
(215,31,l),
(185,36,o),
(134,51,o),
(134,59,c),
(171,127,o),
(208,195,o),
(247,263,cs),
(417,559,l),
(396,554,l),
(412,489,o),
(425,424,o),
(438,359,cs),
(461,245,ls),
(473,183,o),
(485,120,o),
(496,58,c),
(496,52,o),
(492,48,o),
(486,46,cs),
(384,19,o),
(289,-62,o),
(289,-169,cs),
(289,-220,o),
(327,-253,o),
(390,-253,cs)
);
},
{
closed = 1;
nodes = (
(514,251,l),
(532,298,l),
(245,298,l),
(219,251,l)
);
}
);
width = 804;
}
);
metricLeft = A;
metricRight = A;
unicode = 260;
},
{
glyphname = Aring;
kernLeft = KO_A;
kernRight = KO_A;
lastChange = "2025-05-02 19:35:36 +0000";
layers = (
{
layerId = m01;
shapes = (
{
closed = 1;
nodes = (
(13,-1,o),
(52,0,o),
(91,0,cs),
(130,0,o),
(169,-1,o),
(207,-6,c),
(212,25,l),
(182,30,o),
(128,45,o),
(128,53,c),
(170,129,o),
(211,203,o),
(254,278,cs),
(438,601,l),
(414,594,l),
(434,516,o),
(453,437,o),
(469,359,cs),
(492,245,ls),
(505,181,o),
(518,117,o),
(529,53,c),
(529,45,o),
(473,31,o),
(444,25,c),
(439,-6,l),
(485,-1,o),
(531,0,o),
(576,0,cs),
(620,0,o),
(666,-1,o),
(710,-6,c),
(715,25,l),
(684,30,o),
(622,45,o),
(620,53,cs),
(601,120,o),
(585,187,o),
(572,254,cs),
(550,366,ls),
(532,459,o),
(514,554,o),
(500,647,cs),
(498,660,l),
(422,660,l),
(372,560,o),
(315,459,o),
(259,361,cs),
(84,53,ls),
(80,45,o),
(12,31,o),
(-22,25,c),
(-27,-6,l)
);
},
{
closed = 1;
nodes = (
(532,254,l),
(541,295,l),
(239,295,l),
(216,254,l)
);
},
{
closed = 1;
nodes = (
(500,635,o),
(558,679,o),
(558,736,cs),
(558,774,o),
(529,804,o),
(485,804,cs),
(433,804,o),
(374,762,o),
(374,702,cs),
(374,663,o),
(402,635,o),
(449,635,cs)
);
},
{
closed = 1;
nodes = (
(432,664,o),
(418,679,o),
(418,703,cs),
(418,744,o),
(450,775,o),
(479,775,cs),
(500,775,o),
(514,759,o),
(514,735,cs),
(514,693,o),
(483,664,o),
(455,664,cs)
);
}
);
width = 774;
},
{
layerId = "66C19249-B420-404C-A3E7-B74793AC6646";
shapes = (
{
closed = 1;
nodes = (
(12,-1,o),
(52,0,o),
(92,0,cs),
(132,0,o),
(172,-1,o),
(211,-6,c),
(218,32,l),
(193,37,o),
(146,52,o),
(146,60,c),
(183,134,o),
(223,207,o),
(264,281,cs),
(442,600,l),
(418,604,l),
(439,524,o),
(456,443,o),
(472,363,cs),
(495,248,ls),
(508,185,o),
(520,123,o),
(529,60,c),
(529,52,o),
(468,38,o),
(439,32,c),
(432,-6,l),
(481,-1,o),
(529,0,o),
(577,0,cs),
(625,0,o),
(673,-1,o),
(720,-6,c),
(727,32,l),
(693,37,o),
(631,52,o),
(629,60,cs),
(613,126,o),
(598,191,o),
(584,257,cs),
(560,370,ls),
(540,466,o),
(521,561,o),
(506,655,cs),
(504,668,l),
(424,668,l),
(370,567,o),
(315,465,o),
(258,365,cs),
(86,60,ls),
(82,52,o),
(14,38,o),
(-22,32,c),
(-29,-6,l)
);
},
{
closed = 1;
nodes = (
(534,250,l),
(547,307,l),
(251,307,l),
(218,250,l)
);
},
{
closed = 1;
nodes = (
(510,641,o),
(575,691,o),
(575,754,cs),
(575,796,o),
(543,830,o),
(494,830,cs),
(437,830,o),
(371,783,o),
(371,715,cs),
(371,673,o),
(402,641,o),
(454,641,cs)
);
},
{
closed = 1;
nodes = (
(436,673,o),
(421,691,o),
(421,718,cs),
(421,761,o),
(455,798,o),
(487,798,cs),
(510,798,o),
(526,781,o),
(526,754,cs),
(526,707,o),
(491,673,o),
(460,673,cs)
);
}
);
width = 794;
},
{
layerId = m004;
shapes = (
{
closed = 1;
nodes = (
(14,-1,o),
(50,0,o),
(86,0,cs),
(122,0,o),
(158,-1,o),
(193,-6,c),
(198,17,l),
(171,22,o),
(123,37,o),
(123,45,c),
(162,123,o),
(199,196,o),
(243,278,cs),
(415,600,l),
(397,593,l),
(412,515,o),
(426,437,o),
(438,359,cs),
(456,245,ls),
(467,178,o),
(477,112,o),
(486,45,c),
(486,37,o),
(429,23,o),
(400,17,c),
(395,-6,l),
(439,-1,o),
(483,0,o),
(527,0,cs),
(570,0,o),
(614,-1,o),
(656,-6,c),
(661,17,l),
(631,22,o),
(572,37,o),
(570,45,cs),
(554,115,o),
(540,184,o),
(529,254,cs),
(511,366,ls),
(496,459,o),
(481,553,o),
(468,646,cs),
(466,660,l),
(406,660,l),
(356,560,o),
(302,457,o),
(251,361,cs),
(82,45,ls),
(78,37,o),
(14,23,o),
(-18,17,c),
(-23,-6,l)
);
},
{
closed = 1;
nodes = (
(493,261,l),
(498,288,l),
(225,288,l),
(220,261,l)
);
},
{
closed = 1;
nodes = (
(478,635,o),
(538,678,o),
(538,737,cs),
(538,775,o),
(509,805,o),
(464,805,cs),
(412,805,o),
(353,762,o),
(353,702,cs),
(353,663,o),
(381,635,o),
(428,635,cs)
);
},
{
closed = 1;
nodes = (
(412,664,o),
(399,680,o),
(399,704,cs),
(399,743,o),
(430,776,o),
(458,776,cs),
(479,776,o),
(493,760,o),
(493,736,cs),
(493,694,o),
(462,664,o),
(434,664,cs)
);
}
);
width = 714;
},
{
layerId = "427C505E-2C0B-4FBE-8765-228C251EA8A7";
shapes = (
{
closed = 1;
nodes = (
(12,-1,o),
(51,0,o),
(90,0,cs),
(129,0,o),
(171,-1,o),
(209,-6,c),
(215,31,l),
(185,36,o),
(133,51,o),
(133,59,c),
(172,132,o),
(214,205,o),
(256,278,cs),
(440,601,l),
(392,568,l),
(411,490,o),
(422,440,o),
(438,359,cs),
(461,245,ls),
(474,183,o),
(485,121,o),
(496,59,c),
(496,51,o),
(443,37,o),
(414,31,c),
(408,-6,l),
(454,-1,o),
(500,0,o),
(545,0,cs),
(589,0,o),
(698,-1,o),
(742,-6,c),
(748,31,l),
(717,36,o),
(652,51,o),
(650,59,cs),
(633,124,o),
(617,188,o),
(604,254,cs),
(582,366,ls),
(564,459,o),
(546,554,o),
(532,647,cs),
(530,660,l),
(417,660,l),
(368,560,o),
(311,459,o),
(255,361,cs),
(83,59,ls),
(78,51,o),
(12,37,o),
(-22,31,c),
(-28,-6,l)
);
},
{
closed = 1;
nodes = (
(501,251,l),
(510,298,l),
(243,298,l),
(220,251,l)
);
},
{
closed = 1;
nodes = (
(524,635,o),
(592,687,o),
(592,754,cs),
(592,799,o),
(558,834,o),
(506,834,cs),
(445,834,o),
(376,785,o),
(376,714,cs),
(376,668,o),
(409,635,o),
(464,635,cs)
);
},
{
closed = 1;
nodes = (
(450,679,o),
(436,694,o),
(436,718,cs),
(436,759,o),
(468,790,o),
(497,790,cs),
(518,790,o),
(532,774,o),
(532,750,cs),
(532,708,o),
(501,679,o),
(473,679,cs)
);
}
);
width = 804;
}
);
metricLeft = A;
metricRight = A;
unicode = 197;
},
{
glyphname = AE;
kernLeft = KO_AE;
kernRight = KO_E;
lastChange = "2025-05-02 19:39:24 +0000";
layers = (
{
anchors = (
{
name = bottom;
pos = (395,0);
},
{
name = top;
pos = (693,646);
}
);
background = {
shapes = (
{
closed = 1;
nodes = (
(17,-1,o),
(60,0,o),
(103,0,cs),
(146,0,o),
(189,-1,o),
(231,-6,c),
(236,25,l),
(202,29,o),
(140,45,o),
(140,53,c),
(196,131,o),
(247,201,o),
(304,278,cs),
(548,606,l),
(543,564,o),
(531,505,o),
(513,419,cs),
(470,214,ls),
(449,114,o),
(437,67,o),
(421,22,c),
(513,22,l),
(516,62,o),
(523,105,o),
(546,214,cs),
(589,419,ls),
(613,533,o),
(625,579,o),
(642,627,c),
(619,646,l),
(479,646,l),
(469,622,l),
(480,618,o),
(489,611,o),
(496,603,c),
(437,520,o),
(384,446,o),
(321,361,cs),
(92,53,ls),
(81,38,o),
(15,29,o),
(-22,25,c),
(-27,-6,l)
);
},
{
closed = 1;
nodes = (
(885,499,l),
(918,652,l),
(810,648,o),
(709,646,o),
(596,646,c),
(587,606,l),
(783,606,ls),
(818,606,o),
(839,592,o),
(843,558,cs),
(850,499,l)
);
},
{
closed = 1;
nodes = (
(829,122,l),
(793,122,l),
(749,81,ls),
(716,50,o),
(679,41,o),
(634,41,cs),
(492,41,l),
(432,55,l),
(408,41,o),
(381,31,o),
(354,27,c),
(346,-4,l),
(374,-1,o),
(407,0,o),
(458,0,cs),
(594,0,o),
(652,-2,o),
(748,-11,c)
);
},
{
closed = 1;
nodes = (
(745,297,l),
(750,272,o),
(751,250,o),
(751,227,c),
(775,227,l),
(777,255,o),
(781,285,o),
(788,319,cs),
(794,347,o),
(800,371,o),
(811,405,c),
(787,405,l),
(780,387,o),
(768,365,o),
(751,341,c),
(712,339,o),
(676,338,o),
(639,338,cs),
(325,338,l),
(291,297,l)
);
}
);
};
layerId = m01;
shapes = (
{
closed = 1;
nodes = (
(17,-1,o),
(60,0,o),
(103,0,cs),
(146,0,o),
(189,-1,o),
(231,-6,c),
(236,25,l),
(202,29,o),
(139,43,o),
(139,51,c),
(195,129,o),
(247,201,o),
(304,278,cs),
(548,606,l),
(543,564,o),
(531,505,o),
(513,419,cs),
(470,214,ls),
(449,114,o),
(437,67,o),
(421,22,c),
(513,22,l),
(516,62,o),
(523,105,o),
(546,214,cs),
(589,419,ls),
(613,533,o),
(625,579,o),
(642,627,c),
(619,646,l),
(479,646,l),
(469,622,l),
(480,618,o),
(489,611,o),
(496,603,c),
(437,520,o),
(384,446,o),
(321,361,cs),
(92,53,ls),
(86,45,o),
(12,31,o),
(-22,25,c),
(-27,-6,l)
);
},
{
closed = 1;
nodes = (
(885,499,l),
(918,652,l),
(810,648,o),
(709,646,o),
(596,646,c),
(587,606,l),
(783,606,ls),
(818,606,o),
(839,592,o),
(843,558,cs),
(850,499,l)
);
},
{
closed = 1;
nodes = (
(829,122,l),
(793,122,l),
(749,81,ls),
(716,50,o),
(679,41,o),
(634,41,cs),
(492,41,l),
(432,55,l),
(408,41,o),
(381,31,o),
(354,27,c),
(346,-4,l),
(374,-1,o),
(407,0,o),
(458,0,cs),
(594,0,o),
(652,-2,o),
(748,-11,c)
);
},
{
closed = 1;
nodes = (
(745,297,l),
(750,272,o),
(751,250,o),
(751,227,c),
(775,227,l),
(777,255,o),
(781,285,o),
(788,319,cs),
(794,347,o),
(800,371,o),
(811,405,c),
(787,405,l),
(780,387,o),
(768,365,o),
(751,341,c),
(712,339,o),
(676,338,o),
(639,338,cs),
(325,338,l),
(291,297,l)
);
}
);
width = 901;
},
{
anchors = (
{
name = bottom;
pos = (393,0);
},
{
name = top;
pos = (672,654);
}
);
layerId = "66C19249-B420-404C-A3E7-B74793AC6646";
shapes = (
{
closed = 1;
nodes = (
(15,-1,o),
(58,0,o),
(101,0,cs),
(143,0,o),
(187,-1,o),
(228,-6,c),
(235,32,l),
(202,37,o),
(135,52,o),
(135,60,c),
(188,132,o),
(239,201,o),
(297,278,cs),
(540,597,l),
(532,539,o),
(520,483,o),
(507,424,cs),
(463,217,ls),
(449,150,o),
(432,87,o),
(414,22,c),
(505,22,l),
(511,87,o),
(524,150,o),
(538,217,cs),
(582,424,ls),
(597,496,o),
(615,565,o),
(635,635,c),
(606,654,l),
(452,654,l),
(438,616,l),
(451,610,o),
(464,603,o),
(476,594,c),
(418,515,o),
(365,443,o),
(304,363,cs),
(75,60,ls),
(69,52,o),
(11,38,o),
(-22,32,c),
(-29,-6,l)
);
},
{
closed = 1;
nodes = (
(885,505,l),
(918,660,l),
(810,656,o),
(708,654,o),
(585,654,c),
(596,597,l),
(775,597,ls),
(814,597,o),
(836,581,o),
(839,558,cs),
(846,505,l)
);
},
{
closed = 1;
nodes = (
(827,123,l),
(787,123,l),
(748,86,ls),
(724,63,o),
(681,57,o),
(631,57,cs),
(483,57,l),
(427,62,l),
(400,49,o),
(372,40,o),
(343,34,c),
(334,-4,l),
(362,-1,o),
(395,0,o),
(446,0,cs),
(592,0,o),
(650,-2,o),
(746,-11,c)
);
},
{
closed = 1;
nodes = (
(734,294,l),
(739,273,o),
(741,251,o),
(739,230,c),
(773,230,l),
(775,257,o),
(779,287,o),
(787,324,cs),
(793,352,o),
(801,381,o),
(810,410,c),
(776,410,l),
(769,391,o),
(758,373,o),
(742,353,c),
(727,351,o),
(681,350,o),
(636,350,cs),
(314,350,l),
(274,294,l)
);
}
);
width = 916;
},
{
anchors = (
{
name = bottom;
pos = (371,0);
},
{
name = top;
pos = (658,646);
}
);
layerId = m004;
shapes = (
{
closed = 1;
nodes = (
(16,-1,o),
(55,0,o),
(93,0,cs),
(131,0,o),
(170,-1,o),
(207,-6,c),
(212,17,l),
(177,22,o),
(112,37,o),
(112,45,c),
(168,123,o),
(224,199,o),
(285,278,cs),
(537,608,l),
(528,545,o),
(515,484,o),
(501,419,cs),
(456,206,ls),
(442,140,o),
(425,78,o),
(407,14,c),
(494,14,l),
(500,78,o),
(512,140,o),
(526,206,cs),
(571,419,ls),
(586,490,o),
(605,558,o),
(625,627,c),
(601,646,l),
(480,646,l),
(470,626,l),
(480,622,o),
(488,617,o),
(496,611,c),
(434,523,o),
(374,443,o),
(312,361,cs),
(71,45,ls),
(64,36,o),
(11,23,o),
(-18,17,c),
(-23,-6,l)
);
},
{
closed = 1;
nodes = (
(835,499,l),
(868,652,l),
(760,648,o),
(659,646,o),
(581,646,c),
(575,621,l),
(740,621,ls),
(775,621,o),
(791,611,o),
(794,585,cs),
(804,499,l)
);
},
{
closed = 1;
nodes = (
(779,122,l),
(748,122,l),
(678,57,ls),
(654,35,o),
(627,25,o),
(586,25,cs),
(474,25,l),
(418,47,l),
(392,33,o),
(364,24,o),
(337,19,c),
(331,-4,l),
(359,-1,o),
(392,0,o),
(443,0,cs),
(544,0,o),
(602,-2,o),
(698,-11,c)
);
},
{
closed = 1;
nodes = (
(699,304,l),
(705,278,o),
(707,254,o),
(705,227,c),
(725,227,l),
(727,255,o),
(731,285,o),
(738,319,cs),
(744,347,o),
(750,371,o),
(761,405,c),
(741,405,l),
(734,382,o),
(720,356,o),
(703,333,c),
(668,331,o),
(644,331,o),
(609,331,cs),
(307,331,l),
(286,304,l)
);
}
);
width = 841;
},
{
anchors = (
{
name = bottom;
pos = (384,0);
},
{
name = top;
pos = (712,646);
}
);
layerId = "427C505E-2C0B-4FBE-8765-228C251EA8A7";
shapes = (
{
closed = 1;
nodes = (
(12,-1,o),
(51,0,o),
(90,0,cs),
(129,0,o),
(171,-1,o),
(209,-6,c),
(215,31,l),
(185,36,o),
(133,51,o),
(133,59,c),
(185,132,o),
(238,204,o),
(294,278,cs),
(532,591,l),
(523,534,o),
(512,477,o),
(500,419,cs),
(456,214,ls),
(442,148,o),
(425,86,o),
(408,22,c),
(560,22,l),
(565,86,o),
(578,148,o),
(592,214,cs),
(636,419,ls),
(651,490,o),
(669,558,o),
(688,627,c),
(654,646,l),
(448,646,l),
(442,623,l),
(457,618,o),
(472,611,o),
(485,603,c),
(429,522,o),
(370,442,o),
(309,361,cs),
(83,59,ls),
(77,52,o),
(12,37,o),
(-22,31,c),
(-28,-6,l)
);
},
{
closed = 1;
nodes = (
(920,499,l),
(952,652,l),
(844,648,o),
(749,646,o),
(606,646,c),
(599,600,l),
(811,600,ls),
(850,600,o),
(865,582,o),
(870,552,cs),
(879,499,l)
);
},
{
closed = 1;
nodes = (
(874,122,l),
(832,122,l),
(797,87,ls),
(765,55,o),
(726,47,o),
(683,47,cs),
(471,47,l),
(421,67,l),
(394,51,o),
(362,39,o),
(328,33,c),
(321,-4,l),
(349,-1,o),
(381,0,o),
(433,0,cs),
(599,0,o),
(697,-2,o),
(793,-11,c)
);
},
{
closed = 1;
nodes = (
(740,294,l),
(748,271,o),
(751,249,o),
(749,226,c),
(783,226,l),
(785,256,o),
(791,291,o),
(797,319,cs),
(803,347,o),
(811,376,o),
(820,404,c),
(790,404,l),
(782,386,o),
(768,364,o),
(751,343,c),
(706,341,o),
(659,340,o),
(614,340,cs),
(315,340,l),
(284,294,l)
);
}
);
width = 930;
}
);
metricLeft = A;
metricRight = E;
unicode = 198;
},
{
glyphname = B;
kernLeft = KO_H;
kernRight = KO_B;
lastChange = "2025-03-31 15:48:36 +0000";
layers = (
{
anchors = (
{
name = bottom;
pos = (228,0);
},
{
name = center;
pos = (297,323);
},
{
name = top;
pos = (365,646);
}
);
background = {
shapes = (
{
closed = 1;
nodes = (
(32,-1,o),
(69,0,o),
(112,0,cs),
(163,0,o),
(202,-4,o),
(240,-4,cs),
(444,-4,o),
(527,114,o),
(527,225,cs),
(527,289,o),
(488,332,o),
(395,354,c),
(488,382,o),
(564,441,o),
(564,530,cs),
(564,605,o),
(493,650,o),
(369,650,cs),
(333,650,o),
(296,646,o),
(249,646,cs),
(212,646,o),
(185,647,o),
(167,650,c),
(161,619,l),
(177,610,o),
(194,597,o),
(210,581,c),
(247,597,l),
(286,607,o),
(315,611,o),
(343,611,cs),
(430,611,o),
(484,570,o),
(484,511,cs),
(484,427,o),
(397,371,o),
(308,371,cs),
(212,371,l),
(203,330,l),
(302,330,ls),
(395,330,o),
(448,288,o),
(448,221,cs),
(448,107,o),
(336,35,o),
(229,35,cs),
(199,35,o),
(169,40,o),
(130,49,c),
(95,61,l),
(71,44,o),
(42,33,o),
(7,27,c),
(0,-4,l)
);
},
{
closed = 1;
nodes = (
(167,22,l),
(170,64,o),
(176,107,o),
(199,214,cs),
(243,419,ls),
(266,526,o),
(278,576,o),
(295,627,c),
(203,627,l),
(199,579,o),
(190,526,o),
(167,419,cs),
(123,214,ls),
(101,112,o),
(91,69,o),
(75,22,c)
);
}
);
};
layerId = m01;
shapes = (
{
closed = 1;
nodes = (
(32,-1,o),
(69,0,o),
(112,0,cs),
(163,0,o),
(202,-4,o),
(240,-4,cs),
(444,-4,o),
(527,114,o),
(527,225,cs),
(527,289,o),
(488,332,o),
(395,354,c),
(488,382,o),
(564,441,o),
(564,530,cs),
(564,605,o),
(493,650,o),
(369,650,cs),
(333,650,o),
(296,646,o),
(249,646,cs),
(212,646,o),
(185,647,o),
(167,650,c),
(161,619,l),
(177,610,o),
(194,597,o),
(210,581,c),
(247,597,l),
(286,607,o),
(315,611,o),
(343,611,cs),
(430,611,o),
(484,570,o),
(484,511,cs),
(484,427,o),
(397,371,o),
(308,371,cs),
(212,371,l),
(203,330,l),
(302,330,ls),
(395,330,o),
(448,288,o),
(448,221,cs),
(448,107,o),
(336,35,o),
(229,35,cs),
(199,35,o),
(169,40,o),
(130,49,c),
(95,61,l),
(71,44,o),
(42,33,o),
(7,27,c),
(0,-4,l)
);
},
{
closed = 1;
nodes = (
(167,22,l),
(170,64,o),
(176,107,o),
(199,214,cs),
(243,419,ls),
(266,526,o),
(278,576,o),
(295,627,c),
(203,627,l),
(199,579,o),
(190,526,o),
(167,419,cs),
(123,214,ls),
(101,112,o),
(91,69,o),
(75,22,c)
);
}
);
width = 574;
},
{
anchors = (
{
name = bottom;
pos = (226,0);
},
{
name = center;
pos = (295,327);
},
{
name = top;
pos = (365,654);
}
);
background = {
shapes = (
{
closed = 1;
nodes = (
(35,-1,o),
(72,0,o),
(114,0,cs),
(165,0,o),
(204,-4,o),
(242,-4,cs),
(442,-4,o),
(533,110,o),
(533,228,cs),
(533,293,o),
(493,336,o),
(399,358,c),
(495,387,o),
(571,447,o),
(571,536,cs),
(571,613,o),
(498,658,o),
(373,658,cs),
(338,658,o),
(301,654,o),
(253,654,cs),
(207,654,o),
(177,655,o),
(154,658,c),
(145,620,l),
(168,616,o),
(188,607,o),
(209,591,c),
(247,586,l),
(285,596,o),
(315,600,o),
(342,600,cs),
(426,600,o),
(483,564,o),
(483,511,cs),
(483,438,o),
(398,383,o),
(310,383,cs),
(216,383,l),
(204,326,l),
(301,326,ls),
(395,326,o),
(446,285,o),
(446,221,cs),
(446,117,o),
(340,54,o),
(234,54,cs),
(205,54,o),
(174,59,o),
(137,68,c),
(94,63,l),
(67,49,o),
(38,39,o),
(11,34,c),
(3,-4,l)
);
},
{
closed = 1;
nodes = (
(175,22,l),
(178,63,o),
(185,109,o),
(208,217,cs),
(252,424,ls),
(276,536,o),
(287,582,o),
(305,635,c),
(203,635,l),
(198,582,o),
(189,531,o),
(166,424,cs),
(122,217,ls),
(100,114,o),
(89,70,o),
(73,22,c)
);
}
);
};
layerId = "66C19249-B420-404C-A3E7-B74793AC6646";
shapes = (
{
closed = 1;
nodes = (
(35,-1,o),
(72,0,o),
(114,0,cs),
(165,0,o),
(204,-4,o),
(242,-4,cs),
(442,-4,o),
(533,110,o),
(533,228,cs),
(533,293,o),
(493,336,o),
(399,358,c),
(495,387,o),
(571,447,o),
(571,536,cs),
(571,613,o),
(498,658,o),
(373,658,cs),
(338,658,o),
(301,654,o),
(253,654,cs),
(207,654,o),
(177,655,o),
(154,658,c),
(145,620,l),
(168,616,o),
(188,607,o),
(209,591,c),
(247,586,l),
(285,596,o),
(315,600,o),
(342,600,cs),
(426,600,o),
(483,564,o),
(483,511,cs),
(483,438,o),
(398,383,o),
(310,383,cs),
(216,383,l),
(204,326,l),
(301,326,ls),
(395,326,o),
(446,285,o),
(446,221,cs),
(446,117,o),
(340,54,o),
(234,54,cs),
(205,54,o),
(174,59,o),
(137,68,c),
(94,63,l),
(67,49,o),
(38,39,o),
(11,34,c),
(3,-4,l)
);
},
{
closed = 1;
nodes = (
(175,22,l),
(178,63,o),
(185,109,o),
(208,217,cs),
(252,424,ls),
(276,536,o),
(287,582,o),
(305,635,c),
(203,635,l),
(198,582,o),
(189,531,o),
(166,424,cs),
(122,217,ls),
(100,114,o),
(89,70,o),
(73,22,c)
);
}
);
width = 593;
},
{
anchors = (
{
name = bottom;
pos = (202,0);
},
{
name = center;
pos = (271,323);
},
{
name = top;
pos = (339,646);
}
);
background = {
shapes = (
{
closed = 1;
nodes = (
(31,-1,o),
(62,0,o),
(101,0,cs),
(146,0,o),
(181,-4,o),
(214,-4,cs),
(403,-4,o),
(477,122,o),
(477,228,cs),
(477,289,o),
(444,332,o),
(360,354,c),
(452,387,o),
(512,453,o),
(512,533,cs),
(512,607,o),
(450,650,o),
(343,650,cs),
(312,650,o),
(280,646,o),
(238,646,cs),
(198,646,o),
(170,647,o),
(151,650,c),
(146,627,l),
(167,618,o),
(186,606,o),
(203,590,c),
(238,610,l),
(273,621,o),
(298,625,o),
(322,625,cs),
(396,625,o),
(442,584,o),
(442,522,cs),
(442,429,o),
(358,364,o),
(280,364,cs),
(197,364,l),
(191,337,l),
(281,337,ls),
(362,337,o),
(406,294,o),
(406,226,cs),
(406,101,o),
(299,21,o),
(205,21,cs),
(178,21,o),
(151,26,o),
(116,36,c),
(86,53,l),
(59,36,o),
(32,25,o),
(7,19,c),
(2,-4,l)
);
},
{
closed = 1;
nodes = (
(152,22,l),
(156,69,o),
(164,117,o),
(185,214,cs),
(229,419,ls),
(254,535,o),
(265,580,o),
(280,627,c),
(196,627,l),
(191,578,o),
(183,530,o),
(159,419,cs),
(115,214,ls),
(93,111,o),
(81,63,o),
(68,22,c)
);
}
);
};
layerId = m004;
shapes = (
{
closed = 1;
nodes = (
(31,-1,o),
(62,0,o),
(101,0,cs),
(146,0,o),
(181,-4,o),
(214,-4,cs),
(403,-4,o),
(477,122,o),
(477,228,cs),
(477,289,o),
(444,332,o),
(360,354,c),
(452,387,o),
(512,453,o),
(512,533,cs),
(512,607,o),
(450,650,o),
(343,650,cs),
(312,650,o),
(280,646,o),
(238,646,cs),
(198,646,o),
(170,647,o),
(151,650,c),
(146,627,l),
(167,618,o),
(186,606,o),
(203,590,c),
(238,610,l),
(273,621,o),
(298,625,o),
(322,625,cs),
(396,625,o),
(442,584,o),
(442,522,cs),
(442,429,o),
(358,364,o),
(280,364,cs),
(197,364,l),
(191,337,l),
(281,337,ls),
(362,337,o),
(406,294,o),
(406,226,cs),
(406,101,o),
(299,21,o),
(205,21,cs),
(178,21,o),
(151,26,o),
(116,36,c),
(86,53,l),
(59,36,o),
(32,25,o),
(7,19,c),
(2,-4,l)
);
},
{
closed = 1;
nodes = (
(152,22,l),
(156,69,o),
(164,117,o),
(185,214,cs),
(229,419,ls),
(254,535,o),
(265,580,o),
(280,627,c),
(196,627,l),
(191,578,o),
(183,530,o),
(159,419,cs),
(115,214,ls),
(93,111,o),
(81,63,o),
(68,22,c)
);
}
);
width = 514;
},
{
anchors = (
{
name = bottom;
pos = (215,0);
},
{
name = center;
pos = (284,323);
},
{
name = top;
pos = (352,646);
}
);
background = {
shapes = (
{
closed = 1;
nodes = (
(19,-1,o),
(56,0,o),
(99,0,cs),
(158,0,o),
(202,-4,o),
(246,-4,cs),
(450,-4,o),
(576,83,o),
(576,203,cs),
(576,276,o),
(529,332,o),
(417,355,c),
(524,381,o),
(613,427,o),
(613,519,cs),
(613,609,o),
(528,650,o),
(380,650,cs),
(337,650,o),
(292,646,o),
(236,646,cs),
(199,646,o),
(172,647,o),
(154,650,c),
(146,613,l),
(162,604,o),
(179,591,o),
(195,575,c),
(254,591,l),
(290,601,o),
(317,605,o),
(342,605,cs),
(422,605,o),
(471,565,o),
(471,506,cs),
(471,428,o),
(385,374,o),
(296,374,cs),
(200,374,l),
(190,327,l),
(289,327,ls),
(382,327,o),
(435,276,o),
(435,205,cs),
(435,101,o),
(337,41,o),
(244,41,cs),
(218,41,o),
(191,46,o),
(157,55,c),
(87,68,l),
(62,50,o),
(32,39,o),
(-5,32,c),
(-13,-4,l)
);
},
{
closed = 1;
nodes = (
(225,22,l),
(228,64,o),
(234,107,o),
(257,214,cs),
(301,419,ls),
(324,526,o),
(336,576,o),
(353,627,c),
(201,627,l),
(197,579,o),
(188,526,o),
(165,419,cs),
(121,214,ls),
(99,112,o),
(89,69,o),
(73,22,c)
);
}
);
};
layerId = "427C505E-2C0B-4FBE-8765-228C251EA8A7";
shapes = (
{
closed = 1;
nodes = (
(19,-1,o),
(56,0,o),
(99,0,cs),
(158,0,o),
(202,-4,o),
(246,-4,cs),
(450,-4,o),
(576,83,o),
(576,203,cs),
(576,276,o),
(529,332,o),
(417,355,c),
(524,381,o),
(613,427,o),
(613,519,cs),
(613,609,o),
(528,650,o),
(380,650,cs),
(337,650,o),
(292,646,o),
(236,646,cs),
(199,646,o),
(172,647,o),
(154,650,c),
(146,613,l),
(162,604,o),
(179,591,o),
(195,575,c),
(254,591,l),
(290,601,o),
(317,605,o),
(342,605,cs),
(422,605,o),
(471,565,o),
(471,506,cs),
(471,428,o),
(385,374,o),
(296,374,cs),
(200,374,l),
(190,327,l),
(289,327,ls),
(382,327,o),
(435,276,o),
(435,205,cs),
(435,101,o),
(337,41,o),
(244,41,cs),
(218,41,o),
(191,46,o),
(157,55,c),
(87,68,l),
(62,50,o),
(32,39,o),
(-5,32,c),
(-13,-4,l)
);
},
{
closed = 1;
nodes = (
(225,22,l),
(228,64,o),
(234,107,o),
(257,214,cs),
(301,419,ls),
(324,526,o),
(336,576,o),
(353,627,c),
(201,627,l),
(197,579,o),
(188,526,o),
(165,419,cs),
(121,214,ls),
(99,112,o),
(89,69,o),
(73,22,c)
);
}
);
width = 613;
}
);
unicode = 66;
},
{
glyphname = C;
kernLeft = KO_O;
kernRight = KO_C;
lastChange = "2025-05-02 19:43:01 +0000";
layers = (
{
anchors = (
{
name = bottom;
pos = (350,0);
},
{
name = top;
pos = (487,646);
}
);
layerId = m01;
shapes = (
{
closed = 1;
nodes = (
(423,-10,o),
(452,7,o),
(517,-3,c),
(544,40,o),
(566,89,o),
(580,141,c),
(542,141,l),
(522,100,o),
(500,69,o),
(473,42,c),
(451,33,o),
(425,29,o),
(397,29,cs),
(266,29,o),
(157,140,o),
(157,274,cs),
(157,451,o),
(323,621,o),
(495,621,cs),
(544,621,o),
(584,608,o),
(624,578,c),
(631,548,o),
(630,519,o),
(623,483,c),
(660,483,l),
(675,528,o),
(686,586,o),
(686,617,cs),
(686,636,o),
(686,640,o),
(685,647,c),
(605,642,o),
(567,660,o),
(500,660,cs),
(277,660,o),
(64,472,o),
(64,274,cs),
(64,115,o),
(194,-10,o),
(358,-10,cs)
);
}
);
width = 672;
},
{
anchors = (
{
name = bottom;
pos = (359,0);
},
{
name = top;
pos = (488,654);
}
);
layerId = "66C19249-B420-404C-A3E7-B74793AC6646";
shapes = (
{
closed = 1;
nodes = (
(428,-10,o),
(459,7,o),
(524,-3,c),
(550,40,o),
(571,88,o),
(587,143,c),
(545,143,l),
(527,110,o),
(505,81,o),
(481,59,c),
(456,50,o),
(433,46,o),
(406,46,cs),
(277,46,o),
(170,153,o),
(170,282,cs),
(170,451,o),
(331,612,o),
(499,612,cs),
(548,612,o),
(585,599,o),
(624,569,c),
(631,544,o),
(631,518,o),
(625,489,c),
(667,489,l),
(681,528,o),
(693,590,o),
(693,621,cs),
(693,643,o),
(693,648,o),
(692,655,c),
(612,650,o),
(573,668,o),
(507,668,cs),
(279,668,o),
(64,478,o),
(64,277,cs),
(64,117,o),
(196,-10,o),
(363,-10,cs)
);
}
);
width = 688;
},
{
anchors = (
{
name = bottom;
pos = (319,0);
},
{
name = top;
pos = (458,646);
}
);
layerId = m004;
shapes = (
{
closed = 1;
nodes = (
(382,-10,o),
(409,7,o),
(466,-3,c),
(491,40,o),
(512,89,o),
(526,141,c),
(492,141,l),
(475,101,o),
(452,64,o),
(423,28,c),
(402,19,o),
(380,14,o),
(355,14,cs),
(238,14,o),
(144,124,o),
(144,261,cs),
(144,449,o),
(302,636,o),
(462,636,cs),
(508,636,o),
(545,622,o),
(578,592,c),
(585,555,o),
(583,520,o),
(572,483,c),
(605,483,l),
(620,528,o),
(631,587,o),
(631,623,cs),
(631,638,o),
(631,641,o),
(630,647,c),
(559,642,o),
(525,660,o),
(467,660,cs),
(262,660,o),
(65,467,o),
(65,267,cs),
(65,111,o),
(179,-10,o),
(325,-10,cs)
);
}
);
width = 606;
},
{
anchors = (
{
name = bottom;
pos = (360,0);
},
{
name = top;
pos = (497,646);
}
);
layerId = "427C505E-2C0B-4FBE-8765-228C251EA8A7";
shapes = (
{
closed = 1;
nodes = (
(422,-10,o),
(482,7,o),
(547,-3,c),
(574,40,o),
(596,89,o),
(610,141,c),
(566,141,l),
(544,99,o),
(523,70,o),
(499,48,c),
(483,40,o),
(456,35,o),
(427,35,cs),
(308,35,o),
(209,143,o),
(209,274,cs),
(209,448,o),
(360,615,o),
(517,615,cs),
(562,615,o),
(610,598,o),
(638,572,c),
(649,546,o),
(652,518,o),
(647,483,c),
(690,483,l),
(705,528,o),
(716,586,o),
(716,617,cs),
(716,636,o),
(716,640,o),
(715,647,c),
(632,642,o),
(572,660,o),
(502,660,cs),
(269,660,o),
(48,472,o),
(48,274,cs),
(48,115,o),
(183,-10,o),
(354,-10,cs)
);
}
);
width = 682;
}
);
metricLeft = O;
unicode = 67;
userData = {
KernOnName = C;
};
},
{
glyphname = D;
kernLeft = KO_H;
kernRight = KO_O;
lastChange = "2025-05-02 19:43:19 +0000";
layers = (
{
anchors = (
{
name = bottom;
pos = (363,0);
},
{
name = center;
pos = (420,323);
},
{
name = top;
pos = (437,646);
}
);
layerId = m01;
shapes = (
{
closed = 1;
nodes = (
(159,22,l),
(161,63,o),
(167,107,o),
(190,214,cs),
(234,419,ls),
(258,531,o),
(270,579,o),
(287,627,c),
(194,627,l),
(190,573,o),
(181,526,o),
(158,419,cs),
(114,214,ls),
(92,111,o),
(81,65,o),
(66,22,c)
);
},
{
closed = 1;
nodes = (
(33,-1,o),
(68,0,o),
(103,0,cs),
(154,0,o),
(192,-4,o),
(253,-4,cs),
(624,-4,o),
(730,203,o),
(730,361,cs),
(730,550,o),
(601,650,o),
(362,650,cs),
(318,650,o),
(283,646,o),
(240,646,cs),
(203,646,o),
(177,647,o),
(158,650,c),
(152,619,l),
(171,610,o),
(187,596,o),
(201,579,c),
(238,597,l),
(273,607,o),
(306,611,o),
(349,611,cs),
(528,611,o),
(636,557,o),
(636,367,cs),
(636,124,o),
(439,35,o),
(241,35,cs),
(182,35,o),
(160,40,o),
(121,49,c),
(87,62,l),
(63,46,o),
(37,35,o),
(12,27,c),
(5,-4,l)
);
}
);
width = 765;
},
{
anchors = (
{
name = bottom;
pos = (375,0);
},
{
name = center;
pos = (432,327);
},
{
name = top;
pos = (450,654);
}
);
layerId = "66C19249-B420-404C-A3E7-B74793AC6646";
shapes = (
{
closed = 1;
nodes = (
(166,22,l),
(169,63,o),
(176,109,o),
(199,217,cs),
(243,424,ls),
(267,536,o),
(278,582,o),
(296,635,c),
(194,635,l),
(190,582,o),
(181,532,o),
(158,424,cs),
(114,217,ls),
(92,113,o),
(80,67,o),
(64,22,c)
);
},
{
closed = 1;
nodes = (
(39,-1,o),
(74,0,o),
(109,0,cs),
(161,0,o),
(200,-4,o),
(262,-4,cs),
(641,-4,o),
(748,200,o),
(748,358,cs),
(748,547,o),
(617,650,o),
(373,650,cs),
(329,650,o),
(293,646,o),
(248,646,cs),
(211,646,o),
(183,647,o),
(164,650,c),
(157,612,l),
(173,603,o),
(186,589,o),
(198,571,c),
(241,588,l),
(276,598,o),
(308,602,o),
(350,602,cs),
(528,602,o),
(630,546,o),
(630,365,cs),
(630,133,o),
(437,52,o),
(245,52,cs),
(187,52,o),
(165,57,o),
(127,66,c),
(87,69,l),
(66,53,o),
(44,42,o),
(19,34,c),
(11,-4,l)
);
}
);
width = 793;
},
{
anchors = (
{
name = bottom;
pos = (349,0);
},
{
name = center;
pos = (406,323);
},
{
name = top;
pos = (433,646);
}
);
layerId = m004;
shapes = (
{
closed = 1;
nodes = (
(157,22,l),
(160,64,o),
(166,107,o),
(189,214,cs),
(233,419,ls),
(256,526,o),
(268,576,o),
(285,627,c),
(199,627,l),
(195,579,o),
(186,526,o),
(163,419,cs),
(119,214,ls),
(97,112,o),
(87,69,o),
(71,22,c)
);
},
{
closed = 1;
nodes = (
(32,-1,o),
(67,0,o),
(102,0,cs),
(151,0,o),
(187,-4,o),
(246,-4,cs),
(602,-4,o),
(703,203,o),
(703,361,cs),
(703,550,o),
(579,650,o),
(351,650,cs),
(308,650,o),
(275,646,o),
(234,646,cs),
(197,646,o),
(176,647,o),
(157,650,c),
(152,627,l),
(170,619,o),
(189,607,o),
(206,589,c),
(234,611,l),
(268,621,o),
(301,625,o),
(342,625,cs),
(517,625,o),
(622,565,o),
(622,365,cs),
(622,110,o),
(430,21,o),
(237,21,cs),
(180,21,o),
(158,26,o),
(120,35,c),
(89,53,l),
(65,37,o),
(38,26,o),
(9,19,c),
(4,-4,l)
);
}
);
width = 729;
},
{
anchors = (
{
name = bottom;
pos = (348,0);
},
{
name = center;
pos = (405,323);
},
{
name = top;
pos = (442,646);
}
);
layerId = "427C505E-2C0B-4FBE-8765-228C251EA8A7";
shapes = (
{
closed = 1;
nodes = (
(213,22,l),
(216,64,o),
(222,107,o),
(245,214,cs),
(289,419,ls),
(312,526,o),
(324,576,o),
(341,627,c),
(189,627,l),
(185,579,o),
(176,526,o),
(153,419,cs),
(109,214,ls),
(87,112,o),
(77,69,o),
(61,22,c)
);
},
{
closed = 1;
nodes = (
(18,-1,o),
(53,0,o),
(88,0,cs),
(141,0,o),
(180,-4,o),
(243,-4,cs),
(626,-4,o),
(735,204,o),
(735,359,cs),
(735,531,o),
(602,650,o),
(355,650,cs),
(310,650,o),
(274,646,o),
(229,646,cs),
(192,646,o),
(162,647,o),
(143,650,c),
(137,619,l),
(156,610,o),
(172,596,o),
(186,579,c),
(257,591,l),
(285,601,o),
(311,605,o),
(346,605,cs),
(505,605,o),
(574,521,o),
(574,366,cs),
(574,117,o),
(412,41,o),
(250,41,cs),
(202,41,o),
(182,46,o),
(146,55,c),
(72,62,l),
(48,46,o),
(22,35,o),
(-3,27,c),
(-10,-4,l)
);
}
);
width = 754;
}
);
metricLeft = "=H@245";
metricRight = O;
unicode = 68;
},
{
glyphname = Eth;
kernRight = KO_O;
lastChange = "2025-05-02 19:43:36 +0000";
layers = (
{
anchors = (
{
name = bottom;
pos = (363,0);
},
{
name = top;
pos = (477,646);
}
);
layerId = m01;
shapes = (
{
closed = 1;
nodes = (
(159,22,l),
(161,63,o),
(167,107,o),
(190,214,cs),
(234,419,ls),
(258,531,o),
(270,579,o),
(287,627,c),
(194,627,l),
(190,573,o),
(181,526,o),
(158,419,cs),
(114,214,ls),
(92,111,o),
(81,65,o),
(66,22,c)
);
},
{
closed = 1;
nodes = (
(33,-1,o),
(68,0,o),
(103,0,cs),
(154,0,o),
(192,-4,o),
(253,-4,cs),
(624,-4,o),
(730,203,o),
(730,361,cs),
(730,550,o),
(601,650,o),
(362,650,cs),
(318,650,o),
(283,646,o),
(240,646,cs),
(203,646,o),
(177,647,o),
(158,650,c),
(152,619,l),
(171,610,o),
(187,596,o),
(201,579,c),
(238,597,l),
(273,607,o),
(306,611,o),
(349,611,cs),
(528,611,o),
(636,557,o),
(636,367,cs),
(636,124,o),
(439,35,o),
(241,35,cs),
(182,35,o),
(160,40,o),
(121,49,c),
(87,62,l),
(63,46,o),
(37,35,o),
(12,27,c),
(5,-4,l)
);
},
{
closed = 1;
nodes = (
(386,303,l),
(400,366,l),
(325,360,o),
(253,359,o),
(179,359,cs),
(83,359,l),
(71,303,l)
);
}
);
width = 765;
},
{
anchors = (
{
name = bottom;
pos = (375,0);
},
{
name = top;
pos = (490,654);
}
);
background = {
anchors = (
{
name = bottom;
pos = (375,0);
},
{
name = center;
pos = (432,327);
},
{
name = top;
pos = (490,654);
}
);
shapes = (
{
closed = 1;
nodes = (
(166,22,l),
(169,63,o),
(176,109,o),
(199,217,cs),
(243,424,ls),
(267,536,o),
(278,582,o),
(296,635,c),
(194,635,l),
(190,582,o),
(181,532,o),
(158,424,cs),
(114,217,ls),
(92,113,o),
(80,67,o),
(64,22,c)
);
},
{
closed = 1;
nodes = (
(39,-1,o),
(74,0,o),
(109,0,cs),
(161,0,o),
(200,-4,o),
(262,-4,cs),
(641,-4,o),
(748,200,o),
(748,358,cs),
(748,547,o),
(617,650,o),
(373,650,cs),
(329,650,o),
(293,646,o),
(248,646,cs),
(211,646,o),
(183,647,o),
(164,650,c),
(157,612,l),
(173,603,o),
(186,589,o),
(198,571,c),
(241,588,l),
(276,598,o),
(308,602,o),
(350,602,cs),
(528,602,o),
(630,546,o),
(630,365,cs),
(630,133,o),
(437,52,o),
(245,52,cs),
(187,52,o),
(165,57,o),
(127,66,c),
(87,69,l),
(66,53,o),
(44,42,o),
(19,34,c),
(11,-4,l)
);
}
);
};
layerId = "66C19249-B420-404C-A3E7-B74793AC6646";
shapes = (
{
closed = 1;
nodes = (
(166,22,l),
(169,63,o),
(176,109,o),
(199,217,cs),
(243,424,ls),
(267,536,o),
(278,582,o),
(296,635,c),
(194,635,l),
(190,582,o),
(181,532,o),
(158,424,cs),
(114,217,ls),
(92,113,o),
(80,67,o),
(64,22,c)
);
},
{
closed = 1;
nodes = (
(39,-1,o),
(74,0,o),
(109,0,cs),
(161,0,o),
(200,-4,o),
(262,-4,cs),
(641,-4,o),
(748,200,o),
(748,358,cs),
(748,547,o),
(617,650,o),
(373,650,cs),
(329,650,o),
(293,646,o),
(248,646,cs),
(211,646,o),
(183,647,o),
(164,650,c),
(157,612,l),
(173,603,o),
(186,589,o),
(198,571,c),
(241,588,l),
(276,598,o),
(308,602,o),
(350,602,cs),
(528,602,o),
(630,546,o),
(630,365,cs),
(630,133,o),
(437,52,o),
(245,52,cs),
(187,52,o),
(165,57,o),
(127,66,c),
(87,69,l),
(66,53,o),
(44,42,o),
(19,34,c),
(11,-4,l)
);
},
{
closed = 1;
nodes = (
(405,302,l),
(421,378,l),
(343,370,o),
(267,369,o),
(191,369,cs),
(90,369,l),
(76,302,l)
);
}
);
width = 793;
},
{
anchors = (
{
name = bottom;
pos = (349,0);
},
{
name = top;
pos = (463,646);
}
);
background = {
anchors = (
{
name = bottom;
pos = (349,0);
},
{
name = center;
pos = (406,323);
},
{
name = top;
pos = (463,646);
}
);
shapes = (
{
closed = 1;
nodes = (
(157,22,l),
(160,64,o),
(166,107,o),
(189,214,cs),
(233,419,ls),
(256,526,o),
(268,576,o),
(285,627,c),
(199,627,l),
(195,579,o),
(186,526,o),
(163,419,cs),
(119,214,ls),
(97,112,o),
(87,69,o),
(71,22,c)
);
},
{
closed = 1;
nodes = (
(32,-1,o),
(67,0,o),
(102,0,cs),
(151,0,o),
(187,-4,o),
(246,-4,cs),
(602,-4,o),
(703,203,o),
(703,361,cs),
(703,550,o),
(579,650,o),
(351,650,cs),
(308,650,o),
(275,646,o),
(234,646,cs),
(197,646,o),
(176,647,o),
(157,650,c),
(152,627,l),
(170,619,o),
(189,607,o),
(206,589,c),
(234,611,l),
(268,621,o),
(301,625,o),
(342,625,cs),
(517,625,o),
(622,565,o),
(622,365,cs),
(622,110,o),
(430,21,o),
(237,21,cs),
(180,21,o),
(158,26,o),
(120,35,c),
(89,53,l),
(65,37,o),
(38,26,o),
(9,19,c),
(4,-4,l)
);
}
);
};
layerId = m004;
shapes = (
{
closed = 1;
nodes = (
(157,22,l),
(160,64,o),
(166,107,o),
(189,214,cs),
(233,419,ls),
(256,526,o),
(268,576,o),
(285,627,c),
(199,627,l),
(195,579,o),
(186,526,o),
(163,419,cs),
(119,214,ls),
(97,112,o),
(87,69,o),
(71,22,c)
);
},
{
closed = 1;
nodes = (
(32,-1,o),
(67,0,o),
(102,0,cs),
(151,0,o),
(187,-4,o),
(246,-4,cs),
(602,-4,o),
(703,203,o),
(703,361,cs),
(703,550,o),
(579,650,o),
(351,650,cs),
(308,650,o),
(275,646,o),
(234,646,cs),
(197,646,o),
(176,647,o),
(157,650,c),
(152,627,l),
(170,619,o),
(189,607,o),
(206,589,c),
(234,611,l),
(268,621,o),
(301,625,o),
(342,625,cs),
(517,625,o),
(622,565,o),
(622,365,cs),
(622,110,o),
(430,21,o),
(237,21,cs),
(180,21,o),
(158,26,o),
(120,35,c),
(89,53,l),
(65,37,o),
(38,26,o),
(9,19,c),
(4,-4,l)
);
},
{
closed = 1;
nodes = (
(374,312,l),
(383,355,l),
(315,351,o),
(249,350,o),
(181,350,cs),
(80,350,l),
(72,312,l)
);
}
);
width = 729;
},
{
anchors = (
{
name = bottom;
pos = (358,0);
},
{
name = top;
pos = (472,646);
}
);
background = {
anchors = (
{
name = bottom;
pos = (348,0);
},
{
name = center;
pos = (405,323);
},
{
name = top;
pos = (442,646);
}
);
shapes = (
{
closed = 1;
nodes = (
(213,22,l),
(216,64,o),
(222,107,o),
(245,214,cs),
(289,419,ls),
(312,526,o),
(324,576,o),
(341,627,c),
(189,627,l),
(185,579,o),
(176,526,o),
(153,419,cs),
(109,214,ls),
(87,112,o),
(77,69,o),
(61,22,c)
);
},
{
closed = 1;
nodes = (
(18,-1,o),
(53,0,o),
(88,0,cs),
(141,0,o),
(180,-4,o),
(243,-4,cs),
(626,-4,o),
(735,204,o),
(735,359,cs),
(735,531,o),
(602,650,o),
(355,650,cs),
(310,650,o),
(274,646,o),
(229,646,cs),
(192,646,o),
(162,647,o),
(143,650,c),
(137,619,l),
(156,610,o),
(172,596,o),
(186,579,c),
(257,591,l),
(285,601,o),
(311,605,o),
(346,605,cs),
(505,605,o),
(574,521,o),
(574,366,cs),
(574,117,o),
(412,41,o),
(250,41,cs),
(202,41,o),
(182,46,o),
(146,55,c),
(72,62,l),
(48,46,o),
(22,35,o),
(-3,27,c),
(-10,-4,l)
);
}
);
};
layerId = "427C505E-2C0B-4FBE-8765-228C251EA8A7";
shapes = (
{
closed = 1;
nodes = (
(213,22,l),
(216,64,o),
(222,107,o),
(245,214,cs),
(289,419,ls),
(312,526,o),
(324,576,o),
(341,627,c),
(189,627,l),
(185,579,o),
(176,526,o),
(153,419,cs),
(109,214,ls),
(87,112,o),
(77,69,o),
(61,22,c)
);
},
{
closed = 1;
nodes = (
(18,-1,o),
(53,0,o),
(88,0,cs),
(141,0,o),
(180,-4,o),
(243,-4,cs),
(626,-4,o),
(735,204,o),
(735,359,cs),
(735,531,o),
(602,650,o),
(355,650,cs),
(310,650,o),
(274,646,o),
(229,646,cs),
(192,646,o),
(162,647,o),
(143,650,c),
(137,619,l),
(156,610,o),
(172,596,o),
(186,579,c),
(257,591,l),
(285,601,o),
(311,605,o),
(346,605,cs),
(505,605,o),
(574,521,o),
(574,366,cs),
(574,117,o),
(412,41,o),
(250,41,cs),
(202,41,o),
(182,46,o),
(146,55,c),
(74,62,l),
(49,46,o),
(23,35,o),
(-3,27,c),
(-10,-4,l)
);
},
{
closed = 1;
nodes = (
(390,300,l),
(406,369,l),
(331,363,o),
(259,362,o),
(185,362,cs),
(69,362,l),
(55,300,l)
);
}
);
width = 754;
}
);
metricLeft = "=H@245";
metricRight = O;
unicode = 208;
},
{
glyphname = E;
kernLeft = KO_H;
kernRight = KO_E;
lastChange = "2025-05-02 23:52:33 +0000";
layers = (
{
anchors = (
{
name = bottom;
pos = (221,0);
},
{
name = ogonek;
pos = (421,10);
},
{
name = top;
pos = (376,646);
},
{
name = topleft;
pos = (80,646);
}
);
layerId = m01;
shapes = (
{
closed = 1;
nodes = (
(560,499,l),
(592,652,l),
(484,648,o),
(383,646,o),
(240,646,cs),
(194,646,o),
(167,647,o),
(148,650,c),
(142,619,l),
(163,611,o),
(182,598,o),
(200,583,c),
(255,606,l),
(458,606,ls),
(497,606,o),
(513,588,o),
(517,558,cs),
(525,499,l)
);
},
{
closed = 1;
nodes = (
(158,22,l),
(161,66,o),
(168,111,o),
(190,214,cs),
(234,419,ls),
(257,527,o),
(271,581,o),
(286,627,c),
(194,627,l),
(190,581,o),
(183,537,o),
(158,419,cs),
(114,214,ls),
(92,111,o),
(80,63,o),
(66,22,c)
);
},
{
closed = 1;
nodes = (
(504,122,l),
(468,122,l),
(423,81,ls),
(389,50,o),
(352,41,o),
(309,41,cs),
(137,41,l),
(86,61,l),
(60,45,o),
(30,33,o),
(-3,27,c),
(-9,-4,l),
(19,-1,o),
(51,0,o),
(103,0,cs),
(269,0,o),
(327,-2,o),
(423,-11,c)
);
},
{
closed = 1;
nodes = (
(443,318,l),
(453,363,l),
(396,359,o),
(339,358,o),
(283,358,cs),
(199,358,l),
(190,318,l)
);
},
{
closed = 1;
nodes = (
(453,247,l),
(455,277,o),
(461,312,o),
(467,340,cs),
(473,368,o),
(481,397,o),
(490,425,c),
(466,425,l),
(458,406,o),
(444,383,o),
(427,361,c),
(416,318,l),
(424,294,o),
(427,271,o),
(425,247,c)
);
}
);
width = 576;
},
{
anchors = (
{
name = bottom;
pos = (237,0);
},
{
name = ogonek;
pos = (425,10);
},
{
name = top;
pos = (378,654);
},
{
name = topleft;
pos = (84,654);
}
);
layerId = "66C19249-B420-404C-A3E7-B74793AC6646";
shapes = (
{
closed = 1;
nodes = (
(563,505,l),
(596,660,l),
(488,656,o),
(387,654,o),
(244,654,cs),
(193,654,o),
(165,655,o),
(144,658,c),
(136,620,l),
(160,613,o),
(182,601,o),
(203,585,c),
(255,598,l),
(454,598,ls),
(492,598,o),
(514,581,o),
(517,558,cs),
(524,505,l)
);
},
{
closed = 1;
nodes = (
(169,22,l),
(172,65,o),
(180,114,o),
(202,217,cs),
(246,424,ls),
(270,536,o),
(281,582,o),
(299,635,c),
(198,635,l),
(194,590,o),
(186,542,o),
(161,424,cs),
(117,217,ls),
(94,109,o),
(83,65,o),
(68,22,c)
);
},
{
closed = 1;
nodes = (
(506,123,l),
(466,123,l),
(426,86,ls),
(400,62,o),
(354,56,o),
(310,56,cs),
(142,56,l),
(91,68,l),
(62,50,o),
(33,39,o),
(1,34,c),
(-7,-4,l),
(21,-1,o),
(53,0,o),
(105,0,cs),
(271,0,o),
(329,-2,o),
(425,-11,c)
);
},
{
closed = 1;
nodes = (
(445,314,l),
(458,376,l),
(401,371,o),
(343,370,o),
(287,370,cs),
(203,370,l),
(192,314,l)
);
},
{
closed = 1;
nodes = (
(456,250,l),
(458,279,o),
(463,311,o),
(470,344,cs),
(476,372,o),
(483,399,o),
(493,430,c),
(459,430,l),
(451,411,o),
(438,392,o),
(421,374,c),
(409,314,l),
(416,293,o),
(418,274,o),
(419,250,c)
);
}
);
width = 595;
},
{
anchors = (
{
name = bottom;
pos = (204,0);
},
{
name = ogonek;
pos = (375,10);
},
{
name = top;
pos = (363,646);
},
{
name = topleft;
pos = (103,646);
}
);
layerId = m004;
shapes = (
{
closed = 1;
nodes = (
(529,499,l),
(561,652,l),
(453,648,o),
(337,646,o),
(243,646,cs),
(193,646,o),
(164,647,o),
(143,650,c),
(138,627,l),
(163,620,o),
(186,607,o),
(207,592,c),
(265,620,l),
(434,620,ls),
(472,620,o),
(484,608,o),
(487,585,cs),
(498,499,l)
);
},
{
closed = 1;
nodes = (
(159,22,l),
(161,67,o),
(169,116,o),
(190,214,cs),
(234,419,ls),
(258,531,o),
(270,580,o),
(287,627,c),
(200,627,l),
(196,581,o),
(189,537,o),
(164,419,cs),
(120,214,ls),
(98,111,o),
(86,63,o),
(72,22,c)
);
},
{
closed = 1;
nodes = (
(473,122,l),
(442,122,l),
(372,57,ls),
(348,35,o),
(321,24,o),
(279,24,cs),
(136,24,l),
(90,52,l),
(61,36,o),
(30,24,o),
(-1,19,c),
(-6,-4,l),
(22,-1,o),
(54,0,o),
(106,0,cs),
(230,0,o),
(296,-2,o),
(392,-11,c)
);
},
{
closed = 1;
nodes = (
(414,324,l),
(420,354,l),
(374,351,o),
(329,350,o),
(283,350,cs),
(200,350,l),
(195,324,l)
);
},
{
closed = 1;
nodes = (
(422,247,l),
(424,277,o),
(430,312,o),
(436,340,cs),
(442,368,o),
(450,397,o),
(459,425,c),
(439,425,l),
(429,402,o),
(413,376,o),
(396,353,c),
(390,324,l),
(396,296,o),
(397,272,o),
(397,247,c)
);
}
);
width = 535;
},
{
anchors = (
{
name = bottom;
pos = (241,0);
},
{
name = ogonek;
pos = (411,10);
},
{
name = top;
pos = (387,646);
},
{
name = topleft;
pos = (70,646);
}
);
layerId = "427C505E-2C0B-4FBE-8765-228C251EA8A7";
shapes = (
{
closed = 1;
nodes = (
(580,499,l),
(612,652,l),
(504,648,o),
(373,646,o),
(230,646,cs),
(184,646,o),
(157,647,o),
(138,650,c),
(131,613,l),
(152,605,o),
(172,592,o),
(190,577,c),
(244,600,l),
(471,600,ls),
(510,600,o),
(525,582,o),
(530,552,cs),
(539,499,l)
);
},
{
closed = 1;
nodes = (
(220,22,l),
(223,64,o),
(229,107,o),
(252,214,cs),
(296,419,ls),
(319,526,o),
(331,576,o),
(348,627,c),
(196,627,l),
(192,579,o),
(183,526,o),
(160,419,cs),
(116,214,ls),
(94,112,o),
(84,69,o),
(68,22,c)
);
},
{
closed = 1;
nodes = (
(534,122,l),
(492,122,l),
(457,87,ls),
(424,54,o),
(386,47,o),
(343,47,cs),
(131,47,l),
(81,67,l),
(54,51,o),
(22,39,o),
(-12,33,c),
(-19,-4,l),
(9,-1,o),
(41,0,o),
(93,0,cs),
(259,0,o),
(357,-2,o),
(453,-11,c)
);
},
{
closed = 1;
nodes = (
(432,315,l),
(444,366,l),
(387,362,o),
(330,361,o),
(274,361,cs),
(190,361,l),
(179,315,l)
);
},
{
closed = 1;
nodes = (
(443,247,l),
(445,277,o),
(451,312,o),
(457,340,cs),
(463,368,o),
(471,397,o),
(480,425,c),
(450,425,l),
(442,407,o),
(428,385,o),
(411,364,c),
(400,315,l),
(408,292,o),
(411,270,o),
(409,247,c)
);
}
);
width = 590;
}
);
unicode = 69;
userData = {
KernOnName = E;
};
},
{
glyphname = Eogonek;
kernLeft = KO_H;
kernRight = KO_E;
lastChange = "2025-03-28 01:15:21 +0000";
layers = (
{
anchors = (
{
name = top;
pos = (382,646);
}
);
background = {
anchors = (
{
name = bottom;
pos = (221,0);
},
{
name = ogonek;
pos = (421,10);
},
{
name = top;
pos = (382,646);
},
{
name = topleft;
pos = (80,646);
}
);
shapes = (
{
closed = 1;
nodes = (
(560,499,l),
(592,652,l),
(484,648,o),
(383,646,o),
(240,646,cs),
(194,646,o),
(167,647,o),
(148,650,c),
(142,619,l),
(163,611,o),
(182,598,o),
(200,583,c),
(255,606,l),
(458,606,ls),
(497,606,o),
(513,588,o),
(517,558,cs),
(525,499,l)
);
},
{
closed = 1;
nodes = (
(158,22,l),
(161,66,o),
(168,111,o),
(190,214,cs),
(234,419,ls),
(257,527,o),
(271,581,o),
(286,627,c),
(194,627,l),
(190,581,o),
(183,537,o),
(158,419,cs),
(114,214,ls),
(92,111,o),
(80,63,o),
(66,22,c)
);
},
{
closed = 1;
nodes = (
(443,318,l),
(453,363,l),
(396,359,o),
(339,358,o),
(283,358,cs),
(199,358,l),
(190,318,l)
);
},
{
closed = 1;
nodes = (
(453,247,l),
(455,277,o),
(461,312,o),
(467,340,cs),
(473,368,o),
(481,397,o),
(490,425,c),
(466,425,l),
(458,406,o),
(444,383,o),
(427,361,c),
(416,318,l),
(424,294,o),
(427,271,o),
(425,247,c)
);
}
);
};
layerId = m01;
shapes = (
{
closed = 1;
nodes = (
(560,499,l),
(592,652,l),
(484,648,o),
(383,646,o),
(240,646,cs),
(194,646,o),
(167,647,o),
(148,650,c),
(142,619,l),
(163,611,o),
(182,598,o),
(200,583,c),
(255,606,l),
(458,606,ls),
(497,606,o),
(513,588,o),
(517,558,cs),
(525,499,l)
);
},
{
closed = 1;
nodes = (
(158,22,l),
(161,66,o),
(168,111,o),
(190,214,cs),
(234,419,ls),
(257,527,o),
(271,581,o),
(286,627,c),
(194,627,l),
(190,581,o),
(183,537,o),
(158,419,cs),
(114,214,ls),
(92,111,o),
(80,63,o),
(66,22,c)
);
},
{
closed = 1;
nodes = (
(307,-253,o),
(338,-238,o),
(371,-205,c),
(377,-178,l),
(354,-197,o),
(338,-203,o),
(321,-203,cs),
(290,-203,o),
(274,-182,o),
(274,-148,cs),
(274,-69,o),
(332,-10,o),
(408,-10,cs),
(413,-10,o),
(418,-10,o),
(423,-11,c),
(504,122,l),
(468,122,l),
(423,81,ls),
(390,51,o),
(354,41,o),
(309,41,cs),
(137,41,l),
(86,61,l),
(60,45,o),
(30,33,o),
(-3,27,c),
(-9,-4,l),
(17,-1,o),
(46,0,o),
(103,0,cs),
(246,0,o),
(299,-1,o),
(355,-6,c),
(368,12,l),
(284,-8,o),
(196,-83,o),
(196,-176,cs),
(196,-223,o),
(224,-253,o),
(272,-253,cs)
);
},
{
closed = 1;
nodes = (
(443,318,l),
(453,363,l),
(396,359,o),
(339,358,o),
(283,358,cs),
(199,358,l),
(190,318,l)
);
},
{
closed = 1;
nodes = (
(453,247,l),
(455,277,o),
(461,312,o),
(467,340,cs),
(473,368,o),
(481,397,o),
(490,425,c),
(466,425,l),
(458,406,o),
(444,383,o),
(427,361,c),
(416,318,l),
(424,294,o),
(427,271,o),
(425,247,c)
);
}
);
width = 576;
},
{
anchors = (
{
name = top;
pos = (395,654);
}
);
background = {
anchors = (
{
name = bottom;
pos = (237,0);
},
{
name = ogonek;
pos = (425,10);
},
{
name = top;
pos = (395,654);
},
{
name = topleft;
pos = (84,654);
}
);
shapes = (
{
closed = 1;
nodes = (
(563,505,l),
(596,660,l),
(488,656,o),
(387,654,o),
(244,654,cs),
(193,654,o),
(165,655,o),
(144,658,c),
(136,620,l),
(160,613,o),
(182,601,o),
(203,585,c),
(255,598,l),
(454,598,ls),
(492,598,o),
(514,581,o),
(517,558,cs),
(524,505,l)
);
},
{
closed = 1;
nodes = (
(169,22,l),
(172,65,o),
(180,114,o),
(202,217,cs),
(246,424,ls),
(270,536,o),
(281,582,o),
(299,635,c),
(198,635,l),
(194,590,o),
(186,542,o),
(161,424,cs),
(117,217,ls),
(94,109,o),
(83,65,o),
(68,22,c)
);
},
{
closed = 1;
nodes = (
(445,314,l),
(458,376,l),
(401,371,o),
(343,370,o),
(287,370,cs),
(203,370,l),
(192,314,l)
);
},
{
closed = 1;
nodes = (
(456,250,l),
(458,279,o),
(463,311,o),
(470,344,cs),
(476,372,o),
(483,399,o),
(493,430,c),
(459,430,l),
(451,411,o),
(438,392,o),
(421,374,c),
(409,314,l),
(416,293,o),
(418,274,o),
(419,250,c)
);
}
);
};
layerId = "66C19249-B420-404C-A3E7-B74793AC6646";
shapes = (
{
closed = 1;
nodes = (
(563,505,l),
(596,660,l),
(488,656,o),
(387,654,o),
(244,654,cs),
(193,654,o),
(165,655,o),
(144,658,c),
(136,620,l),
(160,613,o),
(182,601,o),
(203,585,c),
(255,598,l),
(454,598,ls),
(492,598,o),
(514,581,o),
(517,558,cs),
(524,505,l)
);
},
{
closed = 1;
nodes = (
(169,22,l),
(172,65,o),
(180,114,o),
(202,217,cs),
(246,424,ls),
(270,536,o),
(281,582,o),
(299,635,c),
(198,635,l),
(194,590,o),
(186,542,o),
(161,424,cs),
(117,217,ls),
(94,109,o),
(83,65,o),
(68,22,c)
);
},
{
closed = 1;
nodes = (
(306,-253,o),
(337,-238,o),
(371,-205,c),
(379,-169,l),
(356,-187,o),
(341,-193,o),
(325,-193,cs),
(296,-193,o),
(280,-174,o),
(280,-141,cs),
(280,-57,o),
(344,-9,o),
(408,-9,cs),
(414,-9,o),
(420,-10,o),
(425,-11,c),
(506,123,l),
(466,123,l),
(426,86,ls),
(403,65,o),
(365,57,o),
(310,57,cs),
(142,57,l),
(91,68,l),
(62,50,o),
(33,39,o),
(1,34,c),
(-7,-4,l),
(19,-1,o),
(48,0,o),
(105,0,cs),
(223,0,o),
(282,-1,o),
(340,-4,c),
(348,7,l),
(272,-18,o),
(193,-88,o),
(193,-175,cs),
(193,-222,o),
(222,-253,o),
(270,-253,cs)
);
},
{
closed = 1;
nodes = (
(445,314,l),
(458,376,l),
(401,371,o),
(343,370,o),
(287,370,cs),
(203,370,l),
(192,314,l)
);
},
{
closed = 1;
nodes = (
(456,250,l),
(458,279,o),
(463,311,o),
(470,344,cs),
(476,372,o),
(483,399,o),
(493,430,c),
(459,430,l),
(451,411,o),
(438,392,o),
(421,374,c),
(409,314,l),
(416,293,o),
(418,274,o),
(419,250,c)
);
}
);
width = 595;
},
{
anchors = (
{
name = top;
pos = (360,646);
}
);
background = {
anchors = (
{
name = bottom;
pos = (204,0);
},
{
name = ogonek;
pos = (375,10);
},
{
name = top;
pos = (383,646);
},
{
name = topleft;
pos = (103,646);
}
);
shapes = (
{
closed = 1;
nodes = (
(529,499,l),
(561,652,l),
(453,648,o),
(337,646,o),
(243,646,cs),
(193,646,o),
(164,647,o),
(143,650,c),
(138,627,l),
(163,620,o),
(186,607,o),
(207,592,c),
(265,620,l),
(434,620,ls),
(472,620,o),
(484,608,o),
(487,585,cs),
(498,499,l)
);
},
{
closed = 1;
nodes = (
(159,22,l),
(161,67,o),
(169,116,o),
(190,214,cs),
(234,419,ls),
(258,531,o),
(270,580,o),
(287,627,c),
(200,627,l),
(196,581,o),
(189,537,o),
(164,419,cs),
(120,214,ls),
(98,111,o),
(86,63,o),
(72,22,c)
);
},
{
closed = 1;
nodes = (
(414,324,l),
(420,354,l),
(374,351,o),
(329,350,o),
(283,350,cs),
(200,350,l),
(195,324,l)
);
},
{
closed = 1;
nodes = (
(422,247,l),
(424,277,o),
(430,312,o),
(436,340,cs),
(442,368,o),
(450,397,o),
(459,425,c),
(439,425,l),
(429,402,o),
(413,376,o),
(396,353,c),
(390,324,l),
(396,296,o),
(397,272,o),
(397,247,c)
);
}
);
};
layerId = m004;
shapes = (
{
closed = 1;
nodes = (
(529,499,l),
(561,652,l),
(453,648,o),
(337,646,o),
(243,646,cs),
(193,646,o),
(164,647,o),
(143,650,c),
(138,627,l),
(163,620,o),
(186,607,o),
(207,592,c),
(265,620,l),
(434,620,ls),
(472,620,o),
(484,608,o),
(487,585,cs),
(498,499,l)
);
},
{
closed = 1;
nodes = (
(159,22,l),
(161,67,o),
(169,116,o),
(190,214,cs),
(234,419,ls),
(258,531,o),
(270,580,o),
(287,627,c),
(200,627,l),
(196,581,o),
(189,537,o),
(164,419,cs),
(120,214,ls),
(98,111,o),
(86,63,o),
(72,22,c)
);
},
{
closed = 1;
nodes = (
(269,-253,o),
(300,-238,o),
(333,-205,c),
(338,-183,l),
(316,-202,o),
(298,-209,o),
(280,-209,cs),
(251,-209,o),
(234,-188,o),
(234,-152,cs),
(234,-70,o),
(294,-9,o),
(370,-9,cs),
(377,-9,o),
(385,-10,o),
(392,-11,c),
(473,122,l),
(442,122,l),
(372,57,ls),
(347,34,o),
(319,25,o),
(279,25,cs),
(136,25,l),
(90,52,l),
(61,36,o),
(30,24,o),
(-1,19,c),
(-6,-4,l),
(20,-1,o),
(49,0,o),
(106,0,cs),
(190,0,o),
(253,-1,o),
(306,-4,c),
(309,6,l),
(237,-19,o),
(161,-90,o),
(161,-175,cs),
(161,-222,o),
(189,-253,o),
(235,-253,cs)
);
},
{
closed = 1;
nodes = (
(414,324,l),
(420,354,l),
(374,351,o),
(329,350,o),
(283,350,cs),
(200,350,l),
(195,324,l)
);
},
{
closed = 1;
nodes = (
(422,247,l),
(424,277,o),
(430,312,o),
(436,340,cs),
(442,368,o),
(450,397,o),
(459,425,c),
(439,425,l),
(429,402,o),
(413,376,o),
(396,353,c),
(390,324,l),
(396,296,o),
(397,272,o),
(397,247,c)
);
}
);
width = 535;
},
{
anchors = (
{
name = top;
pos = (382,646);
}
);
background = {
shapes = (
{
closed = 1;
nodes = (
(333,-253,o),
(370,-237,o),
(406,-205,c),
(412,-178,l),
(391,-197,o),
(381,-203,o),
(367,-203,cs),
(338,-203,o),
(327,-182,o),
(327,-148,cs),
(327,-69,o),
(376,-10,o),
(441,-10,cs),
(445,-10,o),
(450,-10,o),
(453,-11,c),
(534,122,l),
(492,122,l),
(457,87,ls),
(425,55,o),
(386,47,o),
(343,47,cs),
(131,47,l),
(81,67,l),
(54,51,o),
(22,39,o),
(-12,33,c),
(-19,-4,l),
(9,-1,o),
(41,0,o),
(93,0,cs),
(213,0,o),
(299,-1,o),
(371,-5,c),
(371,4,l),
(286,-24,o),
(209,-93,o),
(209,-176,cs),
(209,-223,o),
(240,-253,o),
(294,-253,cs)
);
}
);
};
layerId = "427C505E-2C0B-4FBE-8765-228C251EA8A7";
shapes = (
{
closed = 1;
nodes = (
(580,499,l),
(612,652,l),
(504,648,o),
(373,646,o),
(230,646,cs),
(184,646,o),
(157,647,o),
(138,650,c),
(131,613,l),
(152,605,o),
(172,592,o),
(190,577,c),
(244,600,l),
(471,600,ls),
(510,600,o),
(525,582,o),
(530,552,cs),
(539,499,l)
);
},
{
closed = 1;
nodes = (
(220,22,l),
(223,64,o),
(229,107,o),
(252,214,cs),
(296,419,ls),
(319,526,o),
(331,576,o),
(348,627,c),
(196,627,l),
(192,579,o),
(183,526,o),
(160,419,cs),
(116,214,ls),
(94,112,o),
(84,69,o),
(68,22,c)
);
},
{
closed = 1;
nodes = (
(333,-253,o),
(370,-237,o),
(406,-205,c),
(412,-178,l),
(391,-197,o),
(381,-203,o),
(367,-203,cs),
(338,-203,o),
(327,-182,o),
(327,-148,cs),
(327,-69,o),
(376,-10,o),
(441,-10,cs),
(445,-10,o),
(450,-10,o),
(453,-11,c),
(534,122,l),
(492,122,l),
(457,87,ls),
(425,55,o),
(386,47,o),
(343,47,cs),
(131,47,l),
(81,67,l),
(54,51,o),
(22,39,o),
(-12,33,c),
(-19,-4,l),
(9,-1,o),
(41,0,o),
(93,0,cs),
(213,0,o),
(299,-1,o),
(371,-5,c),
(371,4,l),
(286,-24,o),
(209,-93,o),
(209,-176,cs),
(209,-223,o),
(240,-253,o),
(294,-253,cs)
);
},
{
closed = 1;
nodes = (
(432,315,l),
(444,366,l),
(387,362,o),
(330,361,o),
(274,361,cs),
(190,361,l),
(179,315,l)
);
},
{
closed = 1;
nodes = (
(443,247,l),
(445,277,o),
(451,312,o),
(457,340,cs),
(463,368,o),
(471,397,o),
(480,425,c),
(450,425,l),
(442,407,o),
(428,385,o),
(411,364,c),
(400,315,l),
(408,292,o),
(411,270,o),
(409,247,c)
);
}
);
width = 590;
}
);
metricLeft = E;
metricRight = E;
unicode = 280;
},
{
glyphname = F;
kernLeft = KO_H;
kernRight = KO_F;
lastChange = "2025-05-02 23:56:56 +0000";
layers = (
{
anchors = (
{
name = bottom;
pos = (201,0);
},
{
name = top;
pos = (339,646);
}
);
background = {
shapes = (
{
closed = 1;
nodes = (
(448,259,l),
(450,286,o),
(454,315,o),
(462,352,cs),
(467,376,o),
(475,403,o),
(482,424,c),
(458,424,l),
(453,409,o),
(440,374,o),
(432,374,cs),
(379,371,o),
(330,370,o),
(278,370,cs),
(194,370,l),
(185,330,l),
(422,330,ls),
(430,330,o),
(427,281,o),
(424,259,c)
);
}
);
};
layerId = m01;
shapes = (
{
closed = 1;
nodes = (
(544,499,l),
(577,652,l),
(469,648,o),
(383,646,o),
(240,646,cs),
(185,646,o),
(153,647,o),
(129,650,c),
(123,619,l),
(162,613,o),
(201,603,o),
(240,591,c),
(254,606,l),
(443,606,ls),
(478,606,o),
(499,592,o),
(503,558,cs),
(510,499,l)
);
},
{
closed = 1;
nodes = (
(25,-1,o),
(75,0,o),
(124,0,cs),
(173,0,o),
(223,-1,o),
(271,-6,c),
(276,25,l),
(236,30,o),
(160,45,o),
(160,53,c),
(164,87,o),
(173,132,o),
(190,214,cs),
(233,419,ls),
(257,533,o),
(269,579,o),
(286,627,c),
(194,627,l),
(190,583,o),
(181,534,o),
(157,419,cs),
(114,214,ls),
(98,136,o),
(87,90,o),
(75,53,cs),
(72,45,o),
(12,31,o),
(-20,25,c),
(-25,-6,l)
);
},
{
closed = 1;
nodes = (
(448,259,l),
(450,286,o),
(454,315,o),
(462,352,cs),
(467,376,o),
(475,403,o),
(482,424,c),
(458,424,l),
(453,409,o),
(440,374,o),
(432,374,cs),
(379,371,o),
(330,370,o),
(278,370,cs),
(194,370,l),
(185,330,l),
(419,330,ls),
(427,330,o),
(426,284,o),
(424,259,c)
);
}
);
width = 518;
},
{
anchors = (
{
name = bottom;
pos = (200,0);
},
{
name = top;
pos = (339,654);
}
);
layerId = "66C19249-B420-404C-A3E7-B74793AC6646";
shapes = (
{
closed = 1;
nodes = (
(549,505,l),
(582,660,l),
(475,656,o),
(388,654,o),
(246,654,cs),
(191,654,o),
(159,655,o),
(136,658,c),
(128,620,l),
(167,614,o),
(206,605,o),
(244,592,c),
(256,597,l),
(440,597,ls),
(474,597,o),
(500,591,o),
(503,565,cs),
(510,505,l)
);
},
{
closed = 1;
nodes = (
(30,-1,o),
(80,0,o),
(129,0,cs),
(178,0,o),
(228,-1,o),
(276,-6,c),
(283,32,l),
(245,37,o),
(169,51,o),
(170,59,c),
(172,87,o),
(181,132,o),
(199,217,cs),
(243,424,ls),
(266,533,o),
(276,579,o),
(297,635,c),
(195,635,l),
(190,579,o),
(181,533,o),
(158,424,cs),
(114,217,ls),
(96,132,o),
(85,87,o),
(77,59,cs),
(75,51,o),
(17,38,o),
(-13,32,c),
(-20,-6,l)
);
},
{
closed = 1;
nodes = (
(454,267,l),
(455,294,o),
(459,324,o),
(467,362,cs),
(472,386,o),
(480,412,o),
(488,434,c),
(454,434,l),
(450,420,o),
(435,387,o),
(427,387,cs),
(377,384,o),
(333,383,o),
(284,383,cs),
(200,383,l),
(189,327,l),
(414,327,ls),
(422,327,o),
(421,289,o),
(420,267,c)
);
}
);
width = 530;
},
{
anchors = (
{
name = bottom;
pos = (201,0);
},
{
name = top;
pos = (339,646);
}
);
layerId = m004;
shapes = (
{
closed = 1;
nodes = (
(523,499,l),
(556,652,l),
(448,648,o),
(347,646,o),
(252,646,cs),
(198,646,o),
(168,647,o),
(146,650,c),
(141,627,l),
(175,621,o),
(209,611,o),
(243,599,c),
(263,621,l),
(428,621,ls),
(463,621,o),
(479,611,o),
(482,585,cs),
(492,499,l)
);
},
{
closed = 1;
nodes = (
(41,-1,o),
(84,0,o),
(127,0,cs),
(169,0,o),
(213,-1,o),
(254,-6,c),
(259,17,l),
(224,22,o),
(159,37,o),
(159,45,c),
(164,87,o),
(172,132,o),
(189,214,cs),
(232,419,ls),
(256,533,o),
(268,579,o),
(286,627,c),
(199,627,l),
(195,579,o),
(186,533,o),
(162,419,cs),
(119,214,ls),
(102,132,o),
(90,87,o),
(78,45,cs),
(76,37,o),
(28,23,o),
(2,17,c),
(-3,-6,l)
);
},
{
closed = 1;
nodes = (
(426,260,l),
(428,288,o),
(432,318,o),
(439,352,cs),
(445,380,o),
(451,405,o),
(462,438,c),
(442,438,l),
(435,419,o),
(415,366,o),
(407,366,cs),
(366,364,o),
(327,363,o),
(286,363,cs),
(202,363,l),
(197,337,l),
(398,337,ls),
(406,337,o),
(406,288,o),
(406,260,c)
);
}
);
width = 491;
},
{
anchors = (
{
name = bottom;
pos = (194,0);
},
{
name = top;
pos = (332,646);
}
);
layerId = "427C505E-2C0B-4FBE-8765-228C251EA8A7";
shapes = (
{
closed = 1;
nodes = (
(573,499,l),
(605,652,l),
(497,648,o),
(366,646,o),
(223,646,cs),
(177,646,o),
(150,647,o),
(131,650,c),
(124,613,l),
(145,605,o),
(165,592,o),
(183,577,c),
(237,600,l),
(464,600,ls),
(503,600,o),
(518,582,o),
(523,552,cs),
(532,499,l)
);
},
{
closed = 1;
nodes = (
(24,-1,o),
(78,0,o),
(133,0,cs),
(197,0,o),
(261,-1,o),
(326,-6,c),
(332,31,l),
(289,36,o),
(216,51,o),
(216,59,c),
(220,87,o),
(228,132,o),
(245,214,cs),
(295,453,ls),
(312,533,o),
(323,579,o),
(336,627,c),
(191,628,l),
(184,578,o),
(176,533,o),
(159,453,cs),
(109,214,ls),
(92,132,o),
(80,87,o),
(71,59,cs),
(68,51,o),
(10,37,o),
(-25,31,c),
(-31,-6,l)
);
},
{
closed = 1;
nodes = (
(467,259,l),
(469,289,o),
(475,324,o),
(481,352,cs),
(487,380,o),
(495,409,o),
(504,437,c),
(474,437,l),
(466,419,o),
(452,397,o),
(435,376,c),
(390,374,o),
(343,373,o),
(298,373,cs),
(204,373,l),
(193,327,l),
(424,327,l),
(432,304,o),
(435,282,o),
(433,259,c)
);
}
);
width = 542;
}
);
metricLeft = "=H@245";
unicode = 70;
userData = {
KernOnName = F;
};
},
{
glyphname = G;
kernLeft = KO_O;
kernRight = KO_G;
lastChange = "2025-03-29 11:23:46 +0000";
layers = (
{
anchors = (
{
name = bottom;
pos = (381,0);
},
{
name = top;
pos = (489,646);
}
);
background = {
shapes = (
{
closed = 1;
nodes = (
(620,189,o),
(650,195,o),
(684,212,c),
(690,237,l),
(660,233,o),
(631,231,o),
(602,231,cs),
(570,231,o),
(538,233,o),
(507,237,c),
(501,212,l),
(528,197,o),
(559,189,o),
(593,189,cs)
);
}
);
};
layerId = m01;
shapes = (
{
closed = 1;
nodes = (
(468,-10,o),
(508,9,o),
(610,6,c),
(617,35,l),
(590,42,o),
(563,54,o),
(536,69,c),
(499,46,o),
(448,29,o),
(392,29,cs),
(270,29,o),
(155,123,o),
(155,270,cs),
(155,470,o),
(336,621,o),
(500,621,cs),
(558,621,o),
(609,606,o),
(646,578,c),
(652,543,o),
(649,509,o),
(642,474,c),
(680,474,l),
(692,511,o),
(707,577,o),
(707,614,cs),
(707,616,o),
(707,638,o),
(706,647,c),
(627,642,o),
(581,660,o),
(510,660,cs),
(320,660,o),
(64,513,o),
(64,273,cs),
(64,114,o),
(195,-10,o),
(386,-10,cs)
);
},
{
closed = 1;
nodes = (
(594,22,l),
(600,86,o),
(613,150,o),
(627,214,c),
(551,214,l),
(537,150,o),
(524,86,o),
(502,22,c)
);
},
{
closed = 1;
nodes = (
(621,185,l),
(641,197,o),
(664,206,o),
(685,211,c),
(689,235,l),
(658,232,o),
(627,231,o),
(597,231,cs),
(566,231,o),
(535,232,o),
(506,235,c),
(502,211,l),
(518,205,o),
(533,197,o),
(545,185,c)
);
}
);
width = 727;
},
{
anchors = (
{
name = bottom;
pos = (371,0);
},
{
name = top;
pos = (488,654);
}
);
background = {
shapes = (
{
closed = 1;
nodes = (
(618,173,o),
(649,180,o),
(683,196,c),
(692,240,l),
(660,236,o),
(631,234,o),
(600,234,cs),
(567,234,o),
(532,236,o),
(499,240,c),
(490,196,l),
(521,180,o),
(554,173,o),
(587,173,cs)
);
}
);
};
layerId = "66C19249-B420-404C-A3E7-B74793AC6646";
shapes = (
{
closed = 1;
nodes = (
(469,-10,o),
(510,9,o),
(613,6,c),
(619,35,l),
(596,50,o),
(572,77,o),
(541,84,c),
(506,63,o),
(457,46,o),
(401,46,cs),
(282,46,o),
(169,137,o),
(169,278,cs),
(169,469,o),
(345,612,o),
(504,612,cs),
(557,612,o),
(607,600,o),
(646,571,c),
(652,536,o),
(652,515,o),
(644,480,c),
(683,480,l),
(691,508,o),
(711,578,o),
(711,623,cs),
(711,640,o),
(710,646,o),
(710,655,c),
(630,650,o),
(584,668,o),
(512,668,cs),
(321,668,o),
(63,518,o),
(63,276,cs),
(63,116,o),
(194,-10,o),
(387,-10,cs)
);
},
{
closed = 1;
nodes = (
(600,22,l),
(606,87,o),
(620,152,o),
(634,217,c),
(549,217,l),
(535,152,o),
(521,87,o),
(499,22,c)
);
},
{
closed = 1;
nodes = (
(624,168,l),
(643,180,o),
(664,189,o),
(684,194,c),
(691,238,l),
(659,235,o),
(627,234,o),
(595,234,cs),
(562,234,o),
(530,235,o),
(498,238,c),
(491,194,l),
(507,188,o),
(525,180,o),
(538,168,c)
);
}
);
width = 738;
},
{
anchors = (
{
name = bottom;
pos = (332,0);
},
{
name = top;
pos = (455,646);
}
);
background = {
shapes = (
{
closed = 1;
nodes = (
(553,189,l),
(574,201,o),
(598,210,o),
(620,215,c),
(624,235,l),
(591,232,o),
(558,231,o),
(526,231,cs),
(495,231,o),
(462,232,o),
(431,235,c),
(427,215,l),
(446,209,o),
(466,201,o),
(482,189,c)
);
}
);
};
layerId = m004;
shapes = (
{
closed = 1;
nodes = (
(418,-10,o),
(455,9,o),
(545,6,c),
(550,26,l),
(527,41,o),
(498,46,o),
(466,48,c),
(435,29,o),
(389,15,o),
(342,15,cs),
(238,15,o),
(143,109,o),
(143,255,cs),
(143,470,o),
(315,635,o),
(459,635,cs),
(507,635,o),
(551,620,o),
(583,590,c),
(591,555,o),
(587,509,o),
(580,474,c),
(615,474,l),
(628,515,o),
(645,597,o),
(645,629,cs),
(645,635,o),
(645,641,o),
(645,647,c),
(575,642,o),
(534,660,o),
(472,660,cs),
(299,660,o),
(65,507,o),
(65,266,cs),
(65,111,o),
(177,-10,o),
(345,-10,cs)
);
},
{
closed = 1;
nodes = (
(525,22,l),
(531,86,o),
(544,150,o),
(558,214,c),
(488,214,l),
(474,150,o),
(461,86,o),
(439,22,c)
);
},
{
closed = 1;
nodes = (
(553,189,l),
(574,201,o),
(598,210,o),
(620,215,c),
(624,235,l),
(591,232,o),
(558,231,o),
(526,231,cs),
(495,231,o),
(462,232,o),
(431,235,c),
(427,215,l),
(447,209,o),
(467,201,o),
(483,189,c)
);
}
);
width = 652;
},
{
anchors = (
{
name = bottom;
pos = (395,0);
},
{
name = top;
pos = (503,646);
}
);
layerId = "427C505E-2C0B-4FBE-8765-228C251EA8A7";
shapes = (
{
closed = 1;
nodes = (
(471,-10,o),
(513,9,o),
(624,6,c),
(631,43,l),
(604,50,o),
(577,61,o),
(550,75,c),
(525,52,o),
(478,35,o),
(427,35,cs),
(315,35,o),
(209,127,o),
(209,270,cs),
(209,467,o),
(375,615,o),
(526,615,cs),
(577,615,o),
(620,600,o),
(654,572,c),
(660,539,o),
(657,507,o),
(650,474,c),
(694,474,l),
(706,511,o),
(721,577,o),
(721,614,cs),
(721,616,o),
(721,638,o),
(720,647,c),
(637,642,o),
(589,660,o),
(515,660,cs),
(316,660,o),
(48,513,o),
(48,273,cs),
(48,114,o),
(185,-10,o),
(385,-10,cs)
);
},
{
closed = 1;
nodes = (
(608,22,l),
(614,86,o),
(627,150,o),
(641,214,c),
(505,214,l),
(491,150,o),
(478,86,o),
(456,22,c)
);
},
{
closed = 1;
nodes = (
(632,172,l),
(652,184,o),
(675,193,o),
(696,198,c),
(700,235,l),
(669,232,o),
(638,231,o),
(608,231,cs),
(517,231,o),
(486,232,o),
(457,235,c),
(453,198,l),
(469,192,o),
(484,184,o),
(496,172,c)
);
}
);
width = 729;
}
);
metricLeft = O;
unicode = 71;
},
{
glyphname = H;
kernLeft = KO_H;
kernRight = KO_H;
lastChange = "2025-05-02 23:57:43 +0000";
layers = (
{
anchors = (
{
name = bottom;
pos = (338,0);
},
{
name = center;
pos = (407,323);
},
{
name = top;
pos = (476,646);
},
{
name = topleft;
pos = (80,646);
}
);
background = {
shapes = (
{
closed = 1;
nodes = (
(39,-1,o),
(75,0,o),
(111,0,cs),
(146,0,o),
(183,-1,o),
(217,-6,c),
(222,25,l),
(201,30,o),
(160,45,o),
(160,53,c),
(167,108,o),
(179,162,o),
(190,214,cs),
(233,419,ls),
(246,479,o),
(258,537,o),
(275,594,c),
(275,602,o),
(324,614,o),
(350,619,c),
(355,650,l),
(318,647,o),
(283,646,o),
(247,646,cs),
(211,646,o),
(176,647,o),
(141,650,c),
(136,619,l),
(156,613,o),
(191,602,o),
(190,594,cs),
(182,536,o),
(170,479,o),
(157,419,cs),
(114,214,ls),
(103,162,o),
(91,108,o),
(75,53,cs),
(73,45,o),
(30,31,o),
(7,25,c),
(2,-6,l)
);
},
{
closed = 1;
nodes = (
(624,297,l),
(633,338,l),
(181,338,l),
(172,297,l)
);
},
{
closed = 1;
nodes = (
(494,-1,o),
(530,0,o),
(566,0,cs),
(601,0,o),
(638,-1,o),
(672,-6,c),
(677,25,l),
(657,30,o),
(619,45,o),
(619,53,c),
(625,108,o),
(637,162,o),
(648,214,cs),
(691,419,ls),
(704,479,o),
(716,537,o),
(733,594,c),
(733,602,o),
(781,614,o),
(806,619,c),
(811,650,l),
(774,647,o),
(738,646,o),
(703,646,cs),
(667,646,o),
(631,647,o),
(596,650,c),
(591,619,l),
(611,613,o),
(649,602,o),
(648,594,cs),
(640,537,o),
(628,480,o),
(615,419,cs),
(572,214,ls),
(561,162,o),
(549,107,o),
(533,52,cs),
(531,44,o),
(486,31,o),
(462,25,c),
(457,-6,l)
);
}
);
};
layerId = m01;
shapes = (
{
closed = 1;
nodes = (
(39,-1,o),
(75,0,o),
(111,0,cs),
(146,0,o),
(183,-1,o),
(217,-6,c),
(222,25,l),
(201,30,o),
(160,45,o),
(160,53,c),
(169,107,o),
(179,160,o),
(190,214,cs),
(233,419,ls),
(245,477,o),
(258,536,o),
(275,594,c),
(275,602,o),
(324,614,o),
(350,619,c),
(355,650,l),
(318,647,o),
(283,646,o),
(247,646,cs),
(211,646,o),
(176,647,o),
(141,650,c),
(136,619,l),
(156,613,o),
(191,602,o),
(190,594,cs),
(181,536,o),
(169,477,o),
(157,419,cs),
(114,214,ls),
(103,160,o),
(91,107,o),
(75,53,cs),
(73,45,o),
(30,31,o),
(7,25,c),
(2,-6,l)
);
},
{
closed = 1;
nodes = (
(624,297,l),
(633,338,l),
(181,338,l),
(172,297,l)
);
},
{
closed = 1;
nodes = (
(494,-1,o),
(530,0,o),
(566,0,cs),
(601,0,o),
(638,-1,o),
(672,-6,c),
(677,25,l),
(657,30,o),
(619,45,o),
(619,53,c),
(627,107,o),
(637,160,o),
(648,214,cs),
(691,419,ls),
(703,477,o),
(716,536,o),
(733,594,c),
(733,602,o),
(781,614,o),
(806,619,c),
(811,650,l),
(774,647,o),
(738,646,o),
(703,646,cs),
(667,646,o),
(631,647,o),
(596,650,c),
(591,619,l),
(611,614,o),
(649,602,o),
(648,594,cs),
(639,536,o),
(627,477,o),
(615,419,cs),
(572,214,ls),
(561,160,o),
(549,106,o),
(533,52,cs),
(531,44,o),
(486,31,o),
(462,25,c),
(457,-6,l)
);
}
);
width = 766;
},
{
anchors = (
{
name = bottom;
pos = (342,0);
},
{
name = center;
pos = (412,327);
},
{
name = top;
pos = (481,654);
},
{
name = topleft;
pos = (67,654);
}
);
layerId = "66C19249-B420-404C-A3E7-B74793AC6646";
shapes = (
{
closed = 1;
nodes = (
(43,-1,o),
(79,0,o),
(115,0,cs),
(150,0,o),
(187,-1,o),
(221,-6,c),
(228,32,l),
(208,37,o),
(170,51,o),
(170,59,c),
(178,112,o),
(188,164,o),
(199,217,cs),
(243,424,ls),
(255,481,o),
(268,538,o),
(284,595,cs),
(286,603,o),
(331,615,o),
(354,620,c),
(360,658,l),
(324,655,o),
(289,654,o),
(253,654,cs),
(217,654,o),
(182,655,o),
(146,658,c),
(140,620,l),
(157,614,o),
(190,602,o),
(190,594,c),
(181,537,o),
(170,481,o),
(158,424,cs),
(114,217,ls),
(103,164,o),
(91,112,o),
(76,59,cs),
(74,51,o),
(34,38,o),
(13,32,c),
(6,-6,l)
);
},
{
closed = 1;
nodes = (
(628,294,l),
(640,350,l),
(188,350,l),
(176,294,l)
);
},
{
closed = 1;
nodes = (
(498,-1,o),
(534,0,o),
(570,0,cs),
(605,0,o),
(642,-1,o),
(676,-6,c),
(683,32,l),
(663,37,o),
(627,51,o),
(627,59,c),
(635,112,o),
(645,164,o),
(656,217,cs),
(700,424,ls),
(712,481,o),
(724,537,o),
(741,594,cs),
(743,602,o),
(786,615,o),
(810,620,c),
(816,658,l),
(780,655,o),
(745,654,o),
(709,654,cs),
(673,654,o),
(638,655,o),
(602,658,c),
(596,620,l),
(614,615,o),
(647,604,o),
(647,596,c),
(638,539,o),
(627,482,o),
(615,424,cs),
(571,217,ls),
(560,164,o),
(548,111,o),
(533,58,cs),
(531,50,o),
(490,38,o),
(468,32,c),
(461,-6,l)
);
}
);
width = 781;
},
{
anchors = (
{
name = bottom;
pos = (299,0);
},
{
name = center;
pos = (368,323);
},
{
name = top;
pos = (437,646);
},
{
name = topleft;
pos = (102,646);
}
);
layerId = m004;
shapes = (
{
closed = 1;
nodes = (
(39,-1,o),
(76,0,o),
(111,0,cs),
(146,0,o),
(183,-1,o),
(217,-6,c),
(222,17,l),
(199,22,o),
(159,37,o),
(159,45,c),
(165,103,o),
(177,159,o),
(189,214,cs),
(232,419,ls),
(245,482,o),
(258,542,o),
(277,601,cs),
(280,609,o),
(327,622,o),
(352,627,c),
(357,650,l),
(320,647,o),
(284,646,o),
(249,646,cs),
(213,646,o),
(176,647,o),
(142,650,c),
(137,627,l),
(158,621,o),
(195,609,o),
(195,601,c),
(187,541,o),
(175,482,o),
(162,419,cs),
(119,214,ls),
(107,159,o),
(94,102,o),
(76,45,cs),
(73,37,o),
(31,23,o),
(8,17,c),
(3,-6,l)
);
},
{
closed = 1;
nodes = (
(548,304,l),
(554,331,l),
(181,331,l),
(175,304,l)
);
},
{
closed = 1;
nodes = (
(416,-1,o),
(452,0,o),
(488,0,cs),
(523,0,o),
(560,-1,o),
(594,-6,c),
(599,17,l),
(576,22,o),
(536,37,o),
(536,45,c),
(543,104,o),
(555,163,o),
(566,214,cs),
(609,419,ls),
(622,481,o),
(635,541,o),
(654,601,cs),
(656,609,o),
(704,622,o),
(728,627,c),
(733,650,l),
(696,647,o),
(660,646,o),
(625,646,cs),
(589,646,o),
(552,647,o),
(518,650,c),
(513,627,l),
(535,621,o),
(573,610,o),
(573,602,c),
(564,542,o),
(552,482,o),
(539,419,cs),
(496,214,ls),
(484,159,o),
(471,102,o),
(454,44,cs),
(452,36,o),
(407,23,o),
(384,17,c),
(379,-6,l)
);
}
);
width = 679;
},
{
anchors = (
{
name = bottom;
pos = (352,0);
},
{
name = center;
pos = (421,323);
},
{
name = top;
pos = (490,646);
},
{
name = topleft;
pos = (94,646);
}
);
background = {
anchors = (
{
name = bottom;
pos = (134,0);
},
{
name = ogonek;
pos = (250,10);
},
{
name = top;
pos = (279,646);
},
{
name = topleft;
pos = (105,646);
}
);
shapes = (
{
closed = 1;
nodes = (
(37,-1,o),
(85,0,o),
(133,0,cs),
(180,0,o),
(228,-1,o),
(276,-6,c),
(282,31,l),
(246,36,o),
(216,51,o),
(216,59,c),
(223,111,o),
(232,154,o),
(245,214,cs),
(287,413,ls),
(299,470,o),
(311,525,o),
(328,587,cs),
(330,595,o),
(367,608,o),
(405,613,c),
(410,650,l),
(362,647,o),
(314,646,o),
(267,646,cs),
(219,646,o),
(171,647,o),
(123,650,c),
(118,613,l),
(154,608,o),
(183,596,o),
(183,588,c),
(175,528,o),
(165,479,o),
(151,413,cs),
(109,214,ls),
(98,162,o),
(87,113,o),
(71,59,cs),
(69,51,o),
(34,37,o),
(-5,31,c),
(-11,-6,l)
);
},
{
closed = 1;
nodes = (
(474,-1,o),
(522,0,o),
(570,0,cs),
(617,0,o),
(665,-1,o),
(713,-6,c),
(719,31,l),
(683,36,o),
(653,51,o),
(653,59,c),
(660,111,o),
(669,154,o),
(682,214,cs),
(724,413,ls),
(736,470,o),
(748,525,o),
(765,587,cs),
(767,595,o),
(804,608,o),
(842,613,c),
(847,650,l),
(799,647,o),
(751,646,o),
(704,646,cs),
(656,646,o),
(608,647,o),
(560,650,c),
(555,613,l),
(591,608,o),
(620,596,o),
(620,588,c),
(612,528,o),
(602,479,o),
(588,413,cs),
(546,214,ls),
(535,162,o),
(524,113,o),
(508,59,cs),
(506,51,o),
(471,37,o),
(432,31,c),
(426,-6,l)
);
}
);
};
layerId = "427C505E-2C0B-4FBE-8765-228C251EA8A7";
shapes = (
{
closed = 1;
nodes = (
(37,-1,o),
(85,0,o),
(133,0,cs),
(180,0,o),
(228,-1,o),
(276,-6,c),
(282,31,l),
(246,36,o),
(216,51,o),
(216,59,c),
(223,111,o),
(232,154,o),
(245,214,cs),
(287,413,ls),
(299,470,o),
(311,525,o),
(328,587,cs),
(330,595,o),
(367,608,o),
(405,613,c),
(410,650,l),
(362,647,o),
(314,646,o),
(267,646,cs),
(219,646,o),
(171,647,o),
(123,650,c),
(118,613,l),
(154,608,o),
(183,596,o),
(183,588,c),
(175,528,o),
(165,479,o),
(151,413,cs),
(109,214,ls),
(98,162,o),
(87,113,o),
(71,59,cs),
(69,51,o),
(34,37,o),
(-5,31,c),
(-11,-6,l)
);
},
{
closed = 1;
nodes = (
(637,294,l),
(648,341,l),
(196,341,l),
(185,294,l)
);
},
{
closed = 1;
nodes = (
(474,-1,o),
(522,0,o),
(570,0,cs),
(617,0,o),
(665,-1,o),
(713,-6,c),
(719,31,l),
(683,36,o),
(653,51,o),
(653,59,c),
(660,111,o),
(669,154,o),
(682,214,cs),
(724,413,ls),
(736,470,o),
(748,525,o),
(765,587,cs),
(767,595,o),
(804,608,o),
(842,613,c),
(847,650,l),
(799,647,o),
(751,646,o),
(704,646,cs),
(656,646,o),
(608,647,o),
(560,650,c),
(555,613,l),
(591,608,o),
(620,596,o),
(620,588,c),
(612,528,o),
(602,479,o),
(588,413,cs),
(546,214,ls),
(535,162,o),
(524,113,o),
(508,59,cs),
(506,51,o),
(471,37,o),
(432,31,c),
(426,-6,l)
);
}
);
width = 795;
}
);
unicode = 72;
userData = {
KernOnName = H;
};
},
{
glyphname = I;
kernLeft = KO_H;
kernRight = KO_H;
lastChange = "2025-05-02 23:57:54 +0000";
layers = (
{
anchors = (
{
name = bottom;
pos = (146,0);
},
{
name = ogonek;
pos = (252,10);
},
{
name = top;
pos = (275,646);
},
{
name = topleft;
pos = (117,646);
}
);
layerId = m01;
shapes = (
{
closed = 1;
nodes = (
(43,-1,o),
(95,0,o),
(146,0,cs),
(196,0,o),
(248,-1,o),
(298,-6,c),
(303,25,l),
(267,30,o),
(197,45,o),
(197,53,c),
(204,105,o),
(214,154,o),
(227,214,cs),
(269,413,ls),
(281,470,o),
(294,531,o),
(312,593,cs),
(314,601,o),
(389,614,o),
(427,619,c),
(432,650,l),
(380,647,o),
(328,646,o),
(278,646,cs),
(227,646,o),
(175,647,o),
(125,650,c),
(120,619,l),
(156,614,o),
(226,602,o),
(226,594,c),
(218,534,o),
(207,479,o),
(193,413,cs),
(151,214,ls),
(140,162,o),
(128,107,o),
(112,53,cs),
(110,45,o),
(35,31,o),
(-4,25,c),
(-9,-6,l)
);
}
);
width = 380;
},
{
anchors = (
{
name = bottom;
pos = (155,0);
},
{
name = ogonek;
pos = (257,10);
},
{
name = top;
pos = (294,654);
},
{
name = topleft;
pos = (109,654);
}
);
background = {
shapes = (
{
closed = 1;
nodes = (
(56,-1,o),
(106,0,o),
(155,0,cs),
(204,0,o),
(254,-1,o),
(302,-6,c),
(311,37,l),
(263,54,o),
(214,62,o),
(168,62,cs),
(122,62,o),
(71,54,o),
(15,37,c),
(6,-6,l)
);
},
{
closed = 1;
nodes = (
(330,593,o),
(382,601,o),
(434,617,c),
(444,661,l),
(394,657,o),
(343,654,o),
(294,654,cs),
(245,654,o),
(196,657,o),
(148,661,c),
(138,617,l),
(184,601,o),
(232,593,o),
(281,593,cs)
);
}
);
};
layerId = "66C19249-B420-404C-A3E7-B74793AC6646";
shapes = (
{
closed = 1;
nodes = (
(45,-1,o),
(98,0,o),
(149,0,cs),
(200,0,o),
(253,-1,o),
(303,-6,c),
(310,32,l),
(278,37,o),
(215,51,o),
(215,59,c),
(221,111,o),
(231,160,o),
(243,217,cs),
(286,418,ls),
(299,477,o),
(312,535,o),
(329,594,cs),
(331,602,o),
(407,615,o),
(447,620,c),
(453,658,l),
(400,655,o),
(346,654,o),
(294,654,cs),
(241,654,o),
(187,655,o),
(134,658,c),
(128,620,l),
(163,614,o),
(230,602,o),
(230,594,c),
(222,534,o),
(209,472,o),
(197,418,cs),
(154,217,ls),
(142,161,o),
(131,111,o),
(117,60,cs),
(115,52,o),
(39,38,o),
(0,32,c),
(-7,-6,l)
);
}
);
width = 410;
},
{
anchors = (
{
name = bottom;
pos = (142,0);
},
{
name = ogonek;
pos = (241,10);
},
{
name = top;
pos = (278,646);
},
{
name = topleft;
pos = (134,646);
}
);
background = {
shapes = (
{
closed = 1;
nodes = (
(43,-1,o),
(93,0,o),
(142,0,cs),
(191,0,o),
(241,-1,o),
(289,-6,c),
(293,13,l),
(245,30,o),
(196,38,o),
(150,38,cs),
(104,38,o),
(53,30,o),
(-3,13,c),
(-7,-6,l)
);
},
{
closed = 1;
nodes = (
(318,609,o),
(369,616,o),
(425,633,c),
(429,653,l),
(379,649,o),
(329,646,o),
(280,646,cs),
(231,646,o),
(181,649,o),
(133,653,c),
(129,633,l),
(177,616,o),
(227,609,o),
(272,609,cs)
);
}
);
};
layerId = m004;
shapes = (
{
closed = 1;
nodes = (
(42,-1,o),
(91,0,o),
(140,0,cs),
(188,0,o),
(237,-1,o),
(284,-6,c),
(289,17,l),
(255,22,o),
(190,37,o),
(190,45,c),
(197,101,o),
(208,153,o),
(221,214,cs),
(263,413,ls),
(276,473,o),
(290,536,o),
(309,601,cs),
(311,609,o),
(382,622,o),
(418,627,c),
(423,650,l),
(373,647,o),
(324,646,o),
(277,646,cs),
(228,646,o),
(179,647,o),
(133,650,c),
(128,627,l),
(162,621,o),
(226,609,o),
(226,601,c),
(219,539,o),
(208,482,o),
(193,413,cs),
(151,214,ls),
(139,158,o),
(127,102,o),
(109,45,cs),
(107,37,o),
(35,23,o),
(-2,17,c),
(-7,-6,l)
);
}
);
width = 363;
},
{
anchors = (
{
name = bottom;
pos = (156,0);
},
{
name = ogonek;
pos = (272,10);
},
{
name = top;
pos = (290,646);
},
{
name = topleft;
pos = (127,646);
}
);
layerId = "427C505E-2C0B-4FBE-8765-228C251EA8A7";
shapes = (
{
closed = 1;
nodes = (
(39,-1,o),
(97,0,o),
(155,0,cs),
(212,0,o),
(270,-1,o),
(328,-6,c),
(334,31,l),
(298,36,o),
(238,51,o),
(238,59,c),
(245,111,o),
(254,154,o),
(267,214,cs),
(309,413,ls),
(321,470,o),
(333,525,o),
(350,587,cs),
(352,595,o),
(419,608,o),
(457,613,c),
(462,650,l),
(404,647,o),
(346,646,o),
(289,646,cs),
(231,646,o),
(173,647,o),
(115,650,c),
(110,613,l),
(146,608,o),
(205,596,o),
(205,588,c),
(197,528,o),
(187,479,o),
(173,413,cs),
(131,214,ls),
(120,162,o),
(109,113,o),
(93,59,cs),
(91,51,o),
(26,37,o),
(-13,31,c),
(-19,-6,l)
);
}
);
width = 405;
}
);
metricLeft = "=H*0.75";
metricRight = "=H*0.75";
unicode = 73;
userData = {
KernOnName = I;
};
},
{
glyphname = J;
kernLeft = KO_J;
kernRight = KO_J;
lastChange = "2025-05-02 23:59:49 +0000";
layers = (
{
anchors = (
{
name = bottom;
pos = (109,0);
},
{
name = top;
pos = (246,646);
}
);
layerId = m01;
shapes = (
{
closed = 1;
nodes = (
(-21,-180,o),
(34,-163,o),
(76,-121,cs),
(126,-71,o),
(142,-10,o),
(156,56,cs),
(233,419,ls),
(246,478,o),
(259,536,o),
(275,593,cs),
(277,601,o),
(351,614,o),
(389,619,c),
(394,650,l),
(342,647,o),
(290,646,o),
(240,646,cs),
(189,646,o),
(137,647,o),
(87,650,c),
(82,619,l),
(118,613,o),
(189,601,o),
(189,593,c),
(182,538,o),
(170,478,o),
(157,419,cs),
(80,56,ls),
(55,-62,o),
(13,-141,o),
(-48,-141,cs),
(-66,-141,o),
(-90,-135,o),
(-99,-103,c),
(-163,-160,l),
(-133,-173,o),
(-102,-180,o),
(-71,-180,cs)
);
}
);
width = 308;
},
{
anchors = (
{
name = bottom;
pos = (112,0);
},
{
name = top;
pos = (251,654);
}
);
layerId = "66C19249-B420-404C-A3E7-B74793AC6646";
shapes = (
{
closed = 1;
nodes = (
(-22,-182,o),
(36,-167,o),
(81,-121,cs),
(128,-73,o),
(150,-14,o),
(165,57,cs),
(243,424,ls),
(255,481,o),
(267,537,o),
(283,594,cs),
(285,602,o),
(363,615,o),
(404,620,c),
(410,658,l),
(357,655,o),
(303,654,o),
(251,654,cs),
(198,654,o),
(144,655,o),
(91,658,c),
(85,620,l),
(122,614,o),
(189,603,o),
(189,595,c),
(181,538,o),
(170,481,o),
(158,424,cs),
(80,57,ls),
(56,-56,o),
(23,-127,o),
(-33,-127,cs),
(-47,-127,o),
(-70,-122,o),
(-77,-88,c),
(-159,-162,l),
(-129,-175,o),
(-98,-182,o),
(-67,-182,cs)
);
}
);
width = 324;
},
{
anchors = (
{
name = bottom;
pos = (110,0);
},
{
name = top;
pos = (247,646);
}
);
layerId = m004;
shapes = (
{
closed = 1;
nodes = (
(-13,-180,o),
(40,-158,o),
(77,-121,cs),
(114,-84,o),
(134,-42,o),
(155,56,cs),
(232,419,ls),
(245,481,o),
(260,540,o),
(276,601,cs),
(278,609,o),
(351,622,o),
(387,627,c),
(392,650,l),
(342,647,o),
(293,646,o),
(246,646,cs),
(197,646,o),
(148,647,o),
(102,650,c),
(97,627,l),
(131,621,o),
(195,609,o),
(195,601,c),
(187,540,o),
(175,481,o),
(162,419,cs),
(85,56,ls),
(55,-85,o),
(8,-155,o),
(-49,-155,cs),
(-81,-155,o),
(-100,-142,o),
(-109,-114,c),
(-161,-160,l),
(-131,-173,o),
(-99,-180,o),
(-69,-180,cs)
);
}
);
width = 302;
},
{
anchors = (
{
name = bottom;
pos = (129,0);
},
{
name = top;
pos = (266,646);
}
);
layerId = "427C505E-2C0B-4FBE-8765-228C251EA8A7";
shapes = (
{
closed = 1;
nodes = (
(-13,-180,o),
(68,-163,o),
(113,-121,cs),
(166,-71,o),
(197,-10,o),
(211,56,cs),
(288,419,ls),
(300,475,o),
(312,531,o),
(328,587,cs),
(330,595,o),
(405,608,o),
(443,613,c),
(449,650,l),
(388,647,o),
(327,646,o),
(266,646,cs),
(204,646,o),
(143,647,o),
(82,650,c),
(76,613,l),
(112,607,o),
(183,595,o),
(183,587,c),
(176,531,o),
(164,475,o),
(152,419,cs),
(75,56,ls),
(51,-59,o),
(19,-135,o),
(-37,-135,cs),
(-57,-135,o),
(-83,-129,o),
(-93,-97,c),
(-163,-160,l),
(-131,-173,o),
(-99,-180,o),
(-66,-180,cs)
);
}
);
width = 358;
}
);
metricLeft = "=H@245";
metricRight = "=H@245";
unicode = 74;
},
{
glyphname = K;
kernLeft = KO_H;
kernRight = KO_K;
lastChange = "2025-05-03 00:02:20 +0000";
layers = (
{
anchors = (
{
name = bottom;
pos = (274,0);
},
{
name = top;
pos = (412,646);
}
);
layerId = m01;
shapes = (
{
closed = 1;
nodes = (
(571,-11,o),
(592,-7,o),
(611,-2,c),
(618,31,l),
(598,30,o),
(576,33,o),
(562,47,cs),
(478,129,o),
(388,250,o),
(339,360,c),
(630,593,ls),
(640,601,o),
(694,614,o),
(726,619,c),
(731,650,l),
(688,647,o),
(646,646,o),
(604,646,cs),
(562,646,o),
(520,647,o),
(479,650,c),
(474,619,l),
(504,613,o),
(560,601,o),
(560,593,c),
(522,555,o),
(477,517,o),
(435,483,cs),
(350,415,ls),
(285,363,o),
(259,343,o),
(216,336,c),
(233,419,ls),
(251,505,o),
(262,552,o),
(275,593,cs),
(277,601,o),
(328,614,o),
(355,619,c),
(360,650,l),
(322,647,o),
(283,646,o),
(246,646,cs),
(209,646,o),
(170,647,o),
(134,650,c),
(129,619,l),
(151,613,o),
(190,601,o),
(190,593,c),
(184,551,o),
(174,501,o),
(157,419,cs),
(114,214,ls),
(97,135,o),
(86,90,o),
(75,52,cs),
(73,44,o),
(25,31,o),
(1,25,c),
(-4,-6,l),
(34,-1,o),
(73,0,o),
(110,0,cs),
(147,0,o),
(186,-1,o),
(222,-6,c),
(227,25,l),
(204,30,o),
(160,45,o),
(160,53,c),
(165,91,o),
(174,137,o),
(190,214,cs),
(207,296,l),
(255,294,o),
(284,285,o),
(314,232,cs),
(365,141,o),
(452,-11,o),
(555,-11,cs)
);
}
);
width = 680;
},
{
anchors = (
{
name = bottom;
pos = (273,0);
},
{
name = top;
pos = (412,654);
}
);
layerId = "66C19249-B420-404C-A3E7-B74793AC6646";
shapes = (
{
closed = 1;
nodes = (
(578,-11,o),
(601,-8,o),
(626,-2,c),
(635,41,l),
(587,40,o),
(557,54,o),
(535,80,cs),
(483,142,o),
(401,258,o),
(353,365,c),
(635,594,ls),
(645,602,o),
(698,615,o),
(730,620,c),
(736,658,l),
(694,655,o),
(652,654,o),
(610,654,cs),
(568,654,o),
(526,655,o),
(484,658,c),
(478,620,l),
(503,614,o),
(551,602,o),
(551,594,c),
(509,553,o),
(462,513,o),
(433,489,cs),
(348,420,ls),
(286,369,o),
(262,350,o),
(225,341,c),
(243,424,ls),
(261,505,o),
(272,554,o),
(284,595,cs),
(286,603,o),
(335,615,o),
(361,620,c),
(367,658,l),
(329,655,o),
(291,654,o),
(253,654,cs),
(215,654,o),
(177,655,o),
(139,658,c),
(133,620,l),
(154,614,o),
(190,603,o),
(190,595,c),
(184,549,o),
(173,496,o),
(158,424,cs),
(114,217,ls),
(98,141,o),
(87,96,o),
(77,60,cs),
(75,52,o),
(31,38,o),
(8,32,c),
(1,-6,l),
(39,-1,o),
(78,0,o),
(115,0,cs),
(152,0,o),
(191,-1,o),
(227,-6,c),
(234,32,l),
(212,37,o),
(170,52,o),
(170,60,c),
(175,97,o),
(182,141,o),
(199,217,cs),
(217,299,l),
(264,297,o),
(287,284,o),
(317,231,cs),
(370,137,o),
(454,-11,o),
(555,-11,cs)
);
}
);
width = 700;
},
{
anchors = (
{
name = bottom;
pos = (260,0);
},
{
name = top;
pos = (398,646);
}
);
layerId = m004;
shapes = (
{
closed = 1;
nodes = (
(527,-10,o),
(546,-7,o),
(563,-1,c),
(568,22,l),
(553,20,o),
(539,24,o),
(515,52,cs),
(438,142,o),
(365,258,o),
(326,366,c),
(595,601,ls),
(605,609,o),
(653,622,o),
(681,627,c),
(686,650,l),
(647,647,o),
(608,646,o),
(571,646,cs),
(533,646,o),
(494,647,o),
(458,650,c),
(453,627,l),
(484,621,o),
(540,609,o),
(540,601,c),
(503,561,o),
(465,523,o),
(418,483,cs),
(339,415,ls),
(278,362,o),
(252,340,o),
(213,330,c),
(232,419,ls),
(251,506,o),
(263,558,o),
(276,601,cs),
(278,609,o),
(324,622,o),
(347,627,c),
(352,650,l),
(317,647,o),
(282,646,o),
(249,646,cs),
(215,646,o),
(180,647,o),
(147,650,c),
(142,627,l),
(162,621,o),
(196,609,o),
(196,601,c),
(191,562,o),
(181,511,o),
(162,419,cs),
(119,214,ls),
(101,130,o),
(90,84,o),
(78,45,cs),
(75,37,o),
(34,23,o),
(12,17,c),
(7,-6,l),
(42,-1,o),
(77,0,o),
(111,0,cs),
(144,0,o),
(179,-1,o),
(212,-6,c),
(217,17,l),
(195,22,o),
(157,37,o),
(157,45,c),
(163,83,o),
(171,126,o),
(189,214,cs),
(207,302,l),
(253,299,o),
(276,286,o),
(303,233,cs),
(352,136,o),
(426,-10,o),
(515,-10,cs)
);
}
);
width = 627;
},
{
anchors = (
{
name = bottom;
pos = (311,0);
},
{
name = top;
pos = (449,646);
}
);
layerId = "427C505E-2C0B-4FBE-8765-228C251EA8A7";
shapes = (
{
closed = 1;
nodes = (
(599,-11,o),
(625,-7,o),
(648,-2,c),
(659,50,l),
(641,49,o),
(621,54,o),
(609,66,cs),
(531,149,o),
(450,268,o),
(407,378,c),
(667,587,ls),
(677,595,o),
(730,608,o),
(762,613,c),
(768,650,l),
(725,647,o),
(683,646,o),
(641,646,cs),
(599,646,o),
(557,647,o),
(516,650,c),
(510,613,l),
(540,607,o),
(586,595,o),
(586,587,c),
(548,549,o),
(509,517,o),
(467,483,cs),
(382,415,ls),
(328,372,o),
(302,352,o),
(272,341,c),
(287,413,ls),
(299,470,o),
(311,525,o),
(328,587,cs),
(330,595,o),
(367,608,o),
(405,613,c),
(410,650,l),
(362,647,o),
(314,646,o),
(267,646,cs),
(219,646,o),
(171,647,o),
(123,650,c),
(118,613,l),
(154,608,o),
(183,596,o),
(183,588,c),
(175,528,o),
(165,479,o),
(151,413,cs),
(109,214,ls),
(98,162,o),
(87,113,o),
(71,59,cs),
(69,51,o),
(34,37,o),
(-5,31,c),
(-11,-6,l),
(37,-1,o),
(85,0,o),
(133,0,cs),
(180,0,o),
(228,-1,o),
(276,-6,c),
(282,31,l),
(246,36,o),
(216,51,o),
(216,59,c),
(223,111,o),
(232,154,o),
(245,214,cs),
(262,293,l),
(283,287,o),
(302,271,o),
(325,232,cs),
(379,141,o),
(470,-11,o),
(579,-11,cs)
);
}
);
width = 715;
}
);
metricLeft = "=H@245";
metricRight = A;
unicode = 75;
userData = {
KernOnName = K;
};
},
{
glyphname = L;
kernLeft = KO_H;
kernRight = KO_L;
lastChange = "2025-05-03 00:02:34 +0000";
layers = (
{
anchors = (
{
name = bottom;
pos = (206,0);
},
{
name = center;
pos = (275,323);
},
{
name = top;
pos = (344,646);
},
{
name = topright;
pos = (607,646);
}
);
layerId = m01;
shapes = (
{
closed = 1;
nodes = (
(163,22,l),
(165,62,o),
(172,105,o),
(195,214,cs),
(237,413,ls),
(256,505,o),
(267,552,o),
(280,593,cs),
(282,601,o),
(352,614,o),
(388,619,c),
(393,650,l),
(349,647,o),
(305,646,o),
(263,646,cs),
(220,646,o),
(176,647,o),
(134,650,c),
(129,619,l),
(151,613,o),
(189,602,o),
(189,594,c),
(184,554,o),
(176,506,o),
(156,413,cs),
(114,214,ls),
(93,114,o),
(80,65,o),
(65,22,c)
);
},
{
closed = 1;
nodes = (
(500,122,l),
(467,122,l),
(423,81,ls),
(390,50,o),
(353,41,o),
(308,41,cs),
(139,41,l),
(85,58,l),
(58,43,o),
(27,32,o),
(-1,25,c),
(-7,-6,l),
(29,-1,o),
(63,0,o),
(105,0,cs),
(265,0,o),
(323,-2,o),
(419,-11,c)
);
}
);
width = 540;
},
{
anchors = (
{
name = bottom;
pos = (199,0);
},
{
name = center;
pos = (269,327);
},
{
name = top;
pos = (338,654);
},
{
name = topright;
pos = (609,654);
}
);
layerId = "66C19249-B420-404C-A3E7-B74793AC6646";
shapes = (
{
closed = 1;
nodes = (
(167,22,l),
(169,65,o),
(176,109,o),
(199,217,cs),
(242,418,ls),
(261,507,o),
(272,556,o),
(284,594,cs),
(287,602,o),
(354,615,o),
(389,620,c),
(395,658,l),
(352,655,o),
(308,654,o),
(266,654,cs),
(223,654,o),
(179,655,o),
(136,658,c),
(130,620,l),
(152,614,o),
(190,603,o),
(190,595,c),
(185,556,o),
(176,507,o),
(157,418,cs),
(114,217,ls),
(90,104,o),
(78,60,o),
(65,22,c)
);
},
{
closed = 1;
nodes = (
(501,123,l),
(462,123,l),
(424,87,ls),
(403,67,o),
(369,57,o),
(305,57,cs),
(144,57,l),
(88,66,l),
(61,50,o),
(30,39,o),
(2,32,c),
(-5,-6,l),
(28,-2,o),
(60,0,o),
(106,0,cs),
(267,0,o),
(325,-2,o),
(421,-11,c)
);
}
);
width = 554;
},
{
anchors = (
{
name = bottom;
pos = (192,0);
},
{
name = center;
pos = (261,323);
},
{
name = top;
pos = (330,646);
},
{
name = topright;
pos = (558,646);
}
);
layerId = m004;
shapes = (
{
closed = 1;
nodes = (
(156,22,l),
(159,61,o),
(165,100,o),
(189,214,cs),
(231,413,ls),
(252,511,o),
(263,558,o),
(276,601,cs),
(278,609,o),
(352,622,o),
(388,627,c),
(393,650,l),
(349,647,o),
(305,646,o),
(263,646,cs),
(219,646,o),
(175,647,o),
(134,650,c),
(129,627,l),
(153,621,o),
(195,609,o),
(195,601,c),
(190,560,o),
(182,512,o),
(161,413,cs),
(119,214,ls),
(98,114,o),
(85,65,o),
(70,22,c)
);
},
{
closed = 1;
nodes = (
(451,122,l),
(423,122,l),
(385,81,ls),
(347,40,o),
(311,27,o),
(268,27,cs),
(136,27,l),
(78,45,l),
(52,32,o),
(25,23,o),
(-2,17,c),
(-7,-6,l),
(29,-1,o),
(63,0,o),
(104,0,cs),
(217,0,o),
(275,-2,o),
(371,-11,c)
);
}
);
width = 486;
},
{
anchors = (
{
name = bottom;
pos = (226,0);
},
{
name = center;
pos = (315,323);
},
{
name = top;
pos = (374,646);
},
{
name = topright;
pos = (627,646);
}
);
background = {
guides = (
{
angle = 78.0823;
pos = (308,314);
}
);
shapes = (
{
closed = 1;
nodes = (
(207,19,l),
(214,71,o),
(223,114,o),
(236,174,cs),
(287,413,ls),
(299,470,o),
(311,525,o),
(328,587,cs),
(330,595,o),
(398,608,o),
(436,613,c),
(441,650,l),
(389,647,o),
(337,646,o),
(285,646,cs),
(232,646,o),
(180,647,o),
(128,650,c),
(123,613,l),
(146,608,o),
(183,596,o),
(183,588,c),
(175,528,o),
(165,479,o),
(151,413,cs),
(100,174,ls),
(89,122,o),
(78,73,o),
(62,19,c)
);
}
);
};
layerId = "427C505E-2C0B-4FBE-8765-228C251EA8A7";
shapes = (
{
closed = 1;
nodes = (
(207,19,l),
(214,71,o),
(223,114,o),
(236,174,cs),
(287,413,ls),
(299,470,o),
(311,525,o),
(328,587,cs),
(330,595,o),
(398,608,o),
(436,613,c),
(441,650,l),
(389,647,o),
(337,646,o),
(285,646,cs),
(232,646,o),
(180,647,o),
(128,650,c),
(123,613,l),
(146,608,o),
(183,596,o),
(183,588,c),
(175,528,o),
(165,479,o),
(151,413,cs),
(100,174,ls),
(89,122,o),
(78,73,o),
(62,19,c)
);
},
{
closed = 1;
nodes = (
(525,122,l),
(486,122,l),
(448,81,ls),
(419,50,o),
(383,47,o),
(338,47,cs),
(128,47,l),
(75,64,l),
(48,49,o),
(17,38,o),
(-11,31,c),
(-18,-6,l),
(18,-1,o),
(52,0,o),
(94,0,cs),
(254,0,o),
(348,-2,o),
(444,-11,c)
);
}
);
width = 559;
}
);
metricLeft = "=H@245";
unicode = 76;
userData = {
KernOnName = L;
};
},
{
glyphname = Lslash;
kernLeft = KO_H;
kernRight = KO_L;
lastChange = "2025-05-03 00:02:54 +0000";
layers = (
{
background = {
anchors = (
{
name = bottom;
pos = (206,0);
},
{
name = center;
pos = (275,323);
},
{
name = top;
pos = (344,646);
},
{
name = topright;
pos = (607,646);
}
);
shapes = (
{
closed = 1;
nodes = (
(163,22,l),
(165,62,o),
(172,105,o),
(195,214,cs),
(237,413,ls),
(256,505,o),
(267,552,o),
(280,593,cs),
(282,601,o),
(352,614,o),
(388,619,c),
(393,650,l),
(349,647,o),
(305,646,o),
(263,646,cs),
(220,646,o),
(176,647,o),
(134,650,c),
(129,619,l),
(151,613,o),
(189,602,o),
(189,594,c),
(184,554,o),
(175,506,o),
(156,413,cs),
(114,214,ls),
(93,114,o),
(80,65,o),
(65,22,c)
);
},
{
closed = 1;
nodes = (
(500,122,l),
(467,122,l),
(423,81,ls),
(390,50,o),
(353,41,o),
(308,41,cs),
(139,41,l),
(85,58,l),
(58,43,o),
(27,32,o),
(-1,25,c),
(-7,-6,l),
(29,-1,o),
(63,0,o),
(105,0,cs),
(265,0,o),
(323,-2,o),
(419,-11,c)
);
}
);
};
layerId = m01;
shapes = (
{
closed = 1;
nodes = (
(163,22,l),
(165,62,o),
(172,105,o),
(195,214,cs),
(237,413,ls),
(256,505,o),
(267,552,o),
(280,593,cs),
(282,601,o),
(352,614,o),
(388,619,c),
(393,650,l),
(349,647,o),
(305,646,o),
(263,646,cs),
(220,646,o),
(176,647,o),
(134,650,c),
(129,619,l),
(151,613,o),
(189,602,o),
(189,594,c),
(184,554,o),
(176,506,o),
(156,413,cs),
(114,214,ls),
(93,114,o),
(80,65,o),
(65,22,c)
);
},
{
closed = 1;
nodes = (
(500,122,l),
(467,122,l),
(423,81,ls),
(390,50,o),
(353,41,o),
(308,41,cs),
(139,41,l),
(85,58,l),
(58,43,o),
(27,32,o),
(-1,25,c),
(-7,-6,l),
(29,-1,o),
(63,0,o),
(105,0,cs),
(265,0,o),
(323,-2,o),
(419,-11,c)
);
},
{
closed = 1;
nodes = (
(419,412,l),
(430,463,l),
(342,413,o),
(270,373,o),
(180,326,cs),
(136,303,o),
(101,287,o),
(50,264,c),
(40,217,l)
);
}
);
width = 540;
},
{
background = {
anchors = (
{
name = bottom;
pos = (198,0);
},
{
name = center;
pos = (268,327);
},
{
name = top;
pos = (337,654);
},
{
name = topright;
pos = (608,654);
}
);
shapes = (
{
closed = 1;
nodes = (
(166,22,l),
(168,65,o),
(175,109,o),
(198,217,cs),
(241,418,ls),
(260,507,o),
(271,556,o),
(283,594,cs),
(286,602,o),
(353,615,o),
(388,620,c),
(394,658,l),
(351,655,o),
(307,654,o),
(265,654,cs),
(222,654,o),
(178,655,o),
(135,658,c),
(129,620,l),
(151,614,o),
(189,603,o),
(189,595,c),
(184,556,o),
(175,507,o),
(156,418,cs),
(113,217,ls),
(89,104,o),
(77,60,o),
(64,22,c)
);
},
{
closed = 1;
nodes = (
(500,123,l),
(461,123,l),
(423,87,ls),
(402,67,o),
(368,57,o),
(304,57,cs),
(143,57,l),
(87,66,l),
(60,50,o),
(29,39,o),
(1,32,c),
(-6,-6,l),
(27,-2,o),
(59,0,o),
(105,0,cs),
(266,0,o),
(324,-2,o),
(420,-11,c)
);
}
);
};
layerId = "66C19249-B420-404C-A3E7-B74793AC6646";
shapes = (
{
closed = 1;
nodes = (
(166,22,l),
(168,65,o),
(175,109,o),
(198,217,cs),
(241,418,ls),
(260,507,o),
(271,556,o),
(283,594,cs),
(286,602,o),
(353,615,o),
(388,620,c),
(394,658,l),
(351,655,o),
(307,654,o),
(265,654,cs),
(222,654,o),
(178,655,o),
(135,658,c),
(129,620,l),
(151,614,o),
(189,603,o),
(189,595,c),
(184,556,o),
(175,507,o),
(156,418,cs),
(113,217,ls),
(89,104,o),
(77,60,o),
(64,22,c)
);
},
{
closed = 1;
nodes = (
(500,123,l),
(461,123,l),
(423,87,ls),
(402,67,o),
(368,57,o),
(304,57,cs),
(143,57,l),
(87,66,l),
(60,50,o),
(29,39,o),
(1,32,c),
(-6,-6,l),
(27,-2,o),
(59,0,o),
(105,0,cs),
(266,0,o),
(324,-2,o),
(420,-11,c)
);
},
{
closed = 1;
nodes = (
(413,404,l),
(426,466,l),
(344,419,o),
(261,373,o),
(181,331,cs),
(137,308,o),
(103,292,o),
(51,269,c),
(39,211,l)
);
}
);
width = 553;
},
{
background = {
anchors = (
{
name = bottom;
pos = (191,0);
},
{
name = center;
pos = (260,323);
},
{
name = top;
pos = (329,646);
},
{
name = topright;
pos = (557,646);
}
);
shapes = (
{
closed = 1;
nodes = (
(155,22,l),
(158,61,o),
(164,100,o),
(188,214,cs),
(230,413,ls),
(251,511,o),
(262,558,o),
(275,601,cs),
(277,609,o),
(351,622,o),
(387,627,c),
(392,650,l),
(348,647,o),
(304,646,o),
(262,646,cs),
(218,646,o),
(174,647,o),
(133,650,c),
(128,627,l),
(152,621,o),
(194,609,o),
(194,601,c),
(189,560,o),
(181,512,o),
(160,413,cs),
(118,214,ls),
(97,114,o),
(84,65,o),
(69,22,c)
);
},
{
closed = 1;
nodes = (
(450,122,l),
(422,122,l),
(384,81,ls),
(346,40,o),
(310,27,o),
(267,27,cs),
(135,27,l),
(77,45,l),
(51,32,o),
(24,23,o),
(-3,17,c),
(-8,-6,l),
(28,-1,o),
(62,0,o),
(103,0,cs),
(216,0,o),
(274,-2,o),
(370,-11,c)
);
}
);
};
layerId = m004;
shapes = (
{
closed = 1;
nodes = (
(155,22,l),
(158,61,o),
(164,100,o),
(188,214,cs),
(230,413,ls),
(251,511,o),
(262,558,o),
(275,601,cs),
(277,609,o),
(351,622,o),
(387,627,c),
(392,650,l),
(348,647,o),
(304,646,o),
(262,646,cs),
(218,646,o),
(174,647,o),
(133,650,c),
(128,627,l),
(152,621,o),
(194,609,o),
(194,601,c),
(189,560,o),
(181,512,o),
(160,413,cs),
(118,214,ls),
(97,114,o),
(84,65,o),
(69,22,c)
);
},
{
closed = 1;
nodes = (
(450,122,l),
(422,122,l),
(384,81,ls),
(346,40,o),
(310,27,o),
(267,27,cs),
(135,27,l),
(77,45,l),
(51,32,o),
(24,23,o),
(-3,17,c),
(-8,-6,l),
(28,-1,o),
(62,0,o),
(103,0,cs),
(216,0,o),
(274,-2,o),
(370,-11,c)
);
},
{
closed = 1;
nodes = (
(386,408,l),
(396,453,l),
(322,409,o),
(268,380,o),
(179,333,cs),
(137,311,o),
(102,295,o),
(51,272,c),
(42,231,l)
);
}
);
width = 485;
},
{
layerId = "427C505E-2C0B-4FBE-8765-228C251EA8A7";
shapes = (
{
closed = 1;
nodes = (
(206,19,l),
(213,71,o),
(222,114,o),
(235,174,cs),
(286,413,ls),
(298,470,o),
(310,525,o),
(327,587,cs),
(329,595,o),
(397,608,o),
(435,613,c),
(440,650,l),
(388,647,o),
(336,646,o),
(284,646,cs),
(231,646,o),
(179,647,o),
(127,650,c),
(122,613,l),
(145,608,o),
(182,596,o),
(182,588,c),
(174,528,o),
(164,479,o),
(150,413,cs),
(99,174,ls),
(88,122,o),
(77,73,o),
(61,19,c)
);
},
{
closed = 1;
nodes = (
(524,122,l),
(485,122,l),
(447,81,ls),
(418,50,o),
(382,47,o),
(337,47,cs),
(127,47,l),
(74,64,l),
(47,49,o),
(16,38,o),
(-12,31,c),
(-19,-6,l),
(17,-1,o),
(51,0,o),
(93,0,cs),
(253,0,o),
(347,-2,o),
(443,-11,c)
);
},
{
closed = 1;
nodes = (
(405,406,l),
(419,466,l),
(331,416,o),
(259,376,o),
(169,329,cs),
(125,306,o),
(90,290,o),
(39,267,c),
(26,211,l)
);
}
);
width = 558;
}
);
metricLeft = "=H@100";
metricRight = L;
unicode = 321;
},
{
glyphname = M;
kernLeft = KO_M;
kernRight = KO_M;
lastChange = "2025-05-03 00:03:54 +0000";
layers = (
{
anchors = (
{
name = bottom;
pos = (391,0);
},
{
name = top;
pos = (529,646);
}
);
layerId = m01;
shapes = (
{
closed = 1;
nodes = (
(15,-1,o),
(52,0,o),
(88,0,cs),
(124,0,o),
(161,-1,o),
(196,-6,c),
(201,25,l),
(171,30,o),
(114,45,o),
(114,53,c),
(143,152,o),
(175,247,o),
(212,355,cs),
(294,597,l),
(258,559,l),
(366,19,l),
(423,19,l),
(539,192,o),
(656,361,o),
(782,533,c),
(770,537,l),
(764,494,o),
(758,454,o),
(750,412,cs),
(714,213,ls),
(704,158,o),
(693,106,o),
(678,53,cs),
(676,45,o),
(619,31,o),
(589,25,c),
(584,-6,l),
(626,-1,o),
(668,0,o),
(709,0,cs),
(750,0,o),
(792,-1,o),
(832,-6,c),
(837,25,l),
(814,30,o),
(770,45,o),
(771,53,cs),
(776,104,o),
(784,158,o),
(793,215,cs),
(826,414,ls),
(837,481,o),
(848,545,o),
(865,608,c),
(891,615,o),
(917,619,o),
(943,622,c),
(949,653,l),
(912,648,o),
(875,646,o),
(840,646,cs),
(833,646,o),
(826,646,o),
(819,647,c),
(423,96,l),
(448,96,l),
(410,228,o),
(387,329,o),
(370,418,cs),
(326,647,l),
(315,646,o),
(299,646,o),
(287,646,cs),
(256,646,o),
(239,648,o),
(220,653,c),
(214,622,l),
(232,618,o),
(247,614,o),
(263,609,c),
(59,53,ls),
(56,45,o),
(8,31,o),
(-17,25,c),
(-22,-6,l)
);
}
);
width = 901;
},
{
anchors = (
{
name = bottom;
pos = (392,0);
},
{
name = top;
pos = (531,654);
}
);
layerId = "66C19249-B420-404C-A3E7-B74793AC6646";
shapes = (
{
closed = 1;
nodes = (
(14,-1,o),
(51,0,o),
(87,0,cs),
(123,0,o),
(160,-1,o),
(195,-6,c),
(202,32,l),
(174,37,o),
(122,52,o),
(122,60,c),
(150,155,o),
(182,251,o),
(218,359,cs),
(295,588,l),
(253,589,l),
(360,19,l),
(444,19,l),
(552,195,o),
(649,351,o),
(776,523,c),
(765,538,l),
(759,498,o),
(752,457,o),
(745,417,cs),
(709,216,ls),
(700,166,o),
(690,116,o),
(675,60,cs),
(673,52,o),
(622,38,o),
(595,32,c),
(588,-6,l),
(630,-1,o),
(672,0,o),
(713,0,cs),
(754,0,o),
(796,-1,o),
(836,-6,c),
(843,32,l),
(820,37,o),
(776,52,o),
(776,60,c),
(783,115,o),
(791,171,o),
(798,218,cs),
(830,419,ls),
(842,494,o),
(852,552,o),
(869,611,c),
(893,616,o),
(914,619,o),
(942,623,c),
(951,661,l),
(914,656,o),
(878,654,o),
(841,654,cs),
(832,654,o),
(823,654,o),
(814,655,c),
(426,108,l),
(455,109,l),
(415,233,o),
(393,344,o),
(379,418,cs),
(334,655,l),
(319,654,o),
(303,654,o),
(288,654,cs),
(266,654,o),
(243,656,o),
(221,661,c),
(212,623,l),
(226,621,o),
(240,617,o),
(256,612,c),
(56,60,ls),
(53,52,o),
(8,38,o),
(-16,32,c),
(-23,-6,l)
);
}
);
width = 915;
},
{
anchors = (
{
name = bottom;
pos = (358,0);
},
{
name = top;
pos = (496,646);
}
);
layerId = m004;
shapes = (
{
closed = 1;
nodes = (
(14,-1,o),
(47,0,o),
(80,0,cs),
(112,0,o),
(145,-1,o),
(176,-6,c),
(181,17,l),
(153,22,o),
(102,37,o),
(102,45,c),
(131,146,o),
(157,231,o),
(198,355,cs),
(278,598,l),
(249,583,l),
(339,19,l),
(388,19,l),
(499,196,o),
(612,370,o),
(732,547,c),
(723,561,l),
(715,511,o),
(707,462,o),
(698,412,cs),
(662,213,ls),
(652,158,o),
(641,101,o),
(624,45,cs),
(622,37,o),
(568,23,o),
(540,17,c),
(535,-6,l),
(573,-1,o),
(610,0,o),
(647,0,cs),
(684,0,o),
(721,-1,o),
(757,-6,c),
(762,17,l),
(743,22,o),
(709,37,o),
(709,45,c),
(714,102,o),
(723,157,o),
(733,215,cs),
(767,414,ls),
(779,483,o),
(791,550,o),
(808,618,c),
(829,624,o),
(849,628,o),
(870,630,c),
(875,653,l),
(842,648,o),
(808,646,o),
(777,646,cs),
(770,646,o),
(765,646,o),
(759,647,c),
(392,95,l),
(413,95,l),
(383,229,o),
(365,332,o),
(351,418,cs),
(315,647,l),
(303,646,o),
(291,646,o),
(279,646,cs),
(257,646,o),
(235,647,o),
(213,653,c),
(208,630,l),
(223,626,o),
(238,621,o),
(253,615,c),
(52,44,ls),
(49,36,o),
(7,23,o),
(-14,17,c),
(-19,-6,l)
);
}
);
width = 818;
},
{
anchors = (
{
name = bottom;
pos = (397,0);
},
{
name = top;
pos = (535,646);
}
);
layerId = "427C505E-2C0B-4FBE-8765-228C251EA8A7";
shapes = (
{
closed = 1;
nodes = (
(9,-1,o),
(49,0,o),
(85,0,cs),
(124,0,o),
(161,-1,o),
(196,-6,c),
(202,31,l),
(172,36,o),
(117,51,o),
(117,59,c),
(146,158,o),
(175,248,o),
(212,355,cs),
(287,575,l),
(239,525,l),
(342,19,l),
(415,19,l),
(524,177,o),
(631,332,o),
(754,488,c),
(740,492,l),
(732,451,o),
(725,410,o),
(718,369,cs),
(690,213,ls),
(680,158,o),
(670,112,o),
(655,59,cs),
(653,51,o),
(596,37,o),
(566,31,c),
(560,-6,l),
(602,-1,o),
(644,0,o),
(715,0,cs),
(784,0,o),
(826,-1,o),
(866,-6,c),
(872,31,l),
(849,36,o),
(805,51,o),
(806,59,cs),
(811,110,o),
(818,158,o),
(827,215,cs),
(860,414,ls),
(871,482,o),
(882,543,o),
(899,605,c),
(923,609,o),
(951,613,o),
(978,616,c),
(985,653,l),
(938,648,o),
(901,646,o),
(856,646,cs),
(849,646,o),
(834,646,o),
(827,647,c),
(446,141,l),
(463,137,l),
(423,271,o),
(411,327,o),
(393,418,cs),
(348,647,l),
(328,646,o),
(313,646,o),
(293,646,cs),
(264,646,o),
(236,648,o),
(207,653,c),
(199,610,l),
(218,607,o),
(235,604,o),
(254,599,c),
(55,59,ls),
(52,51,o),
(3,37,o),
(-22,31,c),
(-28,-6,l)
);
}
);
width = 929;
}
);
unicode = 77;
userData = {
KernOnName = M;
};
},
{
glyphname = N;
kernLeft = KO_N;
kernRight = KO_N;
lastChange = "2025-04-27 23:34:05 +0000";
layers = (
{
anchors = (
{
name = bottom;
pos = (350,0);
},
{
name = top;
pos = (483,646);
}
);
layerId = m01;
shapes = (
{
closed = 1;
nodes = (
(638,-9,l),
(651,90,o),
(670,184,o),
(690,278,cs),
(715,396,ls),
(728,457,o),
(744,522,o),
(763,593,cs),
(765,601,o),
(818,614,o),
(846,619,c),
(851,650,l),
(814,647,o),
(778,646,o),
(742,646,cs),
(705,646,o),
(669,647,o),
(634,650,c),
(629,619,l),
(659,613,o),
(716,601,o),
(716,593,c),
(616,123,l),
(533,223,o),
(490,285,o),
(442,356,cs),
(361,476,ls),
(324,531,o),
(295,575,o),
(253,648,c),
(237,646,o),
(220,646,o),
(204,646,cs),
(181,646,o),
(155,647,o),
(130,650,c),
(124,619,l),
(145,613,o),
(167,605,o),
(184,593,c),
(171,517,o),
(159,457,o),
(145,390,cs),
(120,270,ls),
(105,197,o),
(89,125,o),
(71,53,cs),
(69,45,o),
(17,31,o),
(-10,25,c),
(-15,-6,l),
(22,-1,o),
(59,0,o),
(95,0,cs),
(131,0,o),
(168,-1,o),
(203,-6,c),
(208,25,l),
(176,30,o),
(114,45,o),
(114,53,c),
(216,536,l),
(592,-9,l)
);
}
);
width = 798;
},
{
anchors = (
{
name = bottom;
pos = (348,0);
},
{
name = top;
pos = (484,654);
}
);
layerId = "66C19249-B420-404C-A3E7-B74793AC6646";
shapes = (
{
closed = 1;
nodes = (
(642,-9,l),
(651,66,o),
(665,142,o),
(695,281,cs),
(721,401,ls),
(733,457,o),
(747,515,o),
(768,594,cs),
(770,602,o),
(818,615,o),
(844,620,c),
(850,658,l),
(814,655,o),
(778,654,o),
(742,654,cs),
(706,654,o),
(670,655,o),
(634,658,c),
(628,620,l),
(655,614,o),
(708,602,o),
(708,594,c),
(613,145,l),
(533,239,o),
(499,288,o),
(453,356,cs),
(372,476,ls),
(332,535,o),
(295,591,o),
(260,656,c),
(242,654,o),
(223,654,o),
(205,654,cs),
(178,654,o),
(151,656,o),
(129,658,c),
(122,620,l),
(142,614,o),
(165,606,o),
(179,595,c),
(171,549,o),
(160,498,o),
(138,395,cs),
(112,273,ls),
(91,173,o),
(76,107,o),
(64,59,cs),
(62,51,o),
(14,38,o),
(-10,32,c),
(-17,-6,l),
(20,-1,o),
(57,0,o),
(93,0,cs),
(128,0,o),
(165,-1,o),
(200,-6,c),
(207,32,l),
(177,37,o),
(120,52,o),
(120,60,c),
(220,530,l),
(585,-9,l)
);
}
);
width = 803;
},
{
anchors = (
{
name = bottom;
pos = (316,0);
},
{
name = top;
pos = (448,646);
}
);
layerId = m004;
shapes = (
{
closed = 1;
nodes = (
(563,-9,l),
(576,90,o),
(595,184,o),
(615,278,cs),
(640,396,ls),
(653,459,o),
(670,527,o),
(691,601,cs),
(693,609,o),
(749,622,o),
(777,627,c),
(782,650,l),
(745,647,o),
(708,646,o),
(672,646,cs),
(636,646,o),
(599,647,o),
(564,650,c),
(559,627,l),
(592,621,o),
(653,609,o),
(653,601,c),
(552,127,l),
(478,231,o),
(448,285,o),
(409,356,cs),
(343,476,ls),
(314,529,o),
(286,583,o),
(254,648,c),
(239,646,o),
(225,646,o),
(210,646,cs),
(186,646,o),
(162,646,o),
(133,650,c),
(128,627,l),
(152,621,o),
(173,613,o),
(194,601,c),
(181,528,o),
(173,492,o),
(152,390,cs),
(127,270,ls),
(111,194,o),
(95,120,o),
(76,45,cs),
(74,37,o),
(21,23,o),
(-7,17,c),
(-12,-6,l),
(25,-1,o),
(62,0,o),
(98,0,cs),
(133,0,o),
(170,-1,o),
(205,-6,c),
(210,17,l),
(175,22,o),
(110,37,o),
(110,45,c),
(216,544,l),
(524,-9,l)
);
}
);
width = 721;
},
{
anchors = (
{
name = bottom;
pos = (350,0);
},
{
name = top;
pos = (484,646);
}
);
layerId = "427C505E-2C0B-4FBE-8765-228C251EA8A7";
shapes = (
{
closed = 1;
nodes = (
(642,-9,l),
(655,90,o),
(674,184,o),
(694,278,cs),
(719,396,ls),
(732,457,o),
(747,516,o),
(766,587,cs),
(768,595,o),
(821,608,o),
(849,613,c),
(855,650,l),
(818,647,o),
(782,646,o),
(742,646,cs),
(701,646,o),
(665,647,o),
(630,650,c),
(624,613,l),
(654,607,o),
(711,595,o),
(711,587,c),
(619,155,l),
(552,237,o),
(514,292,o),
(471,356,cs),
(390,476,ls),
(353,531,o),
(324,575,o),
(282,648,c),
(266,646,o),
(220,646,o),
(204,646,cs),
(177,646,o),
(151,647,o),
(126,650,c),
(119,613,l),
(140,607,o),
(162,599,o),
(179,587,c),
(166,511,o),
(155,457,o),
(141,390,cs),
(116,270,ls),
(101,197,o),
(86,131,o),
(68,59,cs),
(66,51,o),
(14,37,o),
(-13,31,c),
(-19,-6,l),
(18,-1,o),
(55,0,o),
(95,0,cs),
(135,0,o),
(172,-1,o),
(207,-6,c),
(213,31,l),
(181,36,o),
(119,51,o),
(119,59,c),
(213,500,l),
(564,-9,l)
);
}
);
width = 798;
}
);
unicode = 78;
userData = {
KernOnName = N;
};
},
{
glyphname = O;
kernLeft = KO_O;
kernRight = KO_O;
lastChange = "2025-04-27 23:19:23 +0000";
layers = (
{
anchors = (
{
name = bottom;
pos = (351,0);
},
{
name = center;
pos = (386,323);
},
{
name = ogonek;
pos = (468,10);
},
{
name = top;
pos = (421,646);
},
{
name = topleft;
pos = (103,646);
},
{
name = topright;
pos = (783,646);
}
);
layerId = m01;
shapes = (
{
closed = 1;
nodes = (
(548,-12,o),
(707,162,o),
(707,379,cs),
(707,550,o),
(595,658,o),
(420,658,cs),
(222,658,o),
(66,488,o),
(66,271,cs),
(66,97,o),
(176,-12,o),
(351,-12,cs)
);
},
{
closed = 1;
nodes = (
(223,27,o),
(154,109,o),
(154,255,cs),
(154,450,o),
(283,619,o),
(429,619,cs),
(550,619,o),
(619,538,o),
(619,395,cs),
(619,200,o),
(489,27,o),
(346,27,cs)
);
}
);
width = 740;
},
{
anchors = (
{
name = bottom;
pos = (353,0);
},
{
name = center;
pos = (388,327);
},
{
name = ogonek;
pos = (475,10);
},
{
name = top;
pos = (422,654);
},
{
name = topleft;
pos = (99,654);
},
{
name = topright;
pos = (793,654);
}
);
guides = (
{
angle = 90;
pos = (381,334);
},
{
pos = (750,666);
},
{
pos = (381,334);
},
{
angle = -35.5833;
pos = (381,334);
showMeasurement = 1;
}
);
layerId = "66C19249-B420-404C-A3E7-B74793AC6646";
shapes = (
{
closed = 1;
nodes = (
(558,-12,o),
(712,158,o),
(712,384,cs),
(712,557,o),
(599,666,o),
(422,666,cs),
(216,666,o),
(65,500,o),
(65,274,cs),
(65,98,o),
(176,-12,o),
(353,-12,cs)
);
},
{
closed = 1;
nodes = (
(224,42,o),
(154,121,o),
(154,262,cs),
(154,455,o),
(278,612,o),
(431,612,cs),
(554,612,o),
(623,534,o),
(623,396,cs),
(623,203,o),
(499,42,o),
(348,42,cs)
);
}
);
width = 754;
},
{
anchors = (
{
name = bottom;
pos = (327,0);
},
{
name = center;
pos = (361,323);
},
{
name = ogonek;
pos = (440,10);
},
{
name = top;
pos = (392,646);
},
{
name = topleft;
pos = (108,646);
},
{
name = topright;
pos = (728,646);
}
);
layerId = m004;
shapes = (
{
closed = 1;
nodes = (
(514,-12,o),
(655,156,o),
(655,379,cs),
(655,549,o),
(552,658,o),
(392,658,cs),
(205,658,o),
(68,494,o),
(68,271,cs),
(68,97,o),
(168,-12,o),
(329,-12,cs)
);
},
{
closed = 1;
nodes = (
(202,17,o),
(136,102,o),
(136,252,cs),
(136,461,o),
(255,629,o),
(403,629,cs),
(520,629,o),
(587,545,o),
(587,397,cs),
(587,189,o),
(466,17,o),
(322,17,cs)
);
}
);
width = 680;
},
{
anchors = (
{
name = bottom;
pos = (360,0);
},
{
name = center;
pos = (397,323);
},
{
name = ogonek;
pos = (486,10);
},
{
name = top;
pos = (434,646);
},
{
name = topleft;
pos = (114,646);
},
{
name = topright;
pos = (794,646);
}
);
layerId = "427C505E-2C0B-4FBE-8765-228C251EA8A7";
shapes = (
{
closed = 1;
nodes = (
(573,-12,o),
(746,162,o),
(746,379,cs),
(746,550,o),
(624,658,o),
(434,658,cs),
(219,658,o),
(49,488,o),
(49,271,cs),
(49,97,o),
(169,-12,o),
(359,-12,cs)
);
},
{
closed = 1;
nodes = (
(262,27,o),
(205,109,o),
(205,255,cs),
(205,450,o),
(312,619,o),
(433,619,cs),
(533,619,o),
(590,538,o),
(590,395,cs),
(590,200,o),
(482,27,o),
(364,27,cs)
);
}
);
width = 762;
}
);
unicode = 79;
userData = {
KernOnName = O;
};
},
{
glyphname = Oslash;
kernLeft = KO_O;
kernRight = KO_O;
lastChange = "2025-04-03 21:25:05 +0000";
layers = (
{
anchors = (
{
name = bottom;
pos = (329,0);
},
{
name = top;
pos = (443,646);
}
);
layerId = m01;
shapes = (
{
closed = 1;
nodes = (
(554,-12,o),
(707,156,o),
(707,379,cs),
(707,550,o),
(595,658,o),
(420,658,cs),
(216,658,o),
(66,494,o),
(66,271,cs),
(66,97,o),
(176,-12,o),
(351,-12,cs)
);
},
{
closed = 1;
nodes = (
(223,27,o),
(154,109,o),
(154,255,cs),
(154,456,o),
(277,619,o),
(429,619,cs),
(550,619,o),
(619,538,o),
(619,395,cs),
(619,194,o),
(495,27,o),
(346,27,cs)
);
},
{
closed = 1;
nodes = (
(713,644,l),
(684,670,l),
(42,4,l),
(70,-21,l)
);
}
);
width = 740;
},
{
anchors = (
{
name = bottom;
pos = (331,0);
},
{
name = top;
pos = (446,654);
}
);
layerId = "66C19249-B420-404C-A3E7-B74793AC6646";
shapes = (
{
closed = 1;
nodes = (
(558,-12,o),
(712,158,o),
(712,384,cs),
(712,557,o),
(599,666,o),
(422,666,cs),
(216,666,o),
(65,500,o),
(65,274,cs),
(65,98,o),
(176,-12,o),
(353,-12,cs)
);
},
{
closed = 1;
nodes = (
(224,42,o),
(154,121,o),
(154,262,cs),
(154,455,o),
(278,612,o),
(431,612,cs),
(553,612,o),
(622,534,o),
(622,396,cs),
(622,203,o),
(498,42,o),
(348,42,cs)
);
},
{
closed = 1;
nodes = (
(729,643,l),
(690,677,l),
(50,13,l),
(89,-21,l)
);
}
);
width = 754;
},
{
anchors = (
{
name = bottom;
pos = (304,0);
},
{
name = top;
pos = (418,646);
}
);
layerId = m004;
shapes = (
{
closed = 1;
nodes = (
(514,-12,o),
(655,156,o),
(655,379,cs),
(655,549,o),
(552,658,o),
(392,658,cs),
(205,658,o),
(68,494,o),
(68,271,cs),
(68,97,o),
(168,-12,o),
(329,-12,cs)
);
},
{
closed = 1;
nodes = (
(202,17,o),
(136,102,o),
(136,252,cs),
(136,461,o),
(255,629,o),
(403,629,cs),
(520,629,o),
(587,545,o),
(587,397,cs),
(587,189,o),
(466,17,o),
(322,17,cs)
);
},
{
closed = 1;
nodes = (
(694,650,l),
(669,673,l),
(14,2,l),
(40,-21,l)
);
}
);
width = 680;
},
{
anchors = (
{
name = bottom;
pos = (339,0);
},
{
name = top;
pos = (453,646);
}
);
background = {
anchors = (
{
name = bottom;
pos = (340,0);
},
{
name = center;
pos = (397,323);
},
{
name = ogonek;
pos = (404,10);
},
{
name = top;
pos = (454,646);
},
{
name = topleft;
pos = (114,646);
},
{
name = topright;
pos = (794,646);
}
);
shapes = (
{
closed = 1;
nodes = (
(573,-12,o),
(746,162,o),
(746,379,cs),
(746,550,o),
(624,658,o),
(434,658,cs),
(219,658,o),
(49,488,o),
(49,271,cs),
(49,97,o),
(169,-12,o),
(359,-12,cs)
);
},
{
closed = 1;
nodes = (
(262,27,o),
(205,109,o),
(205,255,cs),
(205,450,o),
(312,619,o),
(433,619,cs),
(533,619,o),
(590,538,o),
(590,395,cs),
(590,200,o),
(482,27,o),
(364,27,cs)
);
}
);
};
guides = (
{
angle = 138.2397;
pos = (66,-8);
}
);
layerId = "427C505E-2C0B-4FBE-8765-228C251EA8A7";
shapes = (
{
closed = 1;
nodes = (
(573,-12,o),
(746,162,o),
(746,379,cs),
(746,550,o),
(624,658,o),
(434,658,cs),
(219,658,o),
(49,488,o),
(49,271,cs),
(49,97,o),
(169,-12,o),
(359,-12,cs)
);
},
{
closed = 1;
nodes = (
(262,27,o),
(205,109,o),
(205,255,cs),
(205,450,o),
(312,619,o),
(433,619,cs),
(533,619,o),
(590,538,o),
(590,395,cs),
(590,200,o),
(482,27,o),
(364,27,cs)
);
},
{
closed = 1;
nodes = (
(728,640,l),
(689,675,l),
(47,9,l),
(85,-25,l)
);
}
);
width = 762;
}
);
metricLeft = O;
metricRight = O;
unicode = 216;
},
{
glyphname = OE;
kernLeft = KO_O;
kernRight = KO_E;
lastChange = "2025-03-29 18:06:05 +0000";
layers = (
{
anchors = (
{
name = bottom;
pos = (459,0);
},
{
name = top;
pos = (573,646);
}
);
background = {
shapes = (
{
closed = 1;
nodes = (
(867,318,l),
(875,294,o),
(878,271,o),
(876,247,c),
(904,247,l),
(906,277,o),
(912,312,o),
(918,340,cs),
(924,368,o),
(932,397,o),
(941,425,c),
(917,425,l),
(909,406,o),
(895,383,o),
(878,361,c),
(830,359,o),
(782,358,o),
(734,358,cs),
(650,358,l),
(641,318,l)
);
}
);
};
layerId = m01;
shapes = (
{
closed = 1;
nodes = (
(412,-12,o),
(471,5,o),
(524,37,c),
(520,25,o),
(516,12,o),
(512,0,c),
(604,0,l),
(608,48,o),
(616,98,o),
(641,214,cs),
(685,419,ls),
(711,540,o),
(724,593,o),
(741,646,c),
(649,646,l),
(648,620,o),
(645,598,o),
(638,573,c),
(587,627,o),
(507,658,o),
(420,658,cs),
(215,658,o),
(66,488,o),
(66,271,cs),
(66,97,o),
(176,-12,o),
(344,-12,cs)
);
},
{
closed = 1;
nodes = (
(233,27,o),
(154,109,o),
(154,255,cs),
(154,450,o),
(273,619,o),
(438,619,cs),
(524,619,o),
(596,574,o),
(621,494,c),
(543,126,l),
(494,66,o),
(429,27,o),
(348,27,cs)
);
},
{
closed = 1;
nodes = (
(955,122,l),
(919,122,l),
(874,81,ls),
(840,50,o),
(803,41,o),
(759,41,cs),
(587,41,l),
(554,0,l),
(720,0,o),
(777,-2,o),
(873,-11,c)
);
},
{
closed = 1;
nodes = (
(904,247,l),
(906,277,o),
(912,312,o),
(918,340,cs),
(924,368,o),
(932,397,o),
(941,425,c),
(917,425,l),
(909,406,o),
(895,383,o),
(878,361,c),
(830,359,o),
(782,358,o),
(734,358,cs),
(650,358,l),
(641,318,l),
(867,318,l),
(875,294,o),
(878,271,o),
(876,247,c)
);
},
{
closed = 1;
nodes = (
(1011,499,l),
(1043,652,l),
(935,648,o),
(834,646,o),
(691,646,c),
(705,606,l),
(908,606,ls),
(947,606,o),
(964,588,o),
(968,558,cs),
(976,499,l)
);
}
);
width = 1027;
},
{
anchors = (
{
name = bottom;
pos = (463,0);
},
{
name = top;
pos = (578,654);
}
);
background = {
shapes = (
{
closed = 1;
nodes = (
(868,314,l),
(875,293,o),
(877,274,o),
(878,250,c),
(915,250,l),
(917,279,o),
(922,311,o),
(929,344,cs),
(935,372,o),
(942,399,o),
(952,430,c),
(918,430,l),
(910,411,o),
(897,392,o),
(880,374,c),
(835,371,o),
(790,370,o),
(746,370,cs),
(662,370,l),
(651,314,l)
);
}
);
};
layerId = "66C19249-B420-404C-A3E7-B74793AC6646";
shapes = (
{
closed = 1;
nodes = (
(420,-12,o),
(482,6,o),
(534,38,c),
(531,25,o),
(527,13,o),
(522,0,c),
(623,0,l),
(627,50,o),
(640,118,o),
(661,217,cs),
(705,424,ls),
(731,546,o),
(744,599,o),
(762,654,c),
(661,654,l),
(658,623,o),
(655,605,o),
(648,574,c),
(598,633,o),
(520,666,o),
(422,666,cs),
(216,666,o),
(65,500,o),
(65,274,cs),
(65,98,o),
(176,-12,o),
(353,-12,cs)
);
},
{
closed = 1;
nodes = (
(224,42,o),
(154,121,o),
(154,262,cs),
(154,455,o),
(258,612,o),
(431,612,cs),
(521,612,o),
(604,570,o),
(632,494,c),
(557,142,l),
(507,81,o),
(431,42,o),
(348,42,cs)
);
},
{
closed = 1;
nodes = (
(965,123,l),
(925,123,l),
(885,86,ls),
(859,62,o),
(813,57,o),
(769,57,cs),
(601,57,l),
(564,0,l),
(730,0,o),
(787,-2,o),
(883,-11,c)
);
},
{
closed = 1;
nodes = (
(915,250,l),
(917,279,o),
(922,311,o),
(929,344,cs),
(935,372,o),
(942,399,o),
(952,430,c),
(918,430,l),
(910,411,o),
(897,392,o),
(880,374,c),
(835,371,o),
(790,370,o),
(746,370,cs),
(662,370,l),
(651,314,l),
(868,314,l),
(875,293,o),
(877,274,o),
(878,250,c)
);
},
{
closed = 1;
nodes = (
(1022,505,l),
(1055,660,l),
(947,656,o),
(846,654,o),
(703,654,c),
(714,597,l),
(913,597,ls),
(951,597,o),
(973,581,o),
(976,558,cs),
(983,505,l)
);
}
);
width = 1054;
},
{
anchors = (
{
name = bottom;
pos = (427,0);
},
{
name = top;
pos = (541,646);
}
);
guides = (
{
pos = (652,646);
}
);
layerId = m004;
shapes = (
{
closed = 1;
nodes = (
(398,-12,o),
(460,11,o),
(511,51,c),
(507,33,o),
(502,16,o),
(496,0,c),
(583,0,l),
(586,50,o),
(596,107,o),
(619,214,cs),
(663,419,ls),
(689,540,o),
(702,594,o),
(720,646,c),
(633,646,l),
(631,615,o),
(626,579,o),
(616,539,c),
(572,615,o),
(493,658,o),
(392,658,cs),
(205,658,o),
(68,494,o),
(68,271,cs),
(68,97,o),
(170,-12,o),
(326,-12,cs)
);
},
{
closed = 1;
nodes = (
(205,17,o),
(136,102,o),
(136,252,cs),
(136,461,o),
(245,629,o),
(403,629,cs),
(505,629,o),
(580,561,o),
(595,443,c),
(531,143,l),
(482,66,o),
(408,17,o),
(321,17,cs)
);
},
{
closed = 1;
nodes = (
(887,122,l),
(856,122,l),
(786,57,ls),
(762,35,o),
(735,25,o),
(693,25,cs),
(565,25,l),
(535,0,l),
(652,0,o),
(709,-2,o),
(805,-11,c)
);
},
{
closed = 1;
nodes = (
(836,247,l),
(838,277,o),
(844,312,o),
(850,340,cs),
(856,368,o),
(864,397,o),
(873,425,c),
(853,425,l),
(843,402,o),
(827,376,o),
(810,353,c),
(772,351,o),
(735,350,o),
(697,350,cs),
(629,350,l),
(624,324,l),
(804,324,l),
(810,296,o),
(811,272,o),
(811,247,c)
);
},
{
closed = 1;
nodes = (
(943,499,l),
(975,652,l),
(867,648,o),
(766,646,o),
(672,646,c),
(694,621,l),
(848,621,ls),
(886,621,o),
(898,608,o),
(901,585,cs),
(912,499,l)
);
}
);
width = 949;
},
{
anchors = (
{
name = bottom;
pos = (446,0);
},
{
name = top;
pos = (560,646);
}
);
layerId = "427C505E-2C0B-4FBE-8765-228C251EA8A7";
shapes = (
{
closed = 1;
nodes = (
(394,-12,o),
(441,1,o),
(484,26,c),
(482,17,o),
(480,9,o),
(476,0,c),
(628,0,l),
(631,42,o),
(637,85,o),
(660,192,cs),
(713,438,ls),
(736,545,o),
(748,595,o),
(765,646,c),
(613,646,l),
(613,637,o),
(612,627,o),
(610,618,c),
(561,644,o),
(502,658,o),
(434,658,cs),
(219,658,o),
(49,488,o),
(49,271,cs),
(49,97,o),
(164,-12,o),
(336,-12,cs)
);
},
{
closed = 1;
nodes = (
(270,27,o),
(205,109,o),
(205,255,cs),
(205,450,o),
(312,619,o),
(433,619,cs),
(514,619,o),
(567,567,o),
(584,470,c),
(513,141,l),
(473,71,o),
(427,27,o),
(359,27,cs)
);
},
{
closed = 1;
nodes = (
(947,122,l),
(905,122,l),
(870,87,ls),
(838,55,o),
(799,47,o),
(756,47,cs),
(544,47,l),
(506,0,l),
(672,0,o),
(770,-2,o),
(866,-11,c)
);
},
{
closed = 1;
nodes = (
(856,247,l),
(858,277,o),
(864,312,o),
(870,340,cs),
(876,368,o),
(884,397,o),
(893,425,c),
(863,425,l),
(855,407,o),
(841,385,o),
(824,364,c),
(779,362,o),
(732,361,o),
(687,361,cs),
(603,361,l),
(592,315,l),
(813,315,l),
(821,292,o),
(824,270,o),
(822,247,c)
);
},
{
closed = 1;
nodes = (
(993,499,l),
(1025,652,l),
(917,648,o),
(786,646,o),
(643,646,c),
(657,600,l),
(884,600,ls),
(923,600,o),
(938,582,o),
(943,552,cs),
(952,499,l)
);
}
);
width = 1003;
}
);
metricLeft = O;
metricRight = E;
unicode = 338;
},
{
glyphname = P;
kernLeft = KO_H;
kernRight = KO_P;
lastChange = "2025-05-03 00:05:05 +0000";
layers = (
{
anchors = (
{
name = bottom;
pos = (242,0);
},
{
name = top;
pos = (380,646);
}
);
layerId = m01;
shapes = (
{
closed = 1;
nodes = (
(435,219,o),
(582,313,o),
(582,456,cs),
(582,564,o),
(503,650,o),
(370,650,cs),
(338,650,o),
(297,646,o),
(246,646,cs),
(207,646,o),
(178,648,o),
(156,650,c),
(150,619,l),
(169,613,o),
(188,605,o),
(206,591,c),
(253,605,l),
(289,609,o),
(312,611,o),
(335,611,cs),
(425,611,o),
(486,554,o),
(486,451,cs),
(486,329,o),
(392,258,o),
(316,258,cs),
(298,258,l),
(291,224,l),
(307,221,o),
(319,219,o),
(333,219,cs)
);
},
{
closed = 1;
nodes = (
(46,-1,o),
(90,0,o),
(133,0,cs),
(175,0,o),
(219,-1,o),
(261,-6,c),
(266,25,l),
(232,30,o),
(166,45,o),
(166,53,c),
(171,91,o),
(180,137,o),
(196,214,cs),
(239,419,ls),
(262,528,o),
(274,575,o),
(292,627,c),
(200,627,l),
(195,577,o),
(185,524,o),
(163,419,cs),
(120,214,ls),
(104,136,o),
(93,91,o),
(81,53,cs),
(79,45,o),
(32,31,o),
(7,25,c),
(2,-6,l)
);
}
);
width = 588;
},
{
anchors = (
{
name = bottom;
pos = (246,0);
},
{
name = top;
pos = (385,654);
}
);
layerId = "66C19249-B420-404C-A3E7-B74793AC6646";
shapes = (
{
closed = 1;
nodes = (
(446,222,o),
(597,313,o),
(597,456,cs),
(597,563,o),
(515,658,o),
(378,658,cs),
(345,658,o),
(303,654,o),
(251,654,cs),
(210,654,o),
(180,656,o),
(157,658,c),
(150,620,l),
(171,613,o),
(188,605,o),
(206,592,c),
(255,594,ls),
(291,598,o),
(313,600,o),
(336,600,cs),
(426,600,o),
(486,542,o),
(486,451,cs),
(486,340,o),
(398,271,o),
(323,271,cs),
(303,271,l),
(294,227,l),
(312,224,o),
(325,222,o),
(340,222,cs)
);
},
{
closed = 1;
nodes = (
(50,-1,o),
(94,0,o),
(137,0,cs),
(179,0,o),
(223,-1,o),
(265,-6,c),
(272,32,l),
(239,37,o),
(176,52,o),
(176,60,c),
(180,98,o),
(189,143,o),
(205,217,cs),
(249,424,ls),
(273,537,o),
(284,585,o),
(302,635,c),
(201,635,l),
(196,581,o),
(184,518,o),
(164,424,cs),
(120,217,ls),
(104,141,o),
(93,96,o),
(83,60,cs),
(81,52,o),
(36,38,o),
(13,32,c),
(6,-6,l)
);
}
);
width = 611;
},
{
anchors = (
{
name = bottom;
pos = (219,0);
},
{
name = top;
pos = (357,646);
}
);
layerId = m004;
shapes = (
{
closed = 1;
nodes = (
(399,219,o),
(533,318,o),
(533,465,cs),
(533,567,o),
(468,650,o),
(354,650,cs),
(326,650,o),
(291,646,o),
(247,646,cs),
(211,646,o),
(184,648,o),
(164,650,c),
(159,627,l),
(178,620,o),
(193,613,o),
(211,599,c),
(263,620,l),
(291,624,o),
(309,625,o),
(328,625,cs),
(403,625,o),
(452,558,o),
(452,458,cs),
(452,324,o),
(362,248,o),
(297,248,cs),
(277,248,l),
(272,224,l),
(286,220,o),
(295,219,o),
(310,219,cs)
);
},
{
closed = 1;
nodes = (
(47,-1,o),
(91,0,o),
(134,0,cs),
(176,0,o),
(220,-1,o),
(262,-6,c),
(267,17,l),
(232,22,o),
(164,37,o),
(164,45,c),
(168,85,o),
(177,131,o),
(194,214,cs),
(237,419,ls),
(260,528,o),
(272,575,o),
(290,627,c),
(204,627,l),
(199,577,o),
(189,524,o),
(167,419,cs),
(124,214,ls),
(106,130,o),
(95,84,o),
(82,44,cs),
(79,36,o),
(33,23,o),
(8,17,c),
(3,-6,l)
);
}
);
width = 528;
},
{
anchors = (
{
name = bottom;
pos = (267,0);
},
{
name = top;
pos = (405,646);
}
);
layerId = "427C505E-2C0B-4FBE-8765-228C251EA8A7";
shapes = (
{
closed = 1;
nodes = (
(477,219,o),
(637,305,o),
(637,456,cs),
(637,572,o),
(551,650,o),
(406,650,cs),
(371,650,o),
(327,646,o),
(271,646,cs),
(229,646,o),
(185,648,o),
(143,650,c),
(137,613,l),
(156,607,o),
(175,599,o),
(193,585,c),
(278,599,l),
(309,603,o),
(328,605,o),
(348,605,cs),
(424,605,o),
(476,550,o),
(476,451,cs),
(476,329,o),
(398,264,o),
(333,264,cs),
(325,264,l),
(316,224,l),
(333,220,o),
(349,219,o),
(366,219,cs)
);
},
{
closed = 1;
nodes = (
(45,-1,o),
(99,0,o),
(154,0,cs),
(209,0,o),
(263,-1,o),
(318,-6,c),
(324,31,l),
(288,36,o),
(224,51,o),
(224,59,c),
(231,111,o),
(240,154,o),
(253,214,cs),
(303,453,ls),
(315,510,o),
(328,566,o),
(345,628,c),
(199,628,l),
(191,568,o),
(181,519,o),
(167,453,cs),
(117,214,ls),
(106,162,o),
(95,113,o),
(79,59,cs),
(77,51,o),
(26,37,o),
(-5,31,c),
(-10,-6,l)
);
}
);
width = 630;
}
);
metricLeft = H;
metricRight = "=O*0.8";
unicode = 80;
},
{
glyphname = Thorn;
kernRight = Thorn;
lastChange = "2025-05-03 00:06:21 +0000";
layers = (
{
anchors = (
{
name = bottom;
pos = (240,0);
},
{
name = top;
pos = (378,646);
}
);
layerId = m01;
shapes = (
{
closed = 1;
nodes = (
(432,142,o),
(559,224,o),
(559,348,cs),
(559,443,o),
(474,517,o),
(355,517,cs),
(237,517,l),
(228,476,l),
(312,476,ls),
(405,476,o),
(463,425,o),
(463,344,cs),
(463,249,o),
(385,181,o),
(275,181,cs),
(227,181,o),
(200,185,o),
(168,192,c),
(158,146,l),
(199,143,o),
(233,142,o),
(266,142,cs)
);
},
{
closed = 1;
nodes = (
(41,-1,o),
(91,0,o),
(140,0,cs),
(189,0,o),
(239,-1,o),
(287,-6,c),
(292,25,l),
(258,30,o),
(193,45,o),
(193,53,c),
(200,105,o),
(209,154,o),
(222,214,cs),
(264,413,ls),
(276,470,o),
(289,531,o),
(307,593,cs),
(309,601,o),
(383,614,o),
(421,619,c),
(426,650,l),
(376,647,o),
(326,646,o),
(277,646,cs),
(228,646,o),
(178,647,o),
(130,650,c),
(125,619,l),
(158,614,o),
(221,602,o),
(221,594,c),
(213,534,o),
(202,479,o),
(188,413,cs),
(146,214,ls),
(135,162,o),
(123,107,o),
(107,53,cs),
(105,45,o),
(33,31,o),
(-4,25,c),
(-9,-6,l)
);
}
);
width = 593;
},
{
anchors = (
{
name = bottom;
pos = (245,0);
},
{
name = top;
pos = (384,654);
}
);
layerId = "66C19249-B420-404C-A3E7-B74793AC6646";
shapes = (
{
closed = 1;
nodes = (
(458,140,o),
(587,224,o),
(587,349,cs),
(587,443,o),
(505,526,o),
(379,526,cs),
(242,526,l),
(230,470,l),
(329,470,ls),
(425,470,o),
(478,429,o),
(478,344,cs),
(478,250,o),
(407,197,o),
(274,197,cs),
(249,197,o),
(208,201,o),
(175,209,c),
(161,144,l),
(205,141,o),
(240,140,o),
(276,140,cs)
);
},
{
closed = 1;
nodes = (
(43,-1,o),
(93,0,o),
(142,0,cs),
(191,0,o),
(241,-1,o),
(289,-6,c),
(296,32,l),
(263,37,o),
(200,52,o),
(200,60,c),
(206,111,o),
(216,161,o),
(228,217,cs),
(271,418,ls),
(284,477,o),
(297,535,o),
(314,594,cs),
(316,602,o),
(386,615,o),
(423,620,c),
(429,658,l),
(380,655,o),
(330,654,o),
(281,654,cs),
(232,654,o),
(182,655,o),
(133,658,c),
(127,620,l),
(158,614,o),
(219,602,o),
(219,594,c),
(211,534,o),
(198,472,o),
(186,418,cs),
(143,217,ls),
(131,161,o),
(120,111,o),
(106,60,cs),
(104,52,o),
(35,38,o),
(0,32,c),
(-7,-6,l)
);
}
);
width = 631;
},
{
anchors = (
{
name = bottom;
pos = (226,0);
},
{
name = top;
pos = (364,646);
}
);
background = {
shapes = (
{
closed = 1;
nodes = (
(43,-1,o),
(93,0,o),
(142,0,cs),
(191,0,o),
(241,-1,o),
(289,-6,c),
(293,13,l),
(245,30,o),
(196,38,o),
(150,38,cs),
(104,38,o),
(53,30,o),
(-3,13,c),
(-7,-6,l)
);
},
{
closed = 1;
nodes = (
(318,609,o),
(369,616,o),
(425,633,c),
(429,653,l),
(379,649,o),
(329,646,o),
(280,646,cs),
(231,646,o),
(181,649,o),
(133,653,c),
(129,633,l),
(177,616,o),
(227,609,o),
(272,609,cs)
);
}
);
};
layerId = m004;
shapes = (
{
closed = 1;
nodes = (
(454,145,o),
(532,234,o),
(532,348,cs),
(532,417,o),
(491,513,o),
(342,513,cs),
(245,513,l),
(240,486,l),
(299,486,ls),
(407,486,o),
(450,425,o),
(450,345,cs),
(450,251,o),
(364,170,o),
(252,170,cs),
(229,170,o),
(203,174,o),
(175,182,c),
(168,149,l),
(205,146,o),
(235,145,o),
(264,145,cs)
);
},
{
closed = 1;
nodes = (
(43,-1,o),
(93,0,o),
(142,0,cs),
(191,0,o),
(241,-1,o),
(289,-6,c),
(294,17,l),
(259,22,o),
(190,37,o),
(190,45,c),
(197,101,o),
(207,152,o),
(220,214,cs),
(262,413,ls),
(275,473,o),
(289,536,o),
(308,601,cs),
(310,609,o),
(385,622,o),
(423,627,c),
(428,650,l),
(377,647,o),
(327,646,o),
(279,646,cs),
(229,646,o),
(179,647,o),
(132,650,c),
(127,627,l),
(162,621,o),
(226,609,o),
(226,601,c),
(219,539,o),
(207,482,o),
(192,413,cs),
(150,214,ls),
(138,159,o),
(125,102,o),
(109,45,cs),
(107,37,o),
(35,23,o),
(-2,17,c),
(-7,-6,l)
);
}
);
width = 558;
},
{
anchors = (
{
name = bottom;
pos = (251,0);
},
{
name = top;
pos = (389,646);
}
);
background = {
anchors = (
{
name = bottom;
pos = (160,0);
},
{
name = ogonek;
pos = (276,10);
},
{
name = top;
pos = (305,646);
},
{
name = topleft;
pos = (131,646);
}
);
shapes = (
{
closed = 1;
nodes = (
(39,-1,o),
(97,0,o),
(155,0,cs),
(212,0,o),
(270,-1,o),
(328,-6,c),
(334,31,l),
(298,36,o),
(238,51,o),
(238,59,c),
(245,111,o),
(254,154,o),
(267,214,cs),
(309,413,ls),
(321,470,o),
(333,525,o),
(350,587,cs),
(352,595,o),
(419,608,o),
(457,613,c),
(462,650,l),
(404,647,o),
(346,646,o),
(289,646,cs),
(231,646,o),
(173,647,o),
(115,650,c),
(110,613,l),
(146,608,o),
(205,596,o),
(205,588,c),
(197,528,o),
(187,479,o),
(173,413,cs),
(131,214,ls),
(120,162,o),
(109,113,o),
(93,59,cs),
(91,51,o),
(26,37,o),
(-13,31,c),
(-19,-6,l)
);
}
);
};
layerId = "427C505E-2C0B-4FBE-8765-228C251EA8A7";
shapes = (
{
closed = 1;
nodes = (
(473,142,o),
(610,217,o),
(610,348,cs),
(610,450,o),
(519,517,o),
(391,517,cs),
(258,517,l),
(249,470,l),
(316,470,ls),
(398,470,o),
(449,421,o),
(449,343,cs),
(449,252,o),
(380,187,o),
(283,187,cs),
(241,187,o),
(217,191,o),
(189,198,c),
(179,146,l),
(223,143,o),
(260,142,o),
(295,142,cs)
);
},
{
closed = 1;
nodes = (
(39,-1,o),
(97,0,o),
(155,0,cs),
(212,0,o),
(270,-1,o),
(328,-6,c),
(334,31,l),
(298,36,o),
(238,51,o),
(238,59,c),
(245,111,o),
(254,154,o),
(267,214,cs),
(309,413,ls),
(321,470,o),
(333,525,o),
(350,587,cs),
(352,595,o),
(419,608,o),
(457,613,c),
(462,650,l),
(404,647,o),
(346,646,o),
(289,646,cs),
(231,646,o),
(173,647,o),
(115,650,c),
(110,613,l),
(146,608,o),
(205,596,o),
(205,588,c),
(197,528,o),
(187,479,o),
(173,413,cs),
(131,214,ls),
(120,162,o),
(109,113,o),
(93,59,cs),
(91,51,o),
(26,37,o),
(-13,31,c),
(-19,-6,l)
);
}
);
width = 628;
}
);
metricLeft = I;
metricRight = O;
unicode = 222;
},
{
glyphname = Q;
kernLeft = KO_O;
kernRight = KO_Q;
lastChange = "2025-04-03 21:24:51 +0000";
layers = (
{
anchors = (
{
name = bottom;
pos = (329,0);
},
{
name = top;
pos = (443,646);
}
);
layerId = m01;
shapes = (
{
closed = 1;
nodes = (
(548,-12,o),
(707,162,o),
(707,379,cs),
(707,550,o),
(595,658,o),
(420,658,cs),
(222,658,o),
(66,488,o),
(66,271,cs),
(66,97,o),
(176,-12,o),
(351,-12,cs)
);
},
{
closed = 1;
nodes = (
(223,27,o),
(154,109,o),
(154,255,cs),
(154,450,o),
(283,619,o),
(429,619,cs),
(550,619,o),
(619,538,o),
(619,395,cs),
(619,200,o),
(489,27,o),
(346,27,cs)
);
},
{
closed = 1;
nodes = (
(1209,-238,o),
(1266,-210,o),
(1316,-230,c),
(1361,-121,l),
(1275,-174,o),
(1185,-192,o),
(1111,-192,cs),
(972,-192,o),
(850,-141,o),
(634,15,cs),
(588,48,o),
(563,65,o),
(515,77,c),
(453,5,l),
(489,-4,o),
(513,-15,o),
(553,-44,cs),
(733,-174,o),
(923,-238,o),
(1101,-238,cs)
);
}
);
width = 740;
},
{
anchors = (
{
name = bottom;
pos = (331,0);
},
{
name = top;
pos = (446,654);
}
);
layerId = "66C19249-B420-404C-A3E7-B74793AC6646";
shapes = (
{
closed = 1;
nodes = (
(558,-12,o),
(712,158,o),
(712,384,cs),
(712,557,o),
(599,666,o),
(422,666,cs),
(216,666,o),
(65,500,o),
(65,274,cs),
(65,98,o),
(176,-12,o),
(353,-12,cs)
);
},
{
closed = 1;
nodes = (
(224,42,o),
(154,121,o),
(154,262,cs),
(154,455,o),
(278,612,o),
(431,612,cs),
(553,612,o),
(622,534,o),
(622,396,cs),
(622,203,o),
(498,42,o),
(348,42,cs)
);
},
{
closed = 1;
nodes = (
(1205,-241,o),
(1262,-212,o),
(1312,-232,c),
(1362,-112,l),
(1272,-169,o),
(1178,-185,o),
(1109,-185,cs),
(973,-185,o),
(849,-137,o),
(639,18,cs),
(592,53,o),
(561,70,o),
(517,81,c),
(450,3,l),
(493,-5,o),
(517,-19,o),
(554,-47,cs),
(725,-173,o),
(915,-241,o),
(1097,-241,cs)
);
}
);
width = 754;
},
{
anchors = (
{
name = bottom;
pos = (304,0);
},
{
name = top;
pos = (418,646);
}
);
layerId = m004;
shapes = (
{
closed = 1;
nodes = (
(514,-12,o),
(655,156,o),
(655,379,cs),
(655,549,o),
(552,658,o),
(392,658,cs),
(205,658,o),
(68,494,o),
(68,271,cs),
(68,97,o),
(168,-12,o),
(329,-12,cs)
);
},
{
closed = 1;
nodes = (
(202,17,o),
(136,102,o),
(136,252,cs),
(136,461,o),
(255,629,o),
(403,629,cs),
(520,629,o),
(587,545,o),
(587,397,cs),
(587,189,o),
(466,17,o),
(322,17,cs)
);
},
{
closed = 1;
nodes = (
(1186,-238,o),
(1243,-210,o),
(1293,-230,c),
(1334,-131,l),
(1247,-187,o),
(1156,-205,o),
(1085,-205,cs),
(945,-205,o),
(823,-150,o),
(609,5,cs),
(563,38,o),
(528,58,o),
(490,67,c),
(431,8,l),
(466,1,o),
(491,-12,o),
(528,-39,cs),
(708,-169,o),
(896,-238,o),
(1078,-238,cs)
);
}
);
width = 680;
},
{
anchors = (
{
name = bottom;
pos = (339,0);
},
{
name = top;
pos = (453,646);
}
);
background = {
anchors = (
{
name = bottom;
pos = (340,0);
},
{
name = center;
pos = (397,323);
},
{
name = ogonek;
pos = (404,10);
},
{
name = top;
pos = (454,646);
},
{
name = topleft;
pos = (114,646);
},
{
name = topright;
pos = (794,646);
}
);
shapes = (
{
closed = 1;
nodes = (
(573,-12,o),
(746,162,o),
(746,379,cs),
(746,550,o),
(624,658,o),
(434,658,cs),
(219,658,o),
(49,488,o),
(49,271,cs),
(49,97,o),
(169,-12,o),
(359,-12,cs)
);
},
{
closed = 1;
nodes = (
(262,27,o),
(205,109,o),
(205,255,cs),
(205,450,o),
(312,619,o),
(433,619,cs),
(533,619,o),
(590,538,o),
(590,395,cs),
(590,200,o),
(482,27,o),
(364,27,cs)
);
}
);
};
layerId = "427C505E-2C0B-4FBE-8765-228C251EA8A7";
shapes = (
{
closed = 1;
nodes = (
(573,-12,o),
(746,162,o),
(746,379,cs),
(746,550,o),
(624,658,o),
(434,658,cs),
(219,658,o),
(49,488,o),
(49,271,cs),
(49,97,o),
(169,-12,o),
(359,-12,cs)
);
},
{
closed = 1;
nodes = (
(262,27,o),
(205,109,o),
(205,255,cs),
(205,450,o),
(312,619,o),
(433,619,cs),
(533,619,o),
(590,538,o),
(590,395,cs),
(590,200,o),
(482,27,o),
(364,27,cs)
);
},
{
closed = 1;
nodes = (
(1219,-243,o),
(1276,-215,o),
(1326,-235,c),
(1372,-116,l),
(1286,-169,o),
(1195,-187,o),
(1121,-187,cs),
(985,-187,o),
(870,-129,o),
(654,27,cs),
(608,60,o),
(583,77,o),
(535,89,c),
(463,3,l),
(499,-6,o),
(523,-17,o),
(563,-46,cs),
(744,-177,o),
(933,-243,o),
(1111,-243,cs)
);
}
);
width = 762;
}
);
metricLeft = O;
metricWidth = O;
unicode = 81;
},
{
glyphname = R;
kernLeft = KO_H;
kernRight = KO_R;
lastChange = "2025-05-03 00:06:49 +0000";
layers = (
{
anchors = (
{
name = bottom;
pos = (287,0);
},
{
name = top;
pos = (333,646);
}
);
background = {
shapes = (
{
closed = 1;
nodes = (
(22,-1,o),
(61,0,o),
(98,0,cs),
(135,0,o),
(174,-1,o),
(210,-6,c),
(215,25,l),
(192,30,o),
(169,40,o),
(148,53,c),
(153,91,o),
(162,137,o),
(178,214,cs),
(221,419,ls),
(244,528,o),
(256,575,o),
(274,627,c),
(182,627,l),
(177,577,o),
(167,524,o),
(145,419,cs),
(102,214,ls),
(86,136,o),
(75,91,o),
(63,53,c),
(40,40,o),
(14,31,o),
(-11,25,c),
(-16,-6,l)
);
}
);
};
layerId = m01;
shapes = (
{
closed = 1;
nodes = (
(408,286,o),
(558,358,o),
(558,485,cs),
(558,574,o),
(482,650,o),
(353,650,cs),
(320,650,o),
(279,646,o),
(228,646,cs),
(188,646,o),
(159,648,o),
(138,650,c),
(132,619,l),
(162,613,o),
(194,604,o),
(226,591,c),
(238,605,l),
(273,609,o),
(295,611,o),
(318,611,cs),
(404,611,o),
(462,552,o),
(462,478,cs),
(462,387,o),
(372,325,o),
(271,325,cs),
(245,325,o),
(215,330,o),
(186,345,c),
(177,306,l),
(207,291,o),
(239,286,o),
(271,286,cs)
);
},
{
closed = 1;
nodes = (
(570,-11,o),
(605,-2,o),
(628,12,c),
(633,36,l),
(595,30,o),
(570,32,o),
(552,50,cs),
(469,132,o),
(415,219,o),
(375,329,c),
(268,296,l),
(299,285,o),
(312,265,o),
(327,232,cs),
(371,134,o),
(454,-11,o),
(548,-11,cs)
);
},
{
closed = 1;
nodes = (
(22,-1,o),
(61,0,o),
(98,0,cs),
(135,0,o),
(174,-1,o),
(210,-6,c),
(215,25,l),
(192,30,o),
(148,45,o),
(148,53,c),
(153,91,o),
(162,137,o),
(178,214,cs),
(221,419,ls),
(244,528,o),
(256,575,o),
(274,627,c),
(182,627,l),
(177,577,o),
(167,524,o),
(145,419,cs),
(102,214,ls),
(86,136,o),
(75,91,o),
(63,53,cs),
(61,45,o),
(14,31,o),
(-11,25,c),
(-16,-6,l)
);
}
);
width = 682;
},
{
anchors = (
{
name = bottom;
pos = (280,0);
},
{
name = top;
pos = (345,654);
}
);
background = {
shapes = (
{
closed = 1;
nodes = (
(23,-1,o),
(62,0,o),
(99,0,cs),
(136,0,o),
(175,-1,o),
(211,-6,c),
(218,32,l),
(196,37,o),
(174,47,o),
(154,60,c),
(159,97,o),
(167,141,o),
(183,217,cs),
(227,424,ls),
(250,533,o),
(264,586,o),
(280,635,c),
(179,635,l),
(174,581,o),
(162,518,o),
(142,424,cs),
(98,217,ls),
(82,141,o),
(71,96,o),
(61,59,c),
(39,47,o),
(15,38,o),
(-8,32,c),
(-15,-6,l)
);
}
);
};
guides = (
{
angle = 38.2695;
pos = (409,180);
showMeasurement = 1;
},
{
angle = 78.4399;
pos = (132,636);
},
{
pos = (174,592);
}
);
layerId = "66C19249-B420-404C-A3E7-B74793AC6646";
shapes = (
{
closed = 1;
nodes = (
(415,290,o),
(567,348,o),
(567,485,cs),
(567,586,o),
(489,658,o),
(359,658,cs),
(325,658,o),
(282,654,o),
(230,654,cs),
(189,654,o),
(159,656,o),
(136,658,c),
(129,620,l),
(155,614,o),
(177,606,o),
(194,592,c),
(241,598,l),
(275,601,o),
(297,602,o),
(319,602,cs),
(410,602,o),
(471,550,o),
(471,482,cs),
(471,401,o),
(383,345,o),
(280,345,cs),
(250,345,o),
(218,350,o),
(190,363,c),
(179,310,l),
(209,295,o),
(242,290,o),
(276,290,cs)
);
},
{
closed = 1;
nodes = (
(568,-11,o),
(601,-7,o),
(626,-2,c),
(635,42,l),
(597,36,o),
(560,50,o),
(538,72,cs),
(471,138,o),
(420,231,o),
(384,332,c),
(263,300,l),
(293,289,o),
(307,265,o),
(321,234,cs),
(367,131,o),
(448,-11,o),
(542,-11,cs)
);
},
{
closed = 1;
nodes = (
(23,-1,o),
(62,0,o),
(99,0,cs),
(136,0,o),
(175,-1,o),
(211,-6,c),
(218,32,l),
(196,37,o),
(154,52,o),
(154,60,c),
(159,97,o),
(167,141,o),
(183,217,cs),
(227,424,ls),
(250,533,o),
(264,586,o),
(280,635,c),
(179,635,l),
(174,581,o),
(162,518,o),
(142,424,cs),
(98,217,ls),
(82,141,o),
(71,96,o),
(61,59,cs),
(59,51,o),
(15,38,o),
(-8,32,c),
(-15,-6,l)
);
}
);
width = 689;
},
{
anchors = (
{
name = bottom;
pos = (267,0);
},
{
name = top;
pos = (319,646);
}
);
background = {
shapes = (
{
closed = 1;
nodes = (
(22,-1,o),
(56,0,o),
(90,0,cs),
(123,0,o),
(158,-1,o),
(190,-6,c),
(195,17,l),
(174,22,o),
(154,32,o),
(137,45,c),
(142,87,o),
(151,134,o),
(168,214,cs),
(211,419,ls),
(235,533,o),
(247,579,o),
(263,627,c),
(179,627,l),
(173,576,o),
(163,524,o),
(141,419,cs),
(98,214,ls),
(80,127,o),
(68,82,o),
(57,45,c),
(35,32,o),
(14,23,o),
(-8,17,c),
(-13,-6,l)
);
}
);
};
guides = (
{
angle = 78.6901;
pos = (134,640);
},
{
pos = (176,599);
}
);
layerId = m004;
shapes = (
{
closed = 1;
nodes = (
(371,286,o),
(508,364,o),
(508,490,cs),
(508,578,o),
(442,650,o),
(331,650,cs),
(302,650,o),
(266,646,o),
(221,646,cs),
(183,646,o),
(156,648,o),
(136,650,c),
(131,627,l),
(152,620,o),
(171,612,o),
(186,599,c),
(228,617,l),
(262,623,o),
(285,625,o),
(306,625,cs),
(385,625,o),
(436,561,o),
(436,484,cs),
(436,382,o),
(346,311,o),
(252,311,cs),
(225,311,o),
(198,318,o),
(173,333,c),
(167,306,l),
(193,291,o),
(221,286,o),
(250,286,cs)
);
},
{
closed = 1;
nodes = (
(514,-11,o),
(545,-2,o),
(564,13,c),
(568,33,l),
(528,26,o),
(515,28,o),
(503,42,cs),
(424,132,o),
(383,214,o),
(351,330,c),
(251,296,l),
(280,285,o),
(291,264,o),
(303,231,cs),
(339,132,o),
(411,-11,o),
(494,-11,cs)
);
},
{
closed = 1;
nodes = (
(22,-1,o),
(56,0,o),
(90,0,cs),
(123,0,o),
(158,-1,o),
(190,-6,c),
(195,17,l),
(174,22,o),
(137,37,o),
(137,45,c),
(142,87,o),
(151,134,o),
(168,214,cs),
(211,419,ls),
(235,533,o),
(247,579,o),
(263,627,c),
(179,627,l),
(173,576,o),
(163,524,o),
(141,419,cs),
(98,214,ls),
(80,127,o),
(68,82,o),
(57,45,cs),
(55,37,o),
(14,23,o),
(-8,17,c),
(-13,-6,l)
);
}
);
width = 611;
},
{
anchors = (
{
name = bottom;
pos = (325,0);
},
{
name = top;
pos = (374,646);
}
);
background = {
shapes = (
{
closed = 1;
nodes = (
(464,286,o),
(626,350,o),
(626,485,cs),
(626,582,o),
(544,650,o),
(405,650,cs),
(369,650,o),
(325,646,o),
(270,646,cs),
(149,646,o),
(116,648,o),
(95,650,c),
(88,613,l),
(118,607,o),
(150,598,o),
(182,585,c),
(269,599,l),
(300,603,o),
(319,605,o),
(339,605,cs),
(414,605,o),
(465,549,o),
(465,478,cs),
(465,391,o),
(386,331,o),
(298,331,cs),
(276,331,o),
(249,336,o),
(224,351,c),
(215,306,l),
(247,291,o),
(282,286,o),
(316,286,cs)
);
},
{
closed = 1;
nodes = (
(625,-11,o),
(666,-2,o),
(695,12,c),
(701,36,l),
(663,30,o),
(638,32,o),
(620,50,cs),
(537,132,o),
(483,219,o),
(443,329,c),
(277,296,l),
(308,285,o),
(321,265,o),
(336,232,cs),
(380,134,o),
(463,-11,o),
(577,-11,cs)
);
},
{
closed = 1;
nodes = (
(33,-1,o),
(87,0,o),
(142,0,cs),
(197,0,o),
(251,-1,o),
(306,-6,c),
(312,31,l),
(276,36,o),
(212,51,o),
(212,59,c),
(219,111,o),
(228,154,o),
(241,214,cs),
(291,453,ls),
(303,510,o),
(316,566,o),
(333,628,c),
(187,628,l),
(179,568,o),
(169,519,o),
(155,453,cs),
(105,214,ls),
(94,162,o),
(83,113,o),
(67,59,cs),
(65,51,o),
(14,37,o),
(-17,31,c),
(-22,-6,l)
);
}
);
};
layerId = "427C505E-2C0B-4FBE-8765-228C251EA8A7";
shapes = (
{
closed = 1;
nodes = (
(464,286,o),
(626,350,o),
(626,485,cs),
(626,582,o),
(544,650,o),
(405,650,cs),
(369,650,o),
(325,646,o),
(270,646,cs),
(213,646,o),
(157,646,o),
(100,650,c),
(93,613,l),
(121,607,o),
(151,598,o),
(182,585,c),
(269,599,l),
(300,603,o),
(319,605,o),
(339,605,cs),
(414,605,o),
(465,549,o),
(465,478,cs),
(465,391,o),
(386,331,o),
(298,331,cs),
(276,331,o),
(249,336,o),
(224,351,c),
(215,306,l),
(247,291,o),
(282,286,o),
(316,286,cs)
);
},
{
closed = 1;
nodes = (
(625,-11,o),
(666,-2,o),
(695,12,c),
(703,42,l),
(664,36,o),
(638,38,o),
(620,56,cs),
(537,138,o),
(483,219,o),
(443,329,c),
(277,296,l),
(308,285,o),
(321,265,o),
(336,232,cs),
(380,134,o),
(463,-11,o),
(577,-11,cs)
);
},
{
closed = 1;
nodes = (
(33,-1,o),
(87,0,o),
(142,0,cs),
(197,0,o),
(251,-1,o),
(306,-6,c),
(312,31,l),
(276,36,o),
(212,51,o),
(212,59,c),
(219,111,o),
(228,154,o),
(241,214,cs),
(291,453,ls),
(303,510,o),
(316,566,o),
(333,628,c),
(187,628,l),
(179,568,o),
(169,519,o),
(155,453,cs),
(105,214,ls),
(94,162,o),
(83,113,o),
(67,59,cs),
(65,51,o),
(14,37,o),
(-17,31,c),
(-22,-6,l)
);
}
);
width = 747;
}
);
metricLeft = "=H*0.6";
unicode = 82;
userData = {
KernOnName = R;
};
},
{
glyphname = S;
kernLeft = KO_S;
kernRight = KO_S;
lastChange = "2025-05-03 00:07:26 +0000";
layers = (
{
anchors = (
{
name = bottom;
pos = (223,0);
},
{
name = top;
pos = (391,646);
}
);
layerId = m01;
shapes = (
{
closed = 1;
nodes = (
(333,-11,o),
(476,66,o),
(476,199,cs),
(476,372,o),
(234,390,o),
(234,506,cs),
(234,573,o),
(309,621,o),
(382,621,cs),
(441,621,o),
(501,591,o),
(509,523,c),
(544,523,l),
(551,572,o),
(548,618,o),
(538,664,c),
(523,659,o),
(510,656,o),
(489,656,cs),
(465,656,o),
(438,660,o),
(404,660,cs),
(259,660,o),
(145,589,o),
(145,481,cs),
(145,321,o),
(390,294,o),
(390,161,cs),
(390,85,o),
(310,28,o),
(225,28,cs),
(148,28,o),
(91,73,o),
(90,192,c),
(55,192,l),
(42,128,o),
(38,62,o),
(40,3,c),
(62,5,o),
(84,6,o),
(104,6,cs),
(135,6,o),
(161,-11,o),
(216,-11,cs)
);
}
);
width = 559;
},
{
anchors = (
{
name = bottom;
pos = (224,0);
},
{
name = top;
pos = (383,654);
}
);
layerId = "66C19249-B420-404C-A3E7-B74793AC6646";
shapes = (
{
closed = 1;
nodes = (
(337,-11,o),
(483,67,o),
(483,206,cs),
(483,384,o),
(239,396,o),
(239,510,cs),
(239,568,o),
(302,612,o),
(383,612,cs),
(427,612,o),
(500,599,o),
(507,529,c),
(546,529,l),
(554,579,o),
(550,625,o),
(541,672,c),
(526,667,o),
(512,664,o),
(491,664,cs),
(466,664,o),
(440,668,o),
(405,668,cs),
(258,668,o),
(142,593,o),
(142,484,cs),
(142,325,o),
(388,291,o),
(388,170,cs),
(388,103,o),
(311,44,o),
(228,44,cs),
(150,44,o),
(95,77,o),
(96,194,c),
(57,194,l),
(43,129,o),
(39,63,o),
(41,3,c),
(63,5,o),
(85,6,o),
(105,6,cs),
(136,6,o),
(163,-11,o),
(218,-11,cs)
);
}
);
width = 571;
},
{
anchors = (
{
name = bottom;
pos = (201,0);
},
{
name = top;
pos = (366,646);
}
);
layerId = m004;
shapes = (
{
closed = 1;
nodes = (
(301,-11,o),
(429,71,o),
(429,194,cs),
(429,351,o),
(220,384,o),
(220,513,cs),
(220,583,o),
(280,635,o),
(348,635,cs),
(412,635,o),
(463,592,o),
(469,523,c),
(501,523,l),
(508,572,o),
(507,618,o),
(499,664,c),
(485,659,o),
(474,656,o),
(454,656,cs),
(433,656,o),
(408,660,o),
(378,660,cs),
(251,660,o),
(145,590,o),
(145,481,cs),
(145,329,o),
(354,301,o),
(354,162,cs),
(354,78,o),
(278,14,o),
(201,14,cs),
(123,14,o),
(85,85,o),
(86,192,c),
(54,192,l),
(41,128,o),
(36,62,o),
(36,3,c),
(56,5,o),
(76,6,o),
(94,6,cs),
(122,6,o),
(145,-11,o),
(194,-11,cs)
);
}
);
width = 505;
},
{
anchors = (
{
name = bottom;
pos = (223,0);
},
{
name = top;
pos = (391,646);
}
);
layerId = "427C505E-2C0B-4FBE-8765-228C251EA8A7";
shapes = (
{
closed = 1;
nodes = (
(338,-11,o),
(486,64,o),
(486,211,cs),
(486,399,o),
(244,412,o),
(244,513,cs),
(244,569,o),
(318,615,o),
(382,615,cs),
(442,615,o),
(495,587,o),
(503,523,c),
(544,523,l),
(551,572,o),
(548,618,o),
(538,664,c),
(523,659,o),
(510,656,o),
(489,656,cs),
(465,656,o),
(438,660,o),
(404,660,cs),
(253,660,o),
(135,589,o),
(135,462,cs),
(135,282,o),
(380,265,o),
(380,145,cs),
(380,78,o),
(305,34,o),
(225,34,cs),
(151,34,o),
(97,77,o),
(96,192,c),
(55,192,l),
(42,128,o),
(38,62,o),
(40,3,c),
(62,5,o),
(84,6,o),
(104,6,cs),
(135,6,o),
(161,-11,o),
(216,-11,cs)
);
}
);
width = 559;
}
);
unicode = 83;
userData = {
KernOnName = S;
};
},
{
glyphname = Germandbls;
kernLeft = Eszett;
kernRight = KO_B;
lastChange = "2025-03-29 18:12:48 +0000";
layers = (
{
anchors = (
{
name = bottom;
pos = (283,0);
},
{
name = top;
pos = (409,646);
}
);
background = {
shapes = (
{
closed = 1;
nodes = (
(19,-1,o),
(55,0,o),
(90,0,cs),
(126,0,o),
(162,-1,o),
(196,-6,c),
(201,18,l),
(169,34,o),
(135,43,o),
(99,43,cs),
(64,43,o),
(26,34,o),
(-13,18,c),
(-18,-6,l)
);
}
);
};
guides = (
{
angle = 139.5272;
pos = (474,468);
showMeasurement = 1;
}
);
layerId = m01;
shapes = (
{
closed = 1;
nodes = (
(490,-11,o),
(599,83,o),
(599,215,cs),
(599,293,o),
(552,359,o),
(447,379,c),
(617,578,l),
(570,629,o),
(515,658,o),
(427,658,cs),
(232,658,o),
(147,517,o),
(108,314,cs),
(58,52,ls),
(56,44,o),
(10,31,o),
(-13,25,c),
(-18,-6,l),
(19,-1,o),
(55,0,o),
(91,0,cs),
(126,0,o),
(163,-1,o),
(197,-6,c),
(202,25,l),
(181,30,o),
(142,45,o),
(142,53,c),
(149,121,o),
(160,184,o),
(179,286,cs),
(197,381,ls),
(226,534,o),
(299,617,o),
(416,617,cs),
(473,617,o),
(517,597,o),
(540,546,c),
(395,376,l),
(387,335,l),
(489,335,o),
(519,278,o),
(519,214,cs),
(519,151,o),
(486,14,o),
(386,14,cs),
(321,14,o),
(303,71,o),
(300,162,c),
(265,162,l),
(254,108,o),
(253,53,o),
(256,3,c),
(273,5,o),
(287,6,o),
(299,6,cs),
(328,6,o),
(351,-11,o),
(395,-11,cs)
);
}
);
width = 648;
},
{
anchors = (
{
name = bottom;
pos = (260,0);
},
{
name = top;
pos = (387,654);
}
);
background = {
shapes = (
{
closed = 1;
nodes = (
(19,-1,o),
(55,0,o),
(90,0,cs),
(126,0,o),
(162,-1,o),
(196,-6,c),
(205,38,l),
(173,54,o),
(139,63,o),
(102,63,cs),
(67,63,o),
(30,54,o),
(-9,38,c),
(-18,-6,l)
);
}
);
};
guides = (
{
angle = 139.2538;
pos = (479,474);
showMeasurement = 1;
}
);
layerId = "66C19249-B420-404C-A3E7-B74793AC6646";
shapes = (
{
closed = 1;
nodes = (
(492,-11,o),
(603,87,o),
(603,216,cs),
(603,291,o),
(559,355,o),
(460,377,c),
(645,592,l),
(596,636,o),
(537,666,o),
(439,666,cs),
(230,666,o),
(145,533,o),
(106,330,cs),
(54,60,ls),
(52,52,o),
(11,38,o),
(-11,32,c),
(-18,-6,l),
(19,-1,o),
(55,0,o),
(91,0,cs),
(126,0,o),
(163,-1,o),
(197,-6,c),
(204,32,l),
(185,37,o),
(148,52,o),
(148,60,c),
(155,132,o),
(167,200,o),
(182,277,cs),
(200,372,ls),
(229,525,o),
(303,610,o),
(429,610,cs),
(475,610,o),
(523,597,o),
(548,554,c),
(395,376,l),
(385,325,l),
(487,325,o),
(515,268,o),
(515,209,cs),
(515,167,o),
(495,40,o),
(394,40,cs),
(330,40,o),
(312,92,o),
(306,162,c),
(265,162,l),
(254,108,o),
(253,53,o),
(256,3,c),
(273,5,o),
(287,6,o),
(302,6,cs),
(328,6,o),
(355,-11,o),
(396,-11,cs)
);
}
);
width = 665;
},
{
anchors = (
{
name = bottom;
pos = (301,0);
},
{
name = top;
pos = (426,641);
}
);
background = {
shapes = (
{
closed = 1;
nodes = (
(22,-1,o),
(58,0,o),
(93,0,cs),
(129,0,o),
(165,-1,o),
(199,-6,c),
(203,14,l),
(171,30,o),
(137,39,o),
(101,39,cs),
(66,39,o),
(28,30,o),
(-11,14,c),
(-15,-6,l)
);
}
);
};
guides = (
{
angle = 139.7773;
pos = (479,472);
showMeasurement = 1;
}
);
layerId = m004;
shapes = (
{
closed = 1;
nodes = (
(491,-11,o),
(598,81,o),
(598,214,cs),
(598,296,o),
(549,362,o),
(442,381,c),
(612,582,l),
(562,631,o),
(513,658,o),
(425,658,cs),
(224,658,o),
(153,518,o),
(114,315,cs),
(62,45,ls),
(60,37,o),
(14,23,o),
(-10,17,c),
(-15,-6,l),
(21,-1,o),
(58,0,o),
(93,0,cs),
(128,0,o),
(165,-1,o),
(199,-6,c),
(204,17,l),
(182,22,o),
(142,37,o),
(142,45,c),
(148,118,o),
(160,188,o),
(180,292,cs),
(196,375,ls),
(228,541,o),
(302,634,o),
(421,634,cs),
(484,634,o),
(524,609,o),
(550,557,c),
(399,378,l),
(392,342,l),
(496,342,o),
(527,286,o),
(527,221,cs),
(527,153,o),
(489,13,o),
(388,13,cs),
(324,13,o),
(304,67,o),
(300,162,c),
(268,162,l),
(257,108,o),
(256,53,o),
(259,3,c),
(276,5,o),
(290,6,o),
(300,6,cs),
(331,6,o),
(351,-11,o),
(397,-11,cs)
);
}
);
width = 638;
},
{
anchors = (
{
name = bottom;
pos = (324,0);
},
{
name = top;
pos = (450,646);
}
);
layerId = "427C505E-2C0B-4FBE-8765-228C251EA8A7";
shapes = (
{
closed = 1;
nodes = (
(558,-11,o),
(680,83,o),
(680,215,cs),
(680,296,o),
(625,363,o),
(497,380,c),
(680,576,l),
(631,628,o),
(573,658,o),
(481,658,cs),
(249,658,o),
(140,518,o),
(101,314,cs),
(51,52,ls),
(49,44,o),
(3,31,o),
(-20,25,c),
(-25,-6,l),
(12,-1,o),
(48,0,o),
(132,0,cs),
(177,0,o),
(214,-1,o),
(248,-6,c),
(253,25,l),
(232,30,o),
(193,45,o),
(193,53,c),
(200,121,o),
(210,184,o),
(230,286,cs),
(247,374,ls),
(276,526,o),
(350,610,o),
(468,610,cs),
(524,610,o),
(569,592,o),
(594,549,c),
(437,382,l),
(428,329,l),
(490,329,o),
(520,273,o),
(520,210,cs),
(520,149,o),
(495,20,o),
(417,20,cs),
(367,20,o),
(353,75,o),
(351,162,c),
(306,162,l),
(295,108,o),
(294,53,o),
(297,3,c),
(316,5,o),
(332,6,o),
(345,6,cs),
(377,6,o),
(403,-11,o),
(452,-11,cs)
);
}
);
width = 715;
}
);
metricRight = B;
unicode = 7838;
},
{
glyphname = T;
kernLeft = KO_T;
kernRight = KO_T;
lastChange = "2025-05-03 00:08:03 +0000";
layers = (
{
anchors = (
{
name = bottom;
pos = (271,0);
},
{
name = center;
pos = (339,323);
},
{
name = top;
pos = (408,646);
}
);
background = {
shapes = (
{
closed = 1;
nodes = (
(171,-1,o),
(222,0,o),
(271,0,cs),
(320,0,o),
(369,-1,o),
(417,-6,c),
(423,18,l),
(377,34,o),
(329,43,o),
(280,43,cs),
(231,43,o),
(179,34,o),
(127,18,c),
(121,-6,l)
);
}
);
};
layerId = m01;
shapes = (
{
closed = 1;
nodes = (
(97,500,l),
(128,552,o),
(171,599,o),
(196,599,cs),
(645,599,l),
(636,500,l),
(669,500,l),
(721,650,l),
(678,647,o),
(647,646,o),
(607,646,cs),
(191,646,ls),
(167,646,o),
(142,649,o),
(118,650,c),
(64,500,l)
);
},
{
closed = 1;
nodes = (
(172,-1,o),
(222,0,o),
(271,0,cs),
(320,0,o),
(370,-1,o),
(418,-6,c),
(423,25,l),
(389,30,o),
(322,45,o),
(322,53,c),
(329,105,o),
(340,160,o),
(352,214,cs),
(396,419,ls),
(412,493,o),
(426,557,o),
(448,627,c),
(356,627,l),
(350,563,o),
(337,499,o),
(320,419,cs),
(276,214,ls),
(264,160,o),
(252,106,o),
(237,53,cs),
(235,45,o),
(164,31,o),
(127,25,c),
(122,-6,l)
);
}
);
width = 664;
},
{
anchors = (
{
name = bottom;
pos = (267,0);
},
{
name = center;
pos = (337,327);
},
{
name = top;
pos = (406,654);
}
);
background = {
shapes = (
{
closed = 1;
nodes = (
(168,-1,o),
(219,0,o),
(267,0,cs),
(317,0,o),
(366,-1,o),
(414,-6,c),
(424,38,l),
(378,54,o),
(330,63,o),
(281,63,cs),
(232,63,o),
(180,54,o),
(128,38,c),
(118,-6,l)
);
}
);
};
layerId = "66C19249-B420-404C-A3E7-B74793AC6646";
shapes = (
{
closed = 1;
nodes = (
(95,506,l),
(123,554,o),
(160,593,o),
(181,593,cs),
(640,593,l),
(634,506,l),
(667,506,l),
(719,658,l),
(677,655,o),
(644,654,o),
(605,654,cs),
(189,654,ls),
(165,654,o),
(140,657,o),
(116,658,c),
(62,506,l)
);
},
{
closed = 1;
nodes = (
(169,-1,o),
(219,0,o),
(268,0,cs),
(317,0,o),
(367,-1,o),
(415,-6,c),
(422,32,l),
(389,37,o),
(325,52,o),
(325,60,c),
(333,112,o),
(343,163,o),
(354,217,cs),
(398,424,ls),
(413,495,o),
(428,566,o),
(451,635,c),
(349,635,l),
(342,561,o),
(326,485,o),
(313,424,cs),
(269,217,ls),
(258,164,o),
(246,111,o),
(231,60,cs),
(229,52,o),
(161,38,o),
(126,32,c),
(119,-6,l)
);
}
);
width = 668;
},
{
anchors = (
{
name = bottom;
pos = (244,0);
},
{
name = center;
pos = (312,323);
},
{
name = top;
pos = (381,646);
}
);
background = {
shapes = (
{
closed = 1;
nodes = (
(144,-1,o),
(195,0,o),
(244,0,cs),
(293,0,o),
(342,-1,o),
(390,-6,c),
(395,14,l),
(346,31,o),
(299,39,o),
(252,39,cs),
(204,39,o),
(151,30,o),
(99,14,c),
(94,-6,l)
);
}
);
};
layerId = m004;
shapes = (
{
closed = 1;
nodes = (
(99,500,l),
(131,557,o),
(175,609,o),
(200,609,cs),
(591,609,l),
(580,500,l),
(611,500,l),
(663,650,l),
(620,647,o),
(589,646,o),
(549,646,cs),
(195,646,ls),
(171,646,o),
(146,649,o),
(122,650,c),
(68,500,l)
);
},
{
closed = 1;
nodes = (
(144,-1,o),
(194,0,o),
(243,0,cs),
(292,0,o),
(342,-1,o),
(390,-6,c),
(395,17,l),
(360,22,o),
(291,37,o),
(291,45,c),
(298,99,o),
(310,157,o),
(322,214,cs),
(366,419,ls),
(382,493,o),
(396,557,o),
(418,627,c),
(332,627,l),
(326,563,o),
(313,499,o),
(296,419,cs),
(252,214,ls),
(240,157,o),
(228,102,o),
(210,45,cs),
(207,37,o),
(136,23,o),
(99,17,c),
(94,-6,l)
);
}
);
width = 599;
},
{
anchors = (
{
name = bottom;
pos = (266,0);
},
{
name = center;
pos = (334,323);
},
{
name = top;
pos = (403,646);
}
);
layerId = "427C505E-2C0B-4FBE-8765-228C251EA8A7";
shapes = (
{
closed = 1;
nodes = (
(98,500,l),
(127,549,o),
(168,593,o),
(191,593,cs),
(634,593,l),
(625,500,l),
(664,500,l),
(716,650,l),
(673,647,o),
(642,646,o),
(602,646,cs),
(186,646,ls),
(162,646,o),
(137,649,o),
(113,650,c),
(59,500,l)
);
},
{
closed = 1;
nodes = (
(150,-1,o),
(208,0,o),
(266,0,cs),
(323,0,o),
(381,-1,o),
(439,-6,c),
(445,31,l),
(409,36,o),
(349,51,o),
(349,59,c),
(356,111,o),
(365,154,o),
(378,214,cs),
(428,452,ls),
(440,509,o),
(452,565,o),
(469,627,c),
(324,627,l),
(316,567,o),
(306,518,o),
(292,452,cs),
(242,214,ls),
(231,162,o),
(220,113,o),
(204,59,cs),
(202,51,o),
(137,37,o),
(98,31,c),
(92,-6,l)
);
}
);
width = 654;
}
);
unicode = 84;
userData = {
KernOnName = T;
};
},
{
glyphname = U;
kernLeft = KO_U;
kernRight = KO_U;
lastChange = "2025-04-03 16:27:11 +0000";
layers = (
{
anchors = (
{
name = bottom;
pos = (326,0);
},
{
name = ogonek;
pos = (442,10);
},
{
name = top;
pos = (463,646);
},
{
name = topright;
pos = (846,646);
}
);
layerId = m01;
shapes = (
{
closed = 1;
nodes = (
(437,-11,o),
(531,36,o),
(586,127,cs),
(615,175,o),
(633,246,o),
(657,359,cs),
(674,438,o),
(691,515,o),
(709,593,cs),
(711,601,o),
(767,614,o),
(796,619,c),
(801,650,l),
(767,647,o),
(733,646,o),
(700,646,cs),
(666,646,o),
(632,647,o),
(600,650,c),
(595,619,l),
(619,613,o),
(664,601,o),
(664,593,c),
(646,499,o),
(628,411,o),
(604,298,cs),
(561,98,o),
(480,28,o),
(347,28,cs),
(241,28,o),
(190,74,o),
(190,173,cs),
(190,224,o),
(239,455,o),
(272,593,cs),
(274,601,o),
(313,614,o),
(335,619,c),
(340,650,l),
(308,647,o),
(276,646,o),
(245,646,cs),
(214,646,o),
(182,647,o),
(152,650,c),
(147,619,l),
(164,613,o),
(191,602,o),
(191,594,c),
(118,234,o),
(113,193,o),
(113,165,cs),
(113,104,o),
(131,56,o),
(174,24,cs),
(205,1,o),
(260,-11,o),
(318,-11,cs)
);
}
);
width = 750;
},
{
anchors = (
{
name = bottom;
pos = (320,0);
},
{
name = ogonek;
pos = (432,10);
},
{
name = top;
pos = (469,654);
},
{
name = topright;
pos = (848,654);
}
);
layerId = "66C19249-B420-404C-A3E7-B74793AC6646";
shapes = (
{
closed = 1;
nodes = (
(421,-11,o),
(515,31,o),
(571,124,cs),
(601,174,o),
(626,249,o),
(650,363,cs),
(666,440,o),
(683,517,o),
(702,594,cs),
(704,602,o),
(755,615,o),
(781,620,c),
(787,658,l),
(754,655,o),
(720,654,o),
(687,654,cs),
(653,654,o),
(619,655,o),
(586,658,c),
(580,620,l),
(603,614,o),
(645,603,o),
(645,595,c),
(626,499,o),
(605,397,o),
(589,321,cs),
(545,115,o),
(469,45,o),
(346,45,cs),
(252,45,o),
(204,90,o),
(204,188,cs),
(204,242,o),
(249,455,o),
(280,594,cs),
(282,602,o),
(319,615,o),
(340,620,c),
(346,658,l),
(315,655,o),
(283,654,o),
(252,654,cs),
(221,654,o),
(189,655,o),
(158,658,c),
(152,620,l),
(167,614,o),
(193,603,o),
(193,595,c),
(117,234,o),
(114,195,o),
(114,164,cs),
(114,106,o),
(130,57,o),
(174,24,cs),
(206,0,o),
(261,-11,o),
(315,-11,cs)
);
}
);
width = 745;
},
{
anchors = (
{
name = bottom;
pos = (313,0);
},
{
name = ogonek;
pos = (418,10);
},
{
name = top;
pos = (460,646);
},
{
name = topright;
pos = (799,646);
}
);
layerId = m004;
shapes = (
{
closed = 1;
nodes = (
(408,-11,o),
(495,30,o),
(551,125,cs),
(580,174,o),
(601,253,o),
(624,362,cs),
(642,445,o),
(657,515,o),
(677,601,cs),
(679,609,o),
(737,622,o),
(766,627,c),
(771,650,l),
(737,647,o),
(703,646,o),
(670,646,cs),
(637,646,o),
(603,647,o),
(571,650,c),
(566,627,l),
(592,621,o),
(640,609,o),
(640,601,c),
(619,496,o),
(599,397,o),
(576,287,cs),
(533,85,o),
(455,14,o),
(329,14,cs),
(231,14,o),
(184,59,o),
(184,155,cs),
(184,216,o),
(227,426,o),
(264,601,cs),
(266,609,o),
(313,622,o),
(336,627,c),
(341,650,l),
(309,647,o),
(277,646,o),
(246,646,cs),
(215,646,o),
(183,647,o),
(153,650,c),
(148,627,l),
(166,621,o),
(197,610,o),
(197,602,c),
(124,234,o),
(115,185,o),
(115,156,cs),
(115,97,o),
(131,52,o),
(168,23,cs),
(196,1,o),
(249,-11,o),
(305,-11,cs)
);
}
);
width = 712;
},
{
anchors = (
{
name = bottom;
pos = (351,0);
},
{
name = ogonek;
pos = (467,10);
},
{
name = top;
pos = (488,646);
},
{
name = topright;
pos = (871,646);
}
);
layerId = "427C505E-2C0B-4FBE-8765-228C251EA8A7";
shapes = (
{
closed = 1;
nodes = (
(462,-11,o),
(557,36,o),
(612,127,cs),
(641,176,o),
(661,246,o),
(685,359,cs),
(702,438,o),
(718,509,o),
(736,587,cs),
(738,595,o),
(794,608,o),
(823,613,c),
(829,650,l),
(795,647,o),
(761,646,o),
(728,646,cs),
(690,646,o),
(655,647,o),
(622,650,c),
(616,613,l),
(640,607,o),
(685,595,o),
(685,587,c),
(667,493,o),
(650,411,o),
(626,298,cs),
(584,102,o),
(503,34,o),
(372,34,cs),
(286,34,o),
(245,81,o),
(245,176,cs),
(245,227,o),
(292,449,o),
(325,587,cs),
(327,595,o),
(366,608,o),
(388,613,c),
(394,650,l),
(362,647,o),
(330,646,o),
(270,646,cs),
(239,646,o),
(177,647,o),
(147,650,c),
(141,613,l),
(158,607,o),
(185,596,o),
(185,588,c),
(112,228,o),
(108,193,o),
(108,165,cs),
(108,104,o),
(141,56,o),
(184,24,cs),
(215,1,o),
(285,-11,o),
(343,-11,cs)
);
}
);
width = 772;
}
);
metricLeft = "=H@350";
metricRight = "=H*0.8";
unicode = 85;
},
{
glyphname = V;
kernLeft = KO_V;
kernRight = KO_V;
lastChange = "2025-05-03 00:09:07 +0000";
layers = (
{
anchors = (
{
name = bottom;
pos = (316,0);
},
{
name = top;
pos = (453,646);
}
);
layerId = m01;
shapes = (
{
closed = 1;
nodes = (
(313,-11,l),
(376,99,o),
(445,211,o),
(514,312,cs),
(706,594,ls),
(711,602,o),
(751,614,o),
(774,619,c),
(779,650,l),
(752,647,o),
(725,646,o),
(698,646,cs),
(662,646,o),
(627,647,o),
(591,650,c),
(586,619,l),
(610,613,o),
(654,601,o),
(654,593,c),
(580,478,o),
(510,373,o),
(433,259,cs),
(347,132,l),
(291,359,ls),
(272,436,o),
(253,515,o),
(241,593,c),
(241,601,o),
(284,614,o),
(306,619,c),
(311,650,l),
(273,647,o),
(236,646,o),
(198,646,cs),
(162,646,o),
(125,647,o),
(89,650,c),
(84,619,l),
(107,613,o),
(146,601,o),
(148,593,cs),
(236,238,ls),
(256,157,o),
(266,72,o),
(272,-11,c)
);
}
);
width = 721;
},
{
anchors = (
{
name = bottom;
pos = (318,0);
},
{
name = top;
pos = (457,654);
}
);
layerId = "66C19249-B420-404C-A3E7-B74793AC6646";
shapes = (
{
closed = 1;
nodes = (
(322,-11,l),
(385,101,o),
(456,217,o),
(523,316,cs),
(711,594,l),
(711,602,o),
(757,615,o),
(780,620,c),
(786,658,l),
(757,655,o),
(729,654,o),
(693,654,cs),
(659,654,o),
(627,655,o),
(586,658,c),
(581,620,l),
(605,614,o),
(648,602,o),
(648,594,c),
(583,492,o),
(517,393,o),
(435,271,cs),
(349,144,l),
(296,363,ls),
(277,442,o),
(259,519,o),
(249,594,c),
(249,602,o),
(291,615,o),
(313,620,c),
(318,658,l),
(276,655,o),
(236,654,o),
(194,654,cs),
(159,654,o),
(123,655,o),
(88,658,c),
(82,620,l),
(104,614,o),
(144,602,o),
(146,594,cs),
(232,241,ls),
(251,162,o),
(262,82,o),
(268,-11,c)
);
}
);
width = 735;
},
{
anchors = (
{
name = bottom;
pos = (287,0);
},
{
name = top;
pos = (425,646);
}
);
guides = (
{
pos = (235,359);
}
);
layerId = m004;
shapes = (
{
closed = 1;
nodes = (
(283,-11,l),
(343,101,o),
(405,208,o),
(471,312,cs),
(654,601,ls),
(659,609,o),
(697,622,o),
(717,627,c),
(722,650,l),
(697,647,o),
(671,646,o),
(647,646,cs),
(617,646,o),
(586,647,o),
(557,650,c),
(552,627,l),
(574,621,o),
(610,609,o),
(610,601,c),
(541,485,o),
(481,388,o),
(401,261,cs),
(318,129,l),
(271,359,ls),
(255,439,o),
(239,521,o),
(230,602,c),
(230,610,o),
(269,622,o),
(287,627,c),
(292,650,l),
(261,647,o),
(228,646,o),
(197,646,cs),
(163,646,o),
(128,647,o),
(94,650,c),
(89,627,l),
(109,621,o),
(144,610,o),
(146,602,cs),
(220,238,ls),
(236,160,o),
(243,74,o),
(247,-11,c)
);
}
);
width = 657;
},
{
anchors = (
{
name = bottom;
pos = (331,0);
},
{
name = top;
pos = (468,646);
}
);
layerId = "427C505E-2C0B-4FBE-8765-228C251EA8A7";
shapes = (
{
closed = 1;
nodes = (
(332,-11,l),
(395,99,o),
(464,211,o),
(533,312,cs),
(721,588,ls),
(726,596,o),
(769,608,o),
(792,613,c),
(798,650,l),
(771,647,o),
(744,646,o),
(713,646,cs),
(673,646,o),
(635,647,o),
(599,650,c),
(593,613,l),
(617,607,o),
(661,595,o),
(661,587,c),
(587,472,o),
(522,371,o),
(444,258,cs),
(383,170,l),
(336,359,ls),
(317,436,o),
(299,509,o),
(287,587,c),
(287,595,o),
(330,608,o),
(352,613,c),
(358,650,l),
(320,647,o),
(282,646,o),
(214,646,cs),
(178,646,o),
(121,647,o),
(85,650,c),
(79,613,l),
(102,607,o),
(142,595,o),
(144,587,cs),
(231,238,ls),
(251,157,o),
(261,72,o),
(267,-11,c)
);
}
);
width = 736;
}
);
unicode = 86;
userData = {
KernOnName = V;
};
},
{
glyphname = W;
kernLeft = KO_W;
kernRight = KO_W;
lastChange = "2025-05-03 00:09:28 +0000";
layers = (
{
anchors = (
{
name = bottom;
pos = (423,0);
},
{
name = top;
pos = (560,646);
}
);
layerId = m01;
shapes = (
{
closed = 1;
nodes = (
(279,-11,l),
(337,96,o),
(401,200,o),
(467,301,cs),
(552,431,l),
(543,488,l),
(307,127,l),
(267,369,ls),
(254,446,o),
(242,520,o),
(237,593,c),
(237,601,o),
(278,614,o),
(300,619,c),
(304,650,l),
(266,647,o),
(228,646,o),
(190,646,cs),
(155,646,o),
(123,647,o),
(89,650,c),
(84,619,l),
(106,613,o),
(146,601,o),
(147,593,cs),
(204,256,ls),
(218,173,o),
(233,81,o),
(239,-11,c)
);
},
{
closed = 1;
nodes = (
(615,-11,l),
(668,104,o),
(724,213,o),
(779,310,cs),
(939,593,ls),
(943,601,o),
(988,614,o),
(1012,619,c),
(1017,650,l),
(988,647,o),
(961,646,o),
(933,646,cs),
(896,646,o),
(859,647,o),
(824,650,c),
(819,619,l),
(844,613,o),
(890,601,o),
(890,593,c),
(835,484,o),
(773,374,o),
(713,268,cs),
(641,141,l),
(603,369,ls),
(590,446,o),
(578,520,o),
(573,593,c),
(573,601,o),
(615,614,o),
(636,619,c),
(641,650,l),
(604,647,o),
(569,646,o),
(533,646,cs),
(497,646,o),
(460,647,o),
(425,650,c),
(420,619,l),
(443,613,o),
(482,601,o),
(483,593,cs),
(540,256,ls),
(554,173,o),
(569,81,o),
(575,-11,c)
);
}
);
width = 959;
},
{
anchors = (
{
name = bottom;
pos = (430,0);
},
{
name = top;
pos = (569,654);
}
);
background = {
shapes = (
{
closed = 0;
nodes = (
(1026,658,l),
(997,655,o),
(967,654,o),
(938,654,cs)
);
}
);
};
layerId = "66C19249-B420-404C-A3E7-B74793AC6646";
shapes = (
{
closed = 1;
nodes = (
(290,-11,l),
(348,95,o),
(405,192,o),
(478,305,cs),
(558,429,l),
(544,493,l),
(311,135,l),
(272,370,ls),
(259,447,o),
(247,521,o),
(243,594,c),
(243,602,o),
(285,615,o),
(306,620,c),
(312,658,l),
(277,655,o),
(243,654,o),
(208,654,cs),
(168,654,o),
(128,655,o),
(88,658,c),
(82,620,l),
(104,614,o),
(144,602,o),
(145,594,cs),
(200,259,ls),
(213,177,o),
(242,81,o),
(246,-11,c)
);
},
{
closed = 1;
nodes = (
(626,-11,l),
(675,95,o),
(724,194,o),
(791,314,cs),
(947,594,ls),
(951,602,o),
(996,615,o),
(1020,620,c),
(1026,658,l),
(997,655,o),
(967,654,o),
(938,654,cs),
(899,654,o),
(860,655,o),
(821,658,c),
(815,620,l),
(839,614,o),
(885,602,o),
(885,594,c),
(834,495,o),
(782,399,o),
(717,283,cs),
(644,153,l),
(608,370,ls),
(595,447,o),
(583,521,o),
(580,594,c),
(580,602,o),
(622,615,o),
(643,620,c),
(649,658,l),
(613,655,o),
(577,654,o),
(541,654,cs),
(502,654,o),
(463,655,o),
(424,658,c),
(418,620,l),
(440,614,o),
(480,602,o),
(481,594,cs),
(536,259,ls),
(549,177,o),
(578,81,o),
(582,-11,c)
);
}
);
width = 975;
},
{
anchors = (
{
name = bottom;
pos = (418,0);
},
{
name = top;
pos = (556,646);
}
);
layerId = m004;
shapes = (
{
closed = 1;
nodes = (
(268,-11,l),
(327,98,o),
(387,198,o),
(452,299,cs),
(540,436,l),
(532,483,l),
(298,119,l),
(257,367,ls),
(244,444,o),
(233,522,o),
(228,601,c),
(228,609,o),
(267,622,o),
(285,627,c),
(290,650,l),
(260,647,o),
(230,646,o),
(200,646,cs),
(164,646,o),
(130,647,o),
(94,650,c),
(89,627,l),
(110,621,o),
(145,609,o),
(146,601,cs),
(202,253,ls),
(215,173,o),
(230,79,o),
(235,-11,c)
);
},
{
closed = 1;
nodes = (
(599,-11,l),
(651,98,o),
(703,200,o),
(762,306,cs),
(927,601,ls),
(931,609,o),
(971,622,o),
(993,627,c),
(998,650,l),
(973,647,o),
(948,646,o),
(923,646,cs),
(890,646,o),
(857,647,o),
(824,650,c),
(819,627,l),
(844,621,o),
(883,609,o),
(883,601,c),
(820,480,o),
(747,349,o),
(699,263,cs),
(625,130,l),
(587,367,ls),
(574,446,o),
(563,523,o),
(558,601,c),
(558,609,o),
(596,622,o),
(615,627,c),
(620,650,l),
(584,647,o),
(548,646,o),
(512,646,cs),
(483,646,o),
(453,647,o),
(424,650,c),
(419,627,l),
(440,621,o),
(475,609,o),
(476,601,cs),
(531,254,ls),
(544,173,o),
(559,78,o),
(564,-11,c)
);
}
);
width = 933;
},
{
anchors = (
{
name = bottom;
pos = (449,0);
},
{
name = top;
pos = (586,646);
}
);
layerId = "427C505E-2C0B-4FBE-8765-228C251EA8A7";
shapes = (
{
closed = 1;
nodes = (
(309,-11,l),
(367,96,o),
(431,200,o),
(497,301,cs),
(582,431,l),
(566,489,l),
(351,159,l),
(316,369,ls),
(303,446,o),
(292,514,o),
(287,587,cs),
(287,595,o),
(327,608,o),
(349,613,c),
(353,650,l),
(315,647,o),
(277,646,o),
(216,646,cs),
(151,646,o),
(119,647,o),
(85,650,c),
(80,613,l),
(102,607,o),
(143,595,o),
(144,587,cs),
(200,256,ls),
(214,173,o),
(229,81,o),
(235,-11,c)
);
},
{
closed = 1;
nodes = (
(645,-11,l),
(698,104,o),
(754,213,o),
(809,310,cs),
(966,587,ls),
(970,595,o),
(1018,608,o),
(1042,613,c),
(1047,650,l),
(1018,647,o),
(987,646,o),
(959,646,cs),
(919,646,o),
(882,647,o),
(847,650,c),
(842,613,l),
(867,607,o),
(910,595,o),
(910,587,c),
(854,478,o),
(796,374,o),
(736,268,cs),
(683,175,l),
(651,369,ls),
(638,446,o),
(627,514,o),
(622,587,cs),
(622,595,o),
(663,608,o),
(684,613,c),
(689,650,l),
(652,647,o),
(617,646,o),
(559,646,cs),
(493,646,o),
(456,647,o),
(421,650,c),
(416,613,l),
(439,607,o),
(479,595,o),
(480,587,cs),
(536,256,ls),
(550,173,o),
(565,81,o),
(571,-11,c)
);
}
);
width = 986;
}
);
metricLeft = V;
metricRight = V;
unicode = 87;
},
{
glyphname = X;
kernLeft = KO_X;
kernRight = KO_X;
lastChange = "2025-05-03 00:11:11 +0000";
layers = (
{
anchors = (
{
name = bottom;
pos = (332,0);
},
{
name = top;
pos = (470,646);
}
);
layerId = m01;
shapes = (
{
closed = 1;
nodes = (
(502,-1,o),
(542,0,o),
(582,0,cs),
(621,0,o),
(661,-1,o),
(699,-6,c),
(704,25,l),
(677,30,o),
(631,45,o),
(626,53,cs),
(421,376,ls),
(377,446,o),
(332,521,o),
(291,593,c),
(291,601,o),
(321,614,o),
(337,619,c),
(342,650,l),
(305,647,o),
(269,646,o),
(233,646,cs),
(197,646,o),
(161,647,o),
(126,650,c),
(122,619,l),
(144,613,o),
(180,601,o),
(185,593,cs),
(399,256,ls),
(443,186,o),
(484,120,o),
(520,53,c),
(520,45,o),
(484,31,o),
(467,25,c),
(462,-6,l)
);
},
{
closed = 1;
nodes = (
(13,-1,o),
(53,0,o),
(93,0,cs),
(132,0,o),
(173,-1,o),
(211,-6,c),
(216,25,l),
(196,31,o),
(158,45,o),
(158,53,c),
(223,122,o),
(286,187,o),
(354,254,cs),
(429,327,l),
(382,327,l),
(312,257,ls),
(241,186,o),
(173,119,o),
(104,53,cs),
(95,45,o),
(20,31,o),
(-23,25,c),
(-28,-6,l)
);
},
{
closed = 1;
nodes = (
(436,319,l),
(500,382,ls),
(572,452,o),
(646,523,o),
(719,593,cs),
(727,601,o),
(778,614,o),
(809,619,c),
(814,650,l),
(777,647,o),
(742,646,o),
(706,646,cs),
(670,646,o),
(635,647,o),
(600,650,c),
(595,619,l),
(615,614,o),
(659,601,o),
(659,593,c),
(598,530,o),
(534,464,o),
(471,400,cs),
(389,317,l)
);
}
);
width = 755;
},
{
anchors = (
{
name = bottom;
pos = (324,0);
},
{
name = top;
pos = (463,654);
}
);
layerId = "66C19249-B420-404C-A3E7-B74793AC6646";
shapes = (
{
closed = 1;
nodes = (
(484,-1,o),
(523,0,o),
(562,0,cs),
(601,0,o),
(640,-1,o),
(678,-6,c),
(685,32,l),
(662,37,o),
(622,52,o),
(617,60,cs),
(417,384,ls),
(374,454,o),
(331,524,o),
(295,594,c),
(295,602,o),
(332,615,o),
(351,620,c),
(357,658,l),
(318,655,o),
(278,654,o),
(239,654,cs),
(199,654,o),
(159,655,o),
(120,658,c),
(114,620,l),
(136,614,o),
(171,602,o),
(176,594,cs),
(392,244,ls),
(430,182,o),
(468,120,o),
(499,60,c),
(499,52,o),
(467,38,o),
(451,32,c),
(444,-6,l)
);
},
{
closed = 1;
nodes = (
(14,-1,o),
(58,0,o),
(101,0,cs),
(143,0,o),
(187,-1,o),
(229,-6,c),
(236,32,l),
(208,37,o),
(153,52,o),
(153,60,c),
(216,123,o),
(276,183,o),
(345,249,cs),
(425,326,l),
(362,326,l),
(295,261,ls),
(220,188,o),
(159,129,o),
(84,60,cs),
(75,52,o),
(13,38,o),
(-23,32,c),
(-30,-6,l)
);
},
{
closed = 1;
nodes = (
(439,326,l),
(504,390,ls),
(571,456,o),
(648,529,o),
(719,594,cs),
(728,602,o),
(767,615,o),
(792,620,c),
(798,658,l),
(762,655,o),
(726,654,o),
(691,654,cs),
(655,654,o),
(619,655,o),
(583,658,c),
(577,620,l),
(601,614,o),
(642,602,o),
(642,594,c),
(582,531,o),
(519,468,o),
(456,405,cs),
(376,326,l)
);
}
);
width = 746;
},
{
anchors = (
{
name = bottom;
pos = (304,0);
},
{
name = top;
pos = (442,646);
}
);
layerId = m004;
shapes = (
{
closed = 1;
nodes = (
(456,-1,o),
(493,0,o),
(528,0,cs),
(563,0,o),
(600,-1,o),
(634,-6,c),
(639,17,l),
(615,22,o),
(576,37,o),
(572,45,cs),
(403,366,ls),
(363,442,o),
(322,521,o),
(285,602,c),
(285,610,o),
(314,622,o),
(328,627,c),
(333,650,l),
(299,647,o),
(266,646,o),
(233,646,cs),
(200,646,o),
(167,647,o),
(135,650,c),
(130,627,l),
(152,621,o),
(188,609,o),
(192,601,cs),
(368,266,ls),
(409,188,o),
(444,119,o),
(478,45,c),
(478,37,o),
(442,23,o),
(425,17,c),
(420,-6,l)
);
},
{
closed = 1;
nodes = (
(12,-1,o),
(49,0,o),
(84,0,cs),
(119,0,o),
(156,-1,o),
(190,-6,c),
(195,17,l),
(172,22,o),
(130,37,o),
(130,45,c),
(195,115,o),
(263,188,o),
(325,253,cs),
(396,327,l),
(357,327,l),
(296,264,ls),
(225,191,o),
(153,117,o),
(81,44,cs),
(73,36,o),
(14,23,o),
(-19,17,c),
(-24,-6,l)
);
},
{
closed = 1;
nodes = (
(406,327,l),
(466,390,ls),
(535,462,o),
(607,535,o),
(674,601,cs),
(682,609,o),
(724,622,o),
(747,627,c),
(752,650,l),
(723,647,o),
(693,646,o),
(665,646,cs),
(636,646,o),
(607,647,o),
(579,650,c),
(574,627,l),
(592,621,o),
(624,609,o),
(624,601,c),
(558,530,o),
(489,456,o),
(439,403,cs),
(367,327,l)
);
}
);
width = 686;
},
{
anchors = (
{
name = bottom;
pos = (331,0);
},
{
name = top;
pos = (469,646);
}
);
background = {
shapes = (
{
closed = 1;
nodes = (
(483,-1,o),
(531,0,o),
(580,0,cs),
(628,0,o),
(677,-1,o),
(725,-6,c),
(730,25,l),
(703,30,o),
(657,45,o),
(652,53,cs),
(447,376,ls),
(403,446,o),
(358,521,o),
(317,593,c),
(317,601,o),
(347,614,o),
(363,619,c),
(368,650,l),
(323,647,o),
(278,646,o),
(233,646,cs),
(188,646,o),
(143,647,o),
(98,650,c),
(93,619,l),
(115,613,o),
(152,601,o),
(157,593,cs),
(371,256,ls),
(416,186,o),
(457,120,o),
(492,53,c),
(492,45,o),
(456,31,o),
(439,25,c),
(434,-6,l)
);
},
{
closed = 1;
nodes = (
(9,-1,o),
(50,0,o),
(91,0,cs),
(131,0,o),
(172,-1,o),
(213,-6,c),
(218,25,l),
(198,31,o),
(160,45,o),
(160,53,c),
(224,120,o),
(288,187,o),
(356,254,cs),
(431,327,l),
(378,327,l),
(308,257,ls),
(237,186,o),
(166,118,o),
(96,53,cs),
(87,45,o),
(16,31,o),
(-27,25,c),
(-32,-6,l)
);
},
{
closed = 1;
nodes = (
(439,319,l),
(503,382,ls),
(575,452,o),
(650,524,o),
(726,593,cs),
(734,601,o),
(778,614,o),
(809,619,c),
(814,650,l),
(777,647,o),
(740,646,o),
(706,646,cs),
(669,646,o),
(632,647,o),
(595,650,c),
(590,619,l),
(610,614,o),
(654,601,o),
(654,593,c),
(591,527,o),
(529,464,o),
(466,400,cs),
(384,317,l)
);
}
);
};
guides = (
{
angle = 32.4162;
pos = (291,425);
showMeasurement = 1;
}
);
layerId = "427C505E-2C0B-4FBE-8765-228C251EA8A7";
shapes = (
{
closed = 1;
nodes = (
(483,-1,o),
(531,0,o),
(580,0,cs),
(628,0,o),
(677,-1,o),
(725,-6,c),
(731,31,l),
(704,36,o),
(654,51,o),
(649,59,cs),
(447,376,ls),
(402,446,o),
(360,515,o),
(319,587,c),
(319,595,o),
(349,608,o),
(365,613,c),
(371,650,l),
(326,647,o),
(278,646,o),
(233,646,cs),
(188,646,o),
(143,647,o),
(98,650,c),
(92,613,l),
(114,607,o),
(151,595,o),
(156,587,cs),
(371,256,ls),
(416,186,o),
(454,126,o),
(489,59,c),
(489,51,o),
(457,37,o),
(440,31,c),
(434,-6,l)
);
},
{
closed = 1;
nodes = (
(9,-1,o),
(50,0,o),
(91,0,cs),
(131,0,o),
(172,-1,o),
(213,-6,c),
(219,31,l),
(199,37,o),
(166,51,o),
(166,59,c),
(229,126,o),
(288,187,o),
(356,254,cs),
(431,327,l),
(378,327,l),
(308,257,ls),
(237,186,o),
(172,124,o),
(102,59,cs),
(93,51,o),
(17,37,o),
(-26,31,c),
(-32,-6,l)
);
},
{
closed = 1;
nodes = (
(439,319,l),
(503,382,ls),
(575,452,o),
(643,518,o),
(719,587,cs),
(727,595,o),
(777,608,o),
(808,613,c),
(814,650,l),
(777,647,o),
(740,646,o),
(706,646,cs),
(669,646,o),
(632,647,o),
(595,650,c),
(589,613,l),
(609,608,o),
(647,595,o),
(647,587,c),
(584,521,o),
(529,464,o),
(466,400,cs),
(384,317,l)
);
}
);
width = 777;
}
);
unicode = 88;
userData = {
KernOnName = X;
};
},
{
glyphname = Y;
kernLeft = KO_Y;
kernRight = KO_Y;
lastChange = "2025-05-03 00:12:24 +0000";
layers = (
{
anchors = (
{
name = bottom;
pos = (284,0);
},
{
name = top;
pos = (421,646);
},
{
name = topleft;
pos = (106,646);
}
);
layerId = m01;
shapes = (
{
closed = 1;
nodes = (
(180,-1,o),
(230,0,o),
(280,0,cs),
(329,0,o),
(379,-1,o),
(427,-6,c),
(432,25,l),
(398,30,o),
(331,45,o),
(331,53,c),
(339,108,o),
(350,162,o),
(361,214,cs),
(378,295,l),
(629,593,ls),
(636,601,o),
(701,614,o),
(737,619,c),
(742,650,l),
(706,647,o),
(671,646,o),
(637,646,cs),
(602,646,o),
(567,647,o),
(533,650,c),
(528,619,l),
(545,613,o),
(575,601,o),
(575,593,c),
(542,547,o),
(506,499,o),
(476,464,cs),
(369,336,l),
(309,488,ls),
(296,521,o),
(285,554,o),
(274,593,c),
(274,601,o),
(314,614,o),
(334,619,c),
(339,650,l),
(299,647,o),
(259,646,o),
(220,646,cs),
(180,646,o),
(140,647,o),
(102,650,c),
(97,619,l),
(126,613,o),
(175,601,o),
(178,593,cs),
(300,285,l),
(285,214,ls),
(273,159,o),
(261,105,o),
(246,52,cs),
(244,44,o),
(172,31,o),
(135,25,c),
(130,-6,l)
);
}
);
width = 669;
},
{
anchors = (
{
name = bottom;
pos = (302,0);
},
{
name = top;
pos = (441,654);
},
{
name = topleft;
pos = (105,654);
}
);
layerId = "66C19249-B420-404C-A3E7-B74793AC6646";
shapes = (
{
closed = 1;
nodes = (
(189,-1,o),
(239,0,o),
(289,0,cs),
(338,0,o),
(388,-1,o),
(436,-6,c),
(443,32,l),
(410,37,o),
(346,52,o),
(346,60,c),
(352,108,o),
(362,160,o),
(374,217,cs),
(386,274,l),
(655,594,ls),
(661,602,o),
(733,615,o),
(772,620,c),
(778,658,l),
(738,655,o),
(698,654,o),
(658,654,cs),
(618,654,o),
(578,655,o),
(538,658,c),
(532,620,l),
(557,615,o),
(587,603,o),
(587,595,c),
(555,551,o),
(518,505,o),
(486,466,cs),
(379,338,l),
(322,481,ls),
(309,513,o),
(295,553,o),
(283,595,c),
(283,603,o),
(327,615,o),
(349,620,c),
(355,658,l),
(313,655,o),
(271,654,o),
(230,654,cs),
(188,654,o),
(146,655,o),
(104,658,c),
(98,620,l),
(125,615,o),
(175,603,o),
(178,595,cs),
(302,277,l),
(289,217,ls),
(278,164,o),
(266,111,o),
(251,59,cs),
(249,51,o),
(181,38,o),
(146,32,c),
(139,-6,l)
);
}
);
width = 709;
},
{
anchors = (
{
name = bottom;
pos = (282,0);
},
{
name = top;
pos = (420,646);
},
{
name = topleft;
pos = (110,646);
}
);
layerId = m004;
shapes = (
{
closed = 1;
nodes = (
(183,-1,o),
(233,0,o),
(283,0,cs),
(332,0,o),
(382,-1,o),
(430,-6,c),
(435,17,l),
(400,22,o),
(333,37,o),
(333,45,c),
(337,83,o),
(345,127,o),
(363,214,cs),
(382,304,l),
(630,601,ls),
(637,609,o),
(698,622,o),
(731,627,c),
(736,650,l),
(701,647,o),
(665,646,o),
(631,646,cs),
(596,646,o),
(560,647,o),
(527,650,c),
(522,627,l),
(544,621,o),
(581,609,o),
(581,601,c),
(550,558,o),
(520,519,o),
(476,465,cs),
(375,341,l),
(313,486,ls),
(296,525,o),
(283,562,o),
(270,601,c),
(270,609,o),
(309,622,o),
(328,627,c),
(333,650,l),
(294,647,o),
(255,646,o),
(218,646,cs),
(180,646,o),
(141,647,o),
(105,650,c),
(100,627,l),
(128,621,o),
(178,610,o),
(181,602,cs),
(310,296,l),
(293,214,ls),
(276,133,o),
(264,85,o),
(252,45,cs),
(250,37,o),
(176,23,o),
(138,17,c),
(133,-6,l)
);
}
);
width = 657;
},
{
anchors = (
{
name = bottom;
pos = (301,0);
},
{
name = top;
pos = (438,646);
},
{
name = topleft;
pos = (123,646);
}
);
layerId = "427C505E-2C0B-4FBE-8765-228C251EA8A7";
shapes = (
{
closed = 1;
nodes = (
(169,-1,o),
(247,0,o),
(297,0,cs),
(378,0,o),
(428,-1,o),
(476,-6,c),
(482,31,l),
(448,36,o),
(381,51,o),
(381,59,c),
(389,114,o),
(399,162,o),
(410,214,cs),
(436,336,l),
(647,587,ls),
(654,595,o),
(724,608,o),
(760,613,c),
(765,650,l),
(729,647,o),
(694,646,o),
(660,646,cs),
(625,646,o),
(579,647,o),
(545,650,c),
(540,613,l),
(557,607,o),
(582,595,o),
(582,587,c),
(549,541,o),
(518,499,o),
(488,464,cs),
(402,361,l),
(352,488,ls),
(339,521,o),
(330,548,o),
(319,587,c),
(319,595,o),
(357,608,o),
(377,613,c),
(382,650,l),
(342,647,o),
(302,646,o),
(237,646,cs),
(172,646,o),
(132,647,o),
(94,650,c),
(89,613,l),
(118,607,o),
(169,595,o),
(172,587,cs),
(290,290,l),
(274,214,ls),
(262,159,o),
(251,111,o),
(236,58,cs),
(234,50,o),
(162,37,o),
(125,31,c),
(119,-6,l)
);
}
);
width = 693;
}
);
unicode = 89;
},
{
glyphname = Z;
kernLeft = KO_Z;
kernRight = KO_Z;
lastChange = "2025-03-29 15:15:59 +0000";
layers = (
{
anchors = (
{
name = bottom;
pos = (256,0);
},
{
name = center;
pos = (313,323);
},
{
name = top;
pos = (394,646);
}
);
layerId = m01;
shapes = (
{
closed = 1;
nodes = (
(304,0,l),
(357,0,o),
(410,-2,o),
(461,-12,c),
(580,188,l),
(548,188,l),
(520,154,o),
(491,123,o),
(453,92,cs),
(419,64,o),
(391,54,o),
(351,50,cs),
(289,44,o),
(225,39,o),
(164,39,cs),
(94,39,l),
(171,133,o),
(267,231,o),
(352,316,cs),
(656,619,l),
(664,658,l),
(601,648,o),
(552,646,o),
(503,646,cs),
(187,646,l),
(193,667,o),
(198,689,o),
(202,710,c),
(163,710,l),
(147,634,o),
(121,558,o),
(93,480,c),
(129,475,l),
(146,519,o),
(161,563,o),
(176,607,c),
(536,607,l),
(473,535,o),
(401,462,o),
(326,387,cs),
(-20,40,l),
(-15,0,l)
);
}
);
width = 603;
},
{
anchors = (
{
name = bottom;
pos = (257,0);
},
{
name = center;
pos = (317,327);
},
{
name = top;
pos = (396,653);
}
);
layerId = "66C19249-B420-404C-A3E7-B74793AC6646";
shapes = (
{
closed = 1;
nodes = (
(306,0,ls),
(361,0,o),
(413,-2,o),
(465,-12,c),
(585,190,l),
(546,190,l),
(517,154,o),
(491,125,o),
(462,101,cs),
(432,76,o),
(409,69,o),
(381,66,cs),
(317,59,o),
(249,56,o),
(181,56,cs),
(120,56,l),
(193,149,o),
(280,239,o),
(356,316,cs),
(662,626,l),
(670,665,l),
(606,655,o),
(555,653,o),
(506,653,cs),
(186,653,l),
(193,674,o),
(197,697,o),
(202,718,c),
(163,718,l),
(147,641,o),
(121,564,o),
(92,485,c),
(129,480,l),
(142,520,o),
(158,558,o),
(170,598,c),
(514,598,l),
(460,532,o),
(394,464,o),
(331,400,cs),
(-22,40,l),
(-17,0,l)
);
}
);
width = 616;
},
{
anchors = (
{
name = bottom;
pos = (230,0);
},
{
name = center;
pos = (289,323);
},
{
name = top;
pos = (368,646);
}
);
layerId = m004;
shapes = (
{
closed = 1;
nodes = (
(268,0,ls),
(316,0,o),
(361,-2,o),
(406,-12,c),
(525,188,l),
(493,188,l),
(464,146,o),
(435,111,o),
(407,83,cs),
(376,52,o),
(351,41,o),
(320,37,cs),
(250,28,o),
(183,25,o),
(116,25,cs),
(72,25,l),
(142,119,o),
(253,241,o),
(322,316,cs),
(601,619,l),
(609,658,l),
(553,648,o),
(510,646,o),
(467,646,cs),
(191,646,l),
(197,667,o),
(202,689,o),
(206,710,c),
(167,710,l),
(151,634,o),
(125,558,o),
(97,480,c),
(133,475,l),
(151,524,o),
(168,572,o),
(183,621,c),
(507,621,l),
(442,542,o),
(369,460,o),
(293,377,cs),
(-16,40,l),
(-11,0,l)
);
}
);
width = 542;
},
{
anchors = (
{
name = bottom;
pos = (297,0);
},
{
name = center;
pos = (354,323);
},
{
name = top;
pos = (435,646);
}
);
layerId = "427C505E-2C0B-4FBE-8765-228C251EA8A7";
shapes = (
{
closed = 1;
nodes = (
(391,0,ls),
(444,0,o),
(497,-2,o),
(548,-12,c),
(667,188,l),
(629,188,l),
(602,155,o),
(577,128,o),
(540,98,cs),
(506,70,o),
(478,60,o),
(438,56,cs),
(376,50,o),
(312,45,o),
(251,45,cs),
(186,45,l),
(262,137,o),
(356,233,o),
(439,316,cs),
(743,619,l),
(751,658,l),
(688,648,o),
(593,646,o),
(544,646,cs),
(189,646,l),
(195,667,o),
(200,689,o),
(204,710,c),
(159,710,l),
(143,634,o),
(117,558,o),
(89,480,c),
(131,475,l),
(148,519,o),
(161,557,o),
(176,601,c),
(527,601,l),
(465,531,o),
(395,460,o),
(322,387,cs),
(-24,40,l),
(-19,0,l)
);
}
);
width = 686;
}
);
unicode = 90;
userData = {
KernOnName = Z;
};
},
{
glyphname = Q.alt;
kernLeft = KO_O;
kernRight = KO_Q;
lastChange = "2025-04-03 21:33:28 +0000";
layers = (
{
anchors = (
{
name = bottom;
pos = (329,0);
},
{
name = top;
pos = (443,646);
}
);
layerId = m01;
shapes = (
{
closed = 1;
nodes = (
(548,-12,o),
(707,162,o),
(707,379,cs),
(707,550,o),
(595,658,o),
(420,658,cs),
(222,658,o),
(66,488,o),
(66,271,cs),
(66,97,o),
(176,-12,o),
(351,-12,cs)
);
},
{
closed = 1;
nodes = (
(223,27,o),
(154,109,o),
(154,255,cs),
(154,450,o),
(283,619,o),
(429,619,cs),
(550,619,o),
(619,538,o),
(619,395,cs),
(619,200,o),
(489,27,o),
(346,27,cs)
);
},
{
closed = 1;
nodes = (
(619,-122,o),
(802,-122,cs),
(816,-122,o),
(829,-124,o),
(843,-130,c),
(886,-27,l),
(827,-73,o),
(784,-88,o),
(740,-88,cs),
(673,-88,o),
(623,-54,o),
(525,50,c),
(408,13,l),
(531,-91,o)
);
}
);
width = 740;
},
{
anchors = (
{
name = bottom;
pos = (331,0);
},
{
name = top;
pos = (446,654);
}
);
layerId = "66C19249-B420-404C-A3E7-B74793AC6646";
shapes = (
{
closed = 1;
nodes = (
(558,-12,o),
(712,158,o),
(712,384,cs),
(712,557,o),
(599,666,o),
(422,666,cs),
(216,666,o),
(65,500,o),
(65,274,cs),
(65,98,o),
(176,-12,o),
(353,-12,cs)
);
},
{
closed = 1;
nodes = (
(224,42,o),
(154,121,o),
(154,262,cs),
(154,455,o),
(278,612,o),
(431,612,cs),
(553,612,o),
(622,534,o),
(622,396,cs),
(622,203,o),
(498,42,o),
(348,42,cs)
);
},
{
closed = 1;
nodes = (
(621,-122,o),
(802,-122,cs),
(816,-122,o),
(830,-124,o),
(843,-130,c),
(886,-27,l),
(827,-70,o),
(784,-85,o),
(739,-85,cs),
(673,-85,o),
(623,-52,o),
(525,50,c),
(408,13,l),
(527,-96,o)
);
}
);
width = 754;
},
{
anchors = (
{
name = bottom;
pos = (304,0);
},
{
name = top;
pos = (418,646);
}
);
layerId = m004;
shapes = (
{
closed = 1;
nodes = (
(514,-12,o),
(655,156,o),
(655,379,cs),
(655,549,o),
(552,658,o),
(392,658,cs),
(205,658,o),
(68,494,o),
(68,271,cs),
(68,97,o),
(168,-12,o),
(329,-12,cs)
);
},
{
closed = 1;
nodes = (
(202,17,o),
(136,102,o),
(136,252,cs),
(136,461,o),
(255,629,o),
(403,629,cs),
(520,629,o),
(587,545,o),
(587,397,cs),
(587,189,o),
(466,17,o),
(322,17,cs)
);
},
{
closed = 1;
nodes = (
(599,-122,o),
(783,-122,cs),
(796,-122,o),
(810,-124,o),
(823,-130,c),
(866,-32,l),
(808,-78,o),
(764,-93,o),
(714,-93,cs),
(642,-93,o),
(584,-61,o),
(475,54,c),
(388,13,l),
(507,-90,o)
);
}
);
width = 680;
},
{
anchors = (
{
name = bottom;
pos = (340,0);
},
{
name = top;
pos = (454,646);
}
);
layerId = "427C505E-2C0B-4FBE-8765-228C251EA8A7";
shapes = (
{
closed = 1;
nodes = (
(573,-12,o),
(746,162,o),
(746,379,cs),
(746,550,o),
(624,658,o),
(434,658,cs),
(219,658,o),
(49,488,o),
(49,271,cs),
(49,97,o),
(169,-12,o),
(359,-12,cs)
);
},
{
closed = 1;
nodes = (
(262,27,o),
(205,109,o),
(205,255,cs),
(205,450,o),
(312,619,o),
(433,619,cs),
(533,619,o),
(590,538,o),
(590,395,cs),
(590,200,o),
(482,27,o),
(364,27,cs)
);
},
{
closed = 1;
nodes = (
(627,-122,o),
(800,-122,cs),
(816,-122,o),
(830,-124,o),
(843,-130,c),
(886,-21,l),
(827,-67,o),
(789,-82,o),
(750,-82,cs),
(687,-82,o),
(638,-42,o),
(555,60,c),
(388,13,l),
(508,-96,o)
);
}
);
width = 762;
}
);
metricLeft = O;
metricWidth = O;
},
{
glyphname = R.alt;
kernLeft = KO_H;
lastChange = "2025-05-03 00:12:49 +0000";
layers = (
{
anchors = (
{
name = bottom;
pos = (287,0);
},
{
name = top;
pos = (357,646);
}
);
layerId = m01;
shapes = (
{
closed = 1;
nodes = (
(408,286,o),
(558,358,o),
(558,485,cs),
(558,574,o),
(482,650,o),
(353,650,cs),
(320,650,o),
(279,646,o),
(228,646,cs),
(188,646,o),
(159,648,o),
(138,650,c),
(132,619,l),
(156,613,o),
(181,604,o),
(206,591,c),
(238,605,l),
(273,609,o),
(295,611,o),
(318,611,cs),
(404,611,o),
(462,552,o),
(462,478,cs),
(462,387,o),
(372,325,o),
(271,325,cs),
(245,325,o),
(215,330,o),
(186,345,c),
(177,306,l),
(207,291,o),
(239,286,o),
(271,286,cs)
);
},
{
closed = 1;
nodes = (
(519,-11,o),
(547,-2,o),
(568,12,c),
(573,36,l),
(541,30,o),
(520,32,o),
(504,53,cs),
(439,138,o),
(400,224,o),
(373,329,c),
(268,296,l),
(294,286,o),
(305,263,o),
(316,232,cs),
(351,134,o),
(418,-11,o),
(498,-11,cs)
);
},
{
closed = 1;
nodes = (
(22,-1,o),
(61,0,o),
(98,0,cs),
(135,0,o),
(174,-1,o),
(210,-6,c),
(215,25,l),
(192,30,o),
(148,45,o),
(148,53,c),
(153,91,o),
(162,137,o),
(178,214,cs),
(221,419,ls),
(244,528,o),
(256,575,o),
(274,627,c),
(182,627,l),
(177,577,o),
(167,524,o),
(145,419,cs),
(102,214,ls),
(86,136,o),
(75,91,o),
(63,53,cs),
(61,45,o),
(14,31,o),
(-11,25,c),
(-16,-6,l)
);
}
);
width = 622;
},
{
anchors = (
{
name = bottom;
pos = (280,0);
},
{
name = top;
pos = (369,654);
}
);
layerId = "66C19249-B420-404C-A3E7-B74793AC6646";
shapes = (
{
closed = 1;
nodes = (
(415,290,o),
(567,348,o),
(567,485,cs),
(567,586,o),
(489,658,o),
(359,658,cs),
(325,658,o),
(282,654,o),
(230,654,cs),
(189,654,o),
(159,656,o),
(136,658,c),
(129,620,l),
(151,614,o),
(169,606,o),
(184,592,c),
(241,598,l),
(275,601,o),
(297,602,o),
(319,602,cs),
(410,602,o),
(471,550,o),
(471,482,cs),
(471,401,o),
(383,345,o),
(280,345,cs),
(250,345,o),
(218,350,o),
(190,363,c),
(179,310,l),
(209,295,o),
(242,290,o),
(276,290,cs)
);
},
{
closed = 1;
nodes = (
(517,-11,o),
(544,-7,o),
(566,-2,c),
(575,42,l),
(542,36,o),
(513,52,o),
(497,73,cs),
(448,137,o),
(410,227,o),
(384,332,c),
(264,300,l),
(289,289,o),
(301,265,o),
(312,234,cs),
(349,130,o),
(414,-11,o),
(494,-11,cs)
);
},
{
closed = 1;
nodes = (
(23,-1,o),
(62,0,o),
(99,0,cs),
(136,0,o),
(175,-1,o),
(211,-6,c),
(218,32,l),
(196,37,o),
(154,52,o),
(154,60,c),
(159,97,o),
(167,141,o),
(183,217,cs),
(227,424,ls),
(250,533,o),
(264,586,o),
(280,635,c),
(179,635,l),
(174,581,o),
(162,518,o),
(142,424,cs),
(98,217,ls),
(82,141,o),
(71,96,o),
(61,59,cs),
(59,51,o),
(15,38,o),
(-8,32,c),
(-15,-6,l)
);
}
);
width = 629;
},
{
anchors = (
{
name = bottom;
pos = (267,0);
},
{
name = top;
pos = (348,646);
}
);
layerId = m004;
shapes = (
{
closed = 1;
nodes = (
(371,286,o),
(508,364,o),
(508,490,cs),
(508,578,o),
(442,650,o),
(331,650,cs),
(302,650,o),
(266,646,o),
(221,646,cs),
(183,646,o),
(156,648,o),
(136,650,c),
(131,627,l),
(156,620,o),
(178,612,o),
(196,599,c),
(228,617,l),
(262,623,o),
(285,625,o),
(306,625,cs),
(385,625,o),
(436,561,o),
(436,484,cs),
(436,382,o),
(346,311,o),
(252,311,cs),
(225,311,o),
(198,318,o),
(173,333,c),
(167,306,l),
(193,291,o),
(221,286,o),
(250,286,cs)
);
},
{
closed = 1;
nodes = (
(464,-11,o),
(492,-2,o),
(509,13,c),
(513,33,l),
(480,26,o),
(469,29,o),
(458,46,cs),
(403,129,o),
(371,213,o),
(350,330,c),
(251,296,l),
(274,285,o),
(282,270,o),
(293,231,cs),
(321,131,o),
(377,-11,o),
(448,-11,cs)
);
},
{
closed = 1;
nodes = (
(22,-1,o),
(56,0,o),
(90,0,cs),
(123,0,o),
(158,-1,o),
(190,-6,c),
(195,17,l),
(174,22,o),
(137,37,o),
(137,45,c),
(142,87,o),
(151,134,o),
(168,214,cs),
(211,419,ls),
(235,533,o),
(247,579,o),
(263,627,c),
(179,627,l),
(173,576,o),
(163,524,o),
(141,419,cs),
(98,214,ls),
(80,127,o),
(68,82,o),
(57,45,cs),
(55,37,o),
(14,23,o),
(-8,17,c),
(-13,-6,l)
);
}
);
width = 556;
},
{
anchors = (
{
name = bottom;
pos = (328,0);
},
{
name = top;
pos = (398,646);
}
);
background = {
anchors = (
{
name = bottom;
pos = (324,0);
},
{
name = top;
pos = (394,646);
}
);
shapes = (
{
closed = 1;
nodes = (
(464,286,o),
(626,350,o),
(626,485,cs),
(626,582,o),
(544,650,o),
(405,650,cs),
(369,650,o),
(325,646,o),
(270,646,cs),
(213,646,o),
(157,646,o),
(100,650,c),
(93,613,l),
(121,607,o),
(151,598,o),
(182,585,c),
(269,599,l),
(300,603,o),
(319,605,o),
(339,605,cs),
(414,605,o),
(465,549,o),
(465,478,cs),
(465,391,o),
(386,331,o),
(298,331,cs),
(276,331,o),
(249,336,o),
(224,351,c),
(215,306,l),
(247,291,o),
(282,286,o),
(316,286,cs)
);
},
{
closed = 1;
nodes = (
(575,-11,o),
(610,-2,o),
(635,12,c),
(643,42,l),
(613,36,o),
(593,38,o),
(579,56,cs),
(515,138,o),
(473,219,o),
(443,329,c),
(277,296,l),
(303,285,o),
(314,265,o),
(327,232,cs),
(365,134,o),
(436,-11,o),
(534,-11,cs)
);
},
{
closed = 1;
nodes = (
(33,-1,o),
(87,0,o),
(142,0,cs),
(197,0,o),
(251,-1,o),
(306,-6,c),
(312,31,l),
(276,36,o),
(212,51,o),
(212,59,c),
(219,111,o),
(228,154,o),
(241,214,cs),
(291,453,ls),
(303,510,o),
(316,566,o),
(333,628,c),
(187,628,l),
(179,568,o),
(169,519,o),
(155,453,cs),
(105,214,ls),
(94,162,o),
(83,113,o),
(67,59,cs),
(65,51,o),
(14,37,o),
(-17,31,c),
(-22,-6,l)
);
}
);
};
layerId = "427C505E-2C0B-4FBE-8765-228C251EA8A7";
shapes = (
{
closed = 1;
nodes = (
(464,286,o),
(626,350,o),
(626,485,cs),
(626,582,o),
(544,650,o),
(405,650,cs),
(369,650,o),
(325,646,o),
(270,646,cs),
(213,646,o),
(157,646,o),
(100,650,c),
(93,613,l),
(121,607,o),
(151,598,o),
(182,585,c),
(269,599,l),
(300,603,o),
(319,605,o),
(339,605,cs),
(414,605,o),
(465,549,o),
(465,478,cs),
(465,391,o),
(386,331,o),
(298,331,cs),
(276,331,o),
(249,336,o),
(224,351,c),
(215,306,l),
(247,291,o),
(282,286,o),
(316,286,cs)
);
},
{
closed = 1;
nodes = (
(575,-11,o),
(610,-2,o),
(635,12,c),
(643,42,l),
(613,36,o),
(593,38,o),
(579,56,cs),
(515,138,o),
(473,219,o),
(443,329,c),
(277,296,l),
(303,285,o),
(314,265,o),
(327,232,cs),
(365,134,o),
(436,-11,o),
(534,-11,cs)
);
},
{
closed = 1;
nodes = (
(33,-1,o),
(87,0,o),
(142,0,cs),
(197,0,o),
(251,-1,o),
(306,-6,c),
(312,31,l),
(276,36,o),
(212,51,o),
(212,59,c),
(219,111,o),
(228,154,o),
(241,214,cs),
(291,453,ls),
(303,510,o),
(316,566,o),
(333,628,c),
(187,628,l),
(179,568,o),
(169,519,o),
(155,453,cs),
(105,214,ls),
(94,162,o),
(83,113,o),
(67,59,cs),
(65,51,o),
(14,37,o),
(-17,31,c),
(-22,-6,l)
);
}
);
width = 687;
}
);
metricLeft = "=H*0.6";
},
{
glyphname = Y.alt;
lastChange = "2025-03-29 17:40:44 +0000";
layers = (
{
anchors = (
{
name = bottom;
pos = (331,0);
},
{
name = top;
pos = (468,646);
},
{
name = topleft;
pos = (107,646);
}
);
layerId = m01;
shapes = (
{
closed = 1;
nodes = (
(232,-1,o),
(282,0,o),
(332,0,cs),
(381,0,o),
(431,-1,o),
(479,-6,c),
(484,25,l),
(449,30,o),
(382,44,o),
(382,52,c),
(389,106,o),
(400,158,o),
(413,218,cs),
(446,366,o),
(616,613,o),
(806,613,cs),
(813,613,o),
(820,613,o),
(826,612,c),
(835,655,l),
(825,659,o),
(815,660,o),
(804,660,cs),
(646,660,o),
(469,470,o),
(393,290,c),
(418,507,o),
(330,660,o),
(226,660,cs),
(186,660,o),
(137,645,o),
(95,613,c),
(109,581,l),
(133,589,o),
(154,593,o),
(177,593,cs),
(293,593,o),
(344,427,o),
(344,296,cs),
(344,237,o),
(318,124,o),
(297,53,cs),
(295,45,o),
(224,31,o),
(187,25,c),
(182,-6,l)
);
}
);
width = 761;
},
{
anchors = (
{
name = bottom;
pos = (331,0);
},
{
name = top;
pos = (470,654);
},
{
name = topleft;
pos = (105,654);
}
);
layerId = "66C19249-B420-404C-A3E7-B74793AC6646";
shapes = (
{
closed = 1;
nodes = (
(232,-1,o),
(282,0,o),
(332,0,cs),
(381,0,o),
(431,-1,o),
(479,-6,c),
(486,32,l),
(453,37,o),
(389,52,o),
(389,60,c),
(394,106,o),
(403,152,o),
(418,220,cs),
(449,361,o),
(618,603,o),
(804,603,cs),
(811,603,o),
(818,603,o),
(824,602,c),
(837,663,l),
(827,667,o),
(817,668,o),
(806,668,cs),
(650,668,o),
(472,478,o),
(395,294,c),
(421,515,o),
(331,668,o),
(228,668,cs),
(188,668,o),
(140,653,o),
(97,620,c),
(121,568,l),
(144,576,o),
(164,580,o),
(185,580,cs),
(292,580,o),
(340,424,o),
(340,298,cs),
(340,243,o),
(317,136,o),
(295,60,cs),
(293,52,o),
(224,38,o),
(189,32,c),
(182,-6,l)
);
}
);
width = 766;
},
{
anchors = (
{
name = bottom;
pos = (296,0);
},
{
name = top;
pos = (433,646);
},
{
name = topleft;
pos = (110,646);
}
);
layerId = m004;
shapes = (
{
closed = 1;
nodes = (
(206,-1,o),
(251,0,o),
(296,0,cs),
(340,0,o),
(385,-1,o),
(428,-6,c),
(433,17,l),
(402,22,o),
(344,37,o),
(344,45,c),
(351,105,o),
(364,166,o),
(376,218,cs),
(409,367,o),
(569,625,o),
(740,625,cs),
(745,625,o),
(752,625,o),
(757,624,c),
(764,655,l),
(755,659,o),
(746,660,o),
(736,660,cs),
(593,660,o),
(430,469,o),
(358,290,c),
(385,506,o),
(310,660,o),
(216,660,cs),
(176,660,o),
(132,642,o),
(97,613,c),
(113,600,l),
(135,609,o),
(154,613,o),
(174,613,cs),
(274,613,o),
(315,455,o),
(315,321,cs),
(315,250,o),
(287,122,o),
(264,45,cs),
(262,37,o),
(199,23,o),
(166,17,c),
(161,-6,l)
);
}
);
width = 684;
},
{
anchors = (
{
name = bottom;
pos = (323,0);
},
{
name = top;
pos = (460,646);
},
{
name = topleft;
pos = (99,646);
}
);
layerId = "427C505E-2C0B-4FBE-8765-228C251EA8A7";
shapes = (
{
closed = 1;
nodes = (
(194,-1,o),
(244,0,o),
(324,0,cs),
(403,0,o),
(453,-1,o),
(501,-6,c),
(506,25,l),
(471,30,o),
(404,44,o),
(404,52,c),
(411,106,o),
(422,158,o),
(435,218,cs),
(465,355,o),
(619,583,o),
(792,583,cs),
(800,583,o),
(807,582,o),
(812,581,c),
(827,655,l),
(817,659,o),
(807,660,o),
(796,660,cs),
(638,660,o),
(461,470,o),
(385,290,c),
(410,507,o),
(321,660,o),
(208,660,cs),
(172,660,o),
(124,645,o),
(87,613,c),
(114,551,l),
(136,559,o),
(155,563,o),
(171,563,cs),
(270,563,o),
(306,414,o),
(306,296,cs),
(306,237,o),
(280,124,o),
(259,53,cs),
(257,45,o),
(186,31,o),
(149,25,c),
(144,-6,l)
);
}
);
width = 753;
}
);
metricLeft = Y;
metricRight = Y;
},
{
glyphname = a;
kernLeft = KO_a;
kernRight = KO_a;
lastChange = "2025-04-03 19:34:16 +0000";
layers = (
{
anchors = (
{
name = bottom;
pos = (211,0);
},
{
name = ogonek;
pos = (356,10);
},
{
name = top;
pos = (293,465);
}
);
layerId = m01;
shapes = (
{
attr = {
fillColor = (0,255);
};
closed = 1;
nodes = (
(147,-12,o),
(206,27,o),
(293,111,c),
(323,191,l),
(251,100,o),
(201,62,o),
(155,62,cs),
(110,62,o),
(82,96,o),
(82,150,cs),
(82,259,o),
(197,361,o),
(356,366,c),
(392,434,l),
(188,413,o),
(15,244,o),
(15,86,cs),
(15,16,o),
(49,-12,o),
(94,-12,cs)
);
},
{
closed = 1;
nodes = (
(336,-12,o),
(400,35,o),
(453,100,c),
(435,118,l),
(412,91,o),
(367,59,o),
(351,59,cs),
(343,59,o),
(341,70,o),
(341,95,cs),
(341,222,o),
(395,374,o),
(463,451,c),
(402,484,l),
(327,364,o),
(271,184,o),
(271,71,cs),
(271,12,o),
(279,-12,o),
(300,-12,cs)
);
}
);
width = 494;
},
{
anchors = (
{
name = bottom;
pos = (243,0);
},
{
name = ogonek;
pos = (399,10);
},
{
name = top;
pos = (335,526);
}
);
layerId = "66C19249-B420-404C-A3E7-B74793AC6646";
shapes = (
{
attr = {
fillColor = (0,255);
};
closed = 1;
nodes = (
(163,-12,o),
(234,23,o),
(330,106,c),
(367,226,l),
(284,113,o),
(228,72,o),
(183,72,cs),
(135,72,o),
(108,116,o),
(108,178,cs),
(108,302,o),
(242,408,o),
(404,413,c),
(444,490,l),
(217,466,o),
(20,287,o),
(20,105,cs),
(20,31,o),
(53,-12,o),
(109,-12,cs)
);
},
{
closed = 1;
nodes = (
(381,-12,o),
(453,41,o),
(513,114,c),
(493,134,l),
(468,104,o),
(417,68,o),
(399,68,cs),
(390,68,o),
(388,79,o),
(388,126,cs),
(388,253,o),
(448,422,o),
(524,509,c),
(455,546,l),
(372,411,o),
(307,208,o),
(307,81,cs),
(307,15,o),
(317,-12,o),
(341,-12,cs)
);
}
);
width = 560;
},
{
anchors = (
{
name = bottom;
pos = (184,0);
},
{
name = ogonek;
pos = (317,10);
},
{
name = top;
pos = (256,404);
}
);
layerId = m004;
shapes = (
{
attr = {
fillColor = (0,255);
};
closed = 1;
nodes = (
(126,-12,o),
(181,22,o),
(257,96,c),
(283,166,l),
(220,86,o),
(181,54,o),
(147,54,cs),
(110,54,o),
(82,88,o),
(82,137,cs),
(82,243,o),
(174,316,o),
(312,319,c),
(344,378,l),
(165,360,o),
(14,220,o),
(14,73,cs),
(14,20,o),
(40,-12,o),
(83,-12,cs)
);
},
{
closed = 1;
nodes = (
(295,-12,o),
(351,29,o),
(397,86,c),
(381,102,l),
(361,78,o),
(321,50,o),
(307,50,cs),
(300,50,o),
(298,60,o),
(298,96,cs),
(298,193,o),
(346,327,o),
(406,395,c),
(353,423,l),
(288,318,o),
(239,160,o),
(239,61,cs),
(239,9,o),
(246,-12,o),
(263,-12,cs)
);
}
);
width = 433;
},
{
anchors = (
{
name = bottom;
pos = (226,0);
},
{
name = ogonek;
pos = (371,10);
},
{
name = top;
pos = (308,465);
}
);
background = {
shapes = (
{
attr = {
fillColor = (0,255);
};
closed = 1;
nodes = (
(162,-12,o),
(221,27,o),
(308,111,c),
(338,191,l),
(266,100,o),
(216,62,o),
(170,62,cs),
(125,62,o),
(97,96,o),
(97,150,cs),
(97,259,o),
(212,361,o),
(371,366,c),
(407,434,l),
(203,413,o),
(30,244,o),
(30,86,cs),
(30,16,o),
(64,-12,o),
(109,-12,cs)
);
},
{
closed = 1;
nodes = (
(364,-12,o),
(437,35,o),
(498,100,c),
(479,117,l),
(456,90,o),
(411,58,o),
(395,58,cs),
(387,58,o),
(385,69,o),
(385,94,cs),
(385,221,o),
(439,373,o),
(507,450,c),
(397,484,l),
(322,364,o),
(266,184,o),
(266,71,cs),
(266,12,o),
(298,-12,o),
(322,-12,cs)
);
}
);
};
layerId = "427C505E-2C0B-4FBE-8765-228C251EA8A7";
shapes = (
{
attr = {
fillColor = (0,255);
};
closed = 1;
nodes = (
(174,-12,o),
(233,22,o),
(309,106,c),
(341,191,l),
(279,109,o),
(231,72,o),
(188,72,cs),
(146,72,o),
(122,104,o),
(122,158,cs),
(122,275,o),
(225,361,o),
(371,366,c),
(407,434,l),
(202,414,o),
(10,245,o),
(10,86,cs),
(10,20,o),
(42,-12,o),
(106,-12,cs)
);
},
{
closed = 1;
nodes = (
(365,-12,o),
(438,35,o),
(499,100,c),
(476,122,l),
(452,94,o),
(411,64,o),
(397,64,cs),
(389,64,o),
(386,73,o),
(386,100,cs),
(386,223,o),
(437,370,o),
(508,450,c),
(397,484,l),
(323,366,o),
(266,186,o),
(266,71,cs),
(266,23,o),
(291,-12,o),
(326,-12,cs)
);
}
);
width = 535;
}
);
metricLeft = o;
metricRight = "=n*0.7";
unicode = 97;
userData = {
KernOnName = a;
};
},
